<?xml version="1.0" encoding="UTF-8"?>
<svg id="Layer_3" data-name="Layer 3" xmlns="http://www.w3.org/2000/svg" viewBox="0 0 948.34 1128.7">
  <defs>
    <style>
      .cls-1 {
        fill: #adcdd4;
      }

      .cls-2 {
        fill: #6cb6e2;
      }

      .cls-3 {
        fill: #9ad2ed;
      }

      .cls-4 {
        fill: #281d19;
      }

      .cls-5 {
        fill: #345e77;
      }

      .cls-6 {
        fill: #fcecd0;
      }
    </style>
  </defs>
  <g id="Layer_2" data-name="Layer 2">
    <g id="_7UawvB" data-name="7UawvB">
      <g>
        <path class="cls-3" d="M245.45,1065.14c4.16,7.33,10.12,13.19,17,18,13.28,9.29,42.88,19.62,58.91,22.43,1.63.29,3.4-.61,5.09-.43,3.98.87,6.01.55,9,1,2.53,3.33,9.85,2.67,14,3,7.45.6,15.86,1.71,23,2l-.52,1c20.45-.22,41.47,1,61.62-2.63,10.24-1.84,22.07-5.01,29.9-11.37,1.95-1.59,5.44-4.33,7-6,11.55-12.37,5.64-31.8-.99-44.99,15.72,1.61,32.71,2.05,48.48.98,14.04-.95,28-3.41,41.5-6.99-.79,5.35,2.17,10.1,5.5,14.01,10.2,11.98,37.88,17.58,53.32,20.68,52.64,10.56,125.61,15.02,177.25-1.13,8.15-2.55,17.8-8.2,20.94-16.56.52-1.38.39-3.91,1.02-5.49.2-.48.51-.56.98-.51.15.02.53.88.98,1.01,1.23-4.58.08-8.42.03-13.01,12.82,3.3,48.72,11.14,40.24,30.75-4.87,11.26-33.11,20.85-44.46,24.54-82.33,26.72-192.64,30.93-279.32,32.67-112.73,2.27-227.18-.91-337.29-26.63-17.53-4.1-64.9-14.38-74.03-29.97-9.83-16.79,15.64-23.8,27.08-27.63,28.24-9.45,58.07-13.43,87.28-18.81l3.38,1.67c-1.01,12.53-3.38,27.33,3.12,38.42Z"/>
        <path class="cls-3" d="M816.45,1058.14c-3.14,8.36-12.79,14.01-20.94,16.56-51.63,16.15-124.61,11.69-177.25,1.13-15.45-3.1-43.13-8.69-53.32-20.68-3.33-3.91-6.29-8.65-5.5-14.01-13.5,3.58-27.46,6.04-41.5,6.99-15.78,1.06-32.77.63-48.48-.98,6.63,13.2,12.54,32.63.99,44.99,6.55-11.4,6.3-22.41,2.01-34.51-1.42-4.02-3.71-7.48-5.01-11.48,31.02,2.01,63.17,2.01,92.99-7.01-1.01,23.05,30.35,29.51,47.98,33.53,50.91,11.61,130.03,16.86,180.03,1.97,10.94-3.26,21.79-6.22,28-16.5Z"/>
        <path class="cls-3" d="M463.45,1098.14c-7.83,6.36-19.66,9.53-29.9,11.37-20.15,3.63-41.18,2.4-61.62,2.63l.52-1c14.26.58,31.19.29,45.37-1.13,15.47-1.55,31.85-4.67,45.63-11.87Z"/>
        <path class="cls-3" d="M326.45,1105.14c-1.69-.18-3.46.72-5.09.43-16.03-2.81-45.63-13.14-58.91-22.43,20.09,10.3,41.93,17.19,64,22Z"/>
        <path class="cls-3" d="M349.45,1109.14c-4.15-.33-11.47.33-14-3,4.6.69,9.65,1.19,14,3Z"/>
        <g>
          <g>
            <path class="cls-2" d="M407.45,758.14l1.19,9.34.81.66v2c-1.65,1.26-1.65,5.74,0,7,0,.33,0,.67,0,1-1.56.41-1.5,3.68,0,4-.23,5.7-1.33,11.27-1,17-1.09-.59-7.3-2.7-7.99-2-.18,2.34-.02,4.57.67,6.83,1.87,6.14,12.06,20.13,15.72,27.28,26.89,52.63,35.58,108.63,0,159.78-4.82,6.92-10.65,13.09-15.6,19.89-5.74.29-11.58.38-17.33.26-2.52-.05-5.6-1.55-7.78-1.06-.73.17-.58,1.79-1.37,1.99-3.1.76-7.49.47-11.33,1.5s-26.96,10.43-22.89,16.44c1.99,2.93,19.69-1.44,23.91-1.91l5.37.89,12.63-1.89c.57-.03,2.11-1.37,4.52-1.12,1.94.2,1.4,2.04,1.91,2.01,20.19-1.28,46.16,7.94,59.54,23.64,7.14,8.38,16.93,29.84,1.03,33.47-2.56-13.6-15.84-39.17-31.47-40.06-14.66-.84.65,11.64,4.29,16.73,5.73,8.02,9.96,17.1,12.24,26.71-.3,1.9-26.35,3.9-29.97,3.52-1.09-14.4-19.74-44.64-35.66-43.82-9.95.51,4.2,13.56,5.98,16,2.14,2.93,4.53,6.5,6.39,9.61,1.37,2.29,7.9,14.43,8.05,15.99.35,3.58-12.31,2.43-15.35,2.31-26.28-1-53-6.71-77.51-14.99l-3-1c-.29-.11-.71.11-1,0-.53-1.85-2.23-2.16-4-2-.28-.12-.72.12-1,0-4.81-3.69-10.88-5.56-16-9-.6-.41-1.65-.15-3.01-1.45-6-5.74-7.53-22.03-6.94-30,.09-1.22,1.47-2.22,1.63-3.88.2-2.02-1.08-6.26-.71-7.99.18-.8,2.02-.64,2.05-1.25.06-1.02-1.15-3.05-1.11-4.91.09-4.05,1.68-7.93.83-11.76-.41-1.81-13.09-16.9-15.38-20.61-15.32-24.81-23.24-55.57-24.36-84.14,1.67-5.73,1.68-14.19,0-20,1.46-33.57,10.75-66.4,24-97,.75,1.66,1.68,1.76,3.16,2.33,26.63,10.24,67.74,5.92,94.84-1.83,13.43-3.84,27.97-8.48,35-21.5,3.54.26,9.7,1.4,12.56,1.11,1.88-.19,1.27-1.88,1.91-1.94,3.91-.31,7.38-.71,11.53-2.17Z"/>
            <path class="cls-2" d="M661.45,414.14c12.85,5.46,27.01,12.09,39.13,19.37,9.87,5.93,20.11,13.63,26.68,22.93-1.66,3.82-3.08,8.42-4.93,12.08-.75,1.48-6.34,11.23-6.9,11.62-4.03,2.86-2.83-11.13-2.98-12.49-.37-3.4-2.45-10.01-6.58-6.59-1.21,1-11.18,23.48-14,28-9.09,14.55-23.14,29.97-37.1,39.9-10.88,7.74-28.39,11.76-28.11,27.42,22.69,47.33,43.99,96.61,59.06,147,24.76,82.78,37.34,191.18-29.26,257.76-52.5,37.36-124.86,60.45-191.43,43.93-10.48-2.6-16.86-9.48-25.57-14.93,3.92-10.56,12.15-23.34,15-34,13.64,7.54,28.24,11.57,43.62,13.88,31.8,4.76,71.41-2.25,100.05-17.71,96.91-52.29,74.18-189.68,49.04-277.38-11.56-40.32-24.57-75.94-49.71-109.79-1.64-2.21-4.36-3.95-4-7,28.1-19.41,45.33-49.35,51.88-82.62.48-2.42-.26-5.2.12-7.38.02-.11.74-1.38,1-2,1.64-3.94,4.6-7.53,6.28-12.22,4.33-12.01,7.19-27.19,8.72-39.78Z"/>
            <path class="cls-2" d="M745.45,1003.14c19.06.55,46.21,13.47,53,32l1,14c-1.52,2.8-4.59,3.56-6.5,5.98-1.67.01-3.44-11.28-4.31-13.67-3.26-8.9-13.57-20.87-23.13-22.87-4.02-.84-9.23-.57-7.88,4.8.82,3.28,12.3,13.99,15.03,19.05,1.67,3.1,4.73,12.98,3.86,16.08-.74,2.66-10.58,2.24-12.38,2.65-.69.15-.58,1.64-1.45,1.9-1.97.6-5.07.56-7.24,1.07-.09-18.78-13.83-41.42-33.61-43.89-4.59-.57-10.85-.56-7.93,5.87.64,1.4,12.91,10.3,15.94,14.11,2.79,3.51,12.44,20.3,9.48,23.82-1.08,1.28-10.57,1.04-12.89,1.1-7.57-1.76-16.61-1.1-24.51-1.02-1.69.02-4.45-.64-5.49,1.02-17.91-.57-38.31-2.29-56-5,7.27-20.13,17.3-35.98,37.26-45.29,1.46-.68,3.28-.11,2.74-2.71,14.43-.09,23.17-7.15,37-8,8.65-.53,19.68-1.24,28-1Z"/>
            <path class="cls-5" d="M741.45,941.14c-17.28,33.76-36.44,42.14-65.34,63.16-2.25,1.64-5.15,3.7-4.66,6.83,3.06,1.11,5.82,1.03,9,1.01.55,2.6-1.28,2.03-2.74,2.71-19.96,9.31-29.99,25.16-37.26,45.29-12.35-1.89-49.86-9.27-57.99-17.51-10.03-10.15,1.58-10.7,8.67-14.31,33.18-16.88,69.58-41.33,92.32-71.18,13.76,1.16,27.9-.28,40.67-5.83l17.33-10.17Z"/>
            <path class="cls-2" d="M683.45,957.14c23.48-30.83,36.2-72.96,38.04-111.46.56-11.79-.51-23.75-.03-35.54,14.78,11.28,25.04,28.18,30.28,46.21s6.32,35.21.71,53.79c-.97,3.21-1.26,4.91-2,8-.08.32.08.68,0,1l-4.88,11.53.88.47c-1.36,3.5-3.46,6.99-5,10l-17.33,10.17c-12.77,5.55-26.91,6.99-40.67,5.83Z"/>
            <path class="cls-5" d="M656.45,961.14c-2.34,4.68-7.55,9.43-11.47,13.03-46.55,42.6-108.25,60.91-171.02,54.96-18.17-1.72-35.97-5.42-52.51-13.01l18-25.98c8.72,5.45,15.09,12.32,25.57,14.93,66.57,16.52,138.93-6.56,191.43-43.93Z"/>
            <path class="cls-5" d="M381.45,761.14c-7.03,13.01-21.57,17.66-35,21.5-27.1,7.75-68.21,12.07-94.84,1.83-1.48-.57-2.41-.67-3.16-2.33,2.43-5.6,4.58-11.39,7.06-16.98,29.09,8.55,59.73,8.46,88.95.49,5.17-1.41,14.25-6.19,18.6-6.48,3.99-.27,13.27,1.59,18.38,1.97Z"/>
            <path class="cls-3" d="M447.45,856.14c.19.15,1.54-.36,1.86.09.52.74,4.63,14.55,5.44,17.1,6.07,19.07,6.34,48.85,2.71,69.37-.33,1.86,1.15,4.01-2.02,3.43,3.53-22,4.75-45.19-.49-67.01-1.88-7.83-5.72-15.14-7.51-22.99Z"/>
            <path class="cls-2" d="M451.45,651.14c-.49,7.7-3.69,15.85-2.65,23.75.3,2.24,2.11,5.98,2.37,8.01.73,5.74-.17,18.93-1.78,24.51-.23.78-1.53.7-1.86,1.51-2.68,6.53-4.13,8.02-9.08,13.22,5-7.68,9.66-14.34,10.72-23.78,1.2-10.59-2.73-18.27-2.72-26.72,0-3.8,2.42-12.15,3.04-17,.24-1.87-1.27-4.06,1.95-3.5Z"/>
            <path class="cls-1" d="M745.45,1003.14c-8.32-.24-19.35.47-28,1,9.11-2.42,18.75-.73,28-1Z"/>
            <path class="cls-1" d="M726.45,1065.14c-9.76.24-20.25.31-30,0,1.04-1.66,3.79-1,5.49-1.02,7.9-.08,16.95-.74,24.51,1.02Z"/>
            <path class="cls-2" d="M447.45,636.14c3.36-.02,4.82,9.19,5.05,11.59.13,1.34-1.05,2.28-1.05,2.41-1.63-2.65-3.68-10.7-4-14Z"/>
            <path class="cls-1" d="M392.45,706.14c.99,3.36-3.3,1-5.5,1h-17.5c-.08,0,.19-1.18-.36-1.62-.71-.57-2.29-1.22-2.39-1.81-.05-.28.75-.5.75-.57,7,5.13,16.73,2.42,25,3Z"/>
            <path class="cls-2" d="M412.45,660.14l-24-2c8.48-.16,15.82-.5,24,2Z"/>
            <path class="cls-2" d="M399.45,644.14l-1.5-2c2.68.08,5.37-.1,8.04,0,1.92.08,4.01-1.03,3.45,2-3.07-.2-6.93-.19-10,0Z"/>
            <path class="cls-1" d="M382.45,1027.14l-12.63,1.89-5.37-.89c6.4-.72,11.7-.7,18-1Z"/>
            <path class="cls-1" d="M224.45,899.14c-.25-6.36-.28-13.64,0-20,1.68,5.81,1.67,14.27,0,20Z"/>
            <path class="cls-1" d="M324.45,626.14c-4.52,1.13-12.41,1.61-17,1,3.45-1.6,8.01-1.09,12-1.51,1.5-.16,3.97-1.48,5,.51Z"/>
            <path class="cls-1" d="M324.45,643.14c-5.8,1.29-10.99,1.15-17.01.98.12-.47,1-.83,1.01-.98h16Z"/>
            <path class="cls-1" d="M799.45,1049.14l-1-14c1.72,4.7,3.68,9.05,1,14Z"/>
            <path class="cls-3" d="M437.45,723.14c-.01,2.57-4.44,4.37-4.9,5.79-.68,2.06-.09,5.95-.35,6.7-2.4,7.2-12.91,18.51-19.43,21.28-4.88,2.07-.69,2.21-.53,2.38.28.29-1.07,2.47-.81,3.34l-1.99-1.48v-3c5.75-2.04,15.55-11.6,18.38-17.12,2.16-4.21,1.86-8.95,3.13-11.87.75-1.73,5.01-4.5,6.49-6.01Z"/>
            <path class="cls-5" d="M409.45,758.14v10l-.81-.66-1.19-9.34c.52-.18,1.48.18,2,0Z"/>
            <path class="cls-1" d="M750.45,918.14c.74-3.09,1.03-4.79,2-8,.03,2.74.58,6.18-2,8Z"/>
            <path class="cls-1" d="M746.45,931.14l-.88-.47,4.88-11.53c-1.08,4.48-2.36,7.78-4,12Z"/>
            <path class="cls-1" d="M292.45,1076.14c-2.27-.86-3.2-1.66-4-2,1.77-.16,3.47.15,4,2Z"/>
            <path class="cls-1" d="M287.45,1074.14c-5.57-2.42-11.92-4.04-16-9,5.12,3.44,11.19,5.31,16,9Z"/>
            <path class="cls-2" d="M414.45,644.14c-.78-.2-2.05.1-3,0,.2-1.7,2.43-1.29,3,0Z"/>
            <path class="cls-1" d="M296.45,1077.14c-1.05-.35-1.93-.61-3-1l3,1Z"/>
            <g>
              <path class="cls-2" d="M457.45,564.14c3.91,2.85,10.01,5.9,15.29,8.21,15.1,6.6,30.81,10.61,48.26,10.83,27.16.34,45.33-9.81,68.13-20.41.46-.21.58-3.18,4.34-1.15,2.38,1.28,1.27,6.63,3.98,3.52,25.14,33.85,38.16,69.47,49.71,109.79,25.14,87.7,47.87,225.09-49.04,277.38-28.64,15.45-68.25,22.47-100.05,17.71-15.39-2.3-29.98-6.34-43.62-13.88.57-2.13.56-7.23,1-10,3.17.57,1.69-1.57,2.02-3.43,3.63-20.52,3.36-50.31-2.71-69.37-.81-2.56-4.92-16.37-5.44-17.1-.33-.46-1.67.06-1.86-.09-1.35-1.07-13.51-25.3-16.59-29.91-3.59-5.38-17.78-24.57-22.41-27.09-.33-5.73.77-11.3,1-17,.05-1.33-.04-2.67,0-4,0-.33,0-.67,0-1,.06-2.33,0-4.67,0-7v-9l1.99,1.48c-.27-.86,1.09-3.04.81-3.34-.17-.17-4.35-.31.53-2.38,6.52-2.77,17.02-14.08,19.43-21.28.25-.75-.33-4.64.35-6.7.47-1.42,4.89-3.22,4.9-5.79.33-.34.68-.66,1-1,4.95-5.2,6.41-6.7,9.08-13.22.33-.81,1.63-.73,1.86-1.51,1.61-5.58,2.51-18.77,1.78-24.51-.26-2.03-2.07-5.77-2.37-8.01-1.05-7.9,2.16-16.05,2.65-23.75.02-.33,0-.67,0-1,0-.13,1.18-1.08,1.05-2.41-.23-2.4-1.7-11.61-5.05-11.59-.06-.57-.1-1.49,0-2,.11-.55,1.41-1.98,1.72-3.75,3.76-21.99,8.63-43.75,8.28-66.25Z"/>
              <path class="cls-3" d="M597.45,565.14c-2.71,3.11-1.6-2.23-3.98-3.52-3.77-2.03-3.89.94-4.34,1.15-22.8,10.6-40.97,20.75-68.13,20.41-17.44-.22-33.16-4.23-48.26-10.83-5.29-2.31-11.38-5.36-15.29-8.21-1.24-.9-3.19-1.33-1-2,42.58,27.65,95.79,24.47,137-4-.36,3.05,2.36,4.79,4,7Z"/>
            </g>
            <path class="cls-5" d="M409.45,777.14c-1.65-1.26-1.65-5.74,0-7,0,2.33.06,4.67,0,7Z"/>
            <path class="cls-5" d="M409.45,782.14c-1.5-.32-1.56-3.59,0-4-.04,1.33.05,2.67,0,4Z"/>
            <g>
              <path class="cls-2" d="M134.45,668.14l-2.71,4.79c-1.56,4.31-2.26,8.78-3.29,13.21-4.04,17.35-8.13,35-9,53-2.28,5.36-.42,12.27-.99,18,1.13.17.92-1,.99-1,1.28-.03,3.48,21.8,4.29,25.21,10.89,45.75,37.1,77.63,79.93,95.89,1.12.48.24,2.6,2.77.9-.15,1.9-.96,3.45-1.05,5.44-.42,9.03.28,20.49,1.06,29.56.03.33-.03.67,0,1,.09.98-.11,2.02,0,3-2.84-4.09-11.69-.18-16.46.04-85.03,3.88-164.59-62.46-168.54-149.04-2.17-47.48,43.22-123.94,89.72-138.78,13.04-4.16,30.92-4.09,31.35,13.27.24,9.51-5.23,17.49-8.06,25.51Z"/>
              <path class="cls-5" d="M21.45,768.14c3.95,86.58,83.51,152.92,168.54,149.04,4.77-.22,13.62-4.13,16.46-.04.99,9.12,2.96,20.02,5,29,1.44,7.25-7.1,4.32-10.57,4.11-.46-.03-.31,1.71-1.09,1.88-1.41.32-5.33.26-6.92.09-2.41-.25-.6-2.28-2.41-2.08.53,5.1-9.79-1.68-10.01,3.99-5.12-.17-7.96-1.91-8.43-1.89-28.46,1.42-65.11-15.31-87.48-32.7-46.57-36.19-65.26-87.78-64.11-145.95.04-1.9-.47-3.89,1.03-5.46Z"/>
              <path class="cls-5" d="M211.45,946.14c.3,1.31,2.82,3.64,2,5.99-11.32.29-21.47,2.4-33,2.01.23-5.67,10.55,1.11,10.01-3.99,1.8-.2,0,1.83,2.41,2.08,1.59.16,5.51.23,6.92-.09.77-.17.63-1.91,1.09-1.88,3.47.21,12.01,3.14,10.57-4.11Z"/>
              <path class="cls-1" d="M119.45,756.14c-.07,0,.14,1.17-.99,1,.57-5.73-1.29-12.64.99-18-.27,5.63.2,11.36,0,17Z"/>
              <path class="cls-1" d="M134.45,668.14c-2.05,5.82-2.5,12.93-6,18,1.03-4.43,1.73-8.9,3.29-13.21l2.71-4.79Z"/>
              <path class="cls-5" d="M206.45,914.14c-.03-.33.03-.67,0-1v1Z"/>
            </g>
          </g>
          <g>
            <path class="cls-1" d="M196.45,612.14l-4,13c.97-4.26.67-9.59,4-13Z"/>
            <g>
              <path class="cls-2" d="M823.45,419.14c1.9-4.99,2.75-9,5.48-14.02,3.6-6.61,17.3-23.54,24.97-23.84,4.89-.19,16.22,4.88,16.22,10.36,0,.86-7.87,11.96-9.19,14.48-5.53,10.59-9.98,25.52-10.52,37.48-.37,8.41,3.17,19.29,9.59,7.6,7.28-13.26,14.79-50.06,29.7-56.31,2.54-1.06,6.22.33,5.77-2.74,1.61-.52.37,1.57,1.68,1.97,3.32,1.02,7.09.48,10.33,3.49,4.57,4.24,7.2,16.41,6.97,22.53l-2.01-1.5c-.08,4.37-.38,9.2-.99,13.5-.23,1.64.36,3.03-.52,4.96-.81,1.77-9.49,9.03-11.9,12.12-5.75,7.35-21.92,34.74-20.59,43.36s8.2,1.02,10.64-2.31c8.18-11.15,19.76-39.88,34.1-42.9,10.27-2.17,9.61,7.5,9.14,15.15-2.39,38.7-30.52,84.01-61.55,106.44-3.11,2.25-17.2,10.31-18.2,11.8-3.22,4.78,2.3,5.11,1.5,8.39-1.6,6.55-14.96,24.87-19.61,31-2.38-.49-3.05.95-4.52,2-32.93,23.7-68.1,50.22-109.63,23.65-16.18-10.35-18.92-21.48-27.31-36.69-3.49-6.32-8.13-12.16-11.25-18.75-2.71-5.71-6.18-20.21-9.29-23.21,11.09,4.41,21.07,5.64,33,5-.33,3.4.73,1.31,2.6,1.11,8.99-.96,15.51-2.92,23.4-7.11,29.35-15.59,41.94-34.5,43.99-68.51,1.02-16.96-3.79-34.59-3.11-49.03.09-1.86,2-1.32,2.09-2.07.33-2.72-2.17-6.65,1.3-10.1,3.29-3.26,3.73.37,4.48.64,21.91,8.05,23.78,28.66,29.24,49.07-2.1,2.69,1.54,10.12,4,12,6.47,4.95,6.22.54,8.1-3.2.46-.91,1.72-.81,1.89-1.51.41-1.65-2.07-9.13-.99-10.28.79-.11,1.51.01,2.29.19,10.69,2.51,22.43,11.86,29.67,20.33,2.22,2.6,14.33,23.36,15.12,11.98.86-12.49-19.83-36.52-30.39-42.7-4.01-2.35-19.75-6.95-20.76-8.24-.5-.62-4.83-14.09-4.88-15.16-.14-3.17,1.97-5.82,2.95-8.41,1.94-5.13,4.52-10.84,6.21-16.3.6-1.95,1.15-3.6.79-5.7Z"/>
              <path class="cls-5" d="M834.45,620.14c-25.87,34.1-70.81,64.71-114.51,67.99-3.74.28-16.94.67-19.79-.18-1.72-.52-2.51-2.32-3.2-3.8-5.52-11.81-9.75-27.69-14.72-40.28-9.8-24.81-19.94-49.7-31.05-73.95-1.07-2.34-7.48-13.64-7.61-14.45-.32-2,9.79-6.14,11.88-7.34,2.21,8.95,11.16,13.33,17.01,19,3.11,3,6.58,17.5,9.29,23.21,3.12,6.58,7.76,12.43,11.25,18.75,8.39,15.21,11.13,26.34,27.31,36.69,41.53,26.57,76.7.05,109.63-23.65,1.47-1.06,2.14-2.49,4.52-2Z"/>
              <path class="cls-1" d="M914.45,420.14c-.06,1.69-1.02,7.17-1.43,9.11-.23,1.11-.67,2.16-1.57,2.89.61-4.3.91-9.13.99-13.5l2.01,1.5Z"/>
              <path class="cls-1" d="M731.45,566.14c-7.89,4.19-14.41,6.14-23.4,7.11-1.87.2-2.93,2.29-2.6-1.11,9.57-.52,17.06-2.97,26-6Z"/>
              <path class="cls-1" d="M816.45,441.14c.95-7.61,4.28-14.89,7-22,.36,2.1-.19,3.75-.79,5.7-1.69,5.47-4.26,11.17-6.21,16.3Z"/>
              <path class="cls-1" d="M813.45,498.14c-2.46-1.88-6.1-9.31-4-12,1.1,4.12,2.3,8.1,4,12Z"/>
            </g>
            <g>
              <path class="cls-4" d="M245.45,1065.14c-.82-5.47-2.64-10.91-3.04-16.46-.76-10.62,3.73-28.52,1.83-36.83-.54-2.36-11.53-15.88-13.96-20.04-3.77-6.45-7.65-14.64-9.84-21.67-82.57,18.18-165.61-27.12-201.84-101.65-32.01-65.86-21.49-148.46,22.44-206.27,19.67-25.88,60.53-60.97,95.46-52.63,42.16,10.06,12.29,69.57,6.44,96.54-13.05,60.11,1.26,128.24,64.5,151.01,4.81-34.21,16.02-66.95,29.88-98.4-54.86-28.72-79.19-87.87-61.37-147.6,11.98-40.16,42.84-72.92,77.49-94.99-50.26-25.95-66.01-90.66-55.01-143.01-39.82,26.96-13.95-32.69-7.47-47.98,8.88-20.98,20.62-40.53,30.49-61.01-41.39-9.29-67.99-56.3-57.49-97,8.59-33.33,36.09-54.81,71.03-52.04,17.95,1.42,32.24,12.37,45.83,22.97,22.79-24.21,50.63-43.41,80.96-57.11,19.97-9.01,40.03-12.42,57.15-26.85,10.7-9.03,22.2-22.62,29.34-34.66,2.16-3.65,8.01-18.22,10.89-19.11,7.29-2.26,13.87,7.44,16.49,13.13,3.91,8.51,5.26,18.36,4.83,27.68,12.75-8.54,49.11-27.18,61.45-11.96,4.11,5.07,3.27,12.65,1.59,18.51-1.91,6.7-6.35,12.16-9.05,18.44,38.5,8.85,73.1,30.97,99.5,59.99,16.03-16.96,40.84-15.37,57.97-.95,31.5,26.49,25.78,84.92-8.53,106.56,8.27,32.15,20.94,61.28,41.49,87.48l32.39,4.61c4.75,1.39,25.65,5.05,20.7,13.33-2.61,4.37-22.82-.5-28.02-1.01-4.74-.47-10.72-.68-15.49-.51,7.43,12.32,12.18,25.84,16.5,39.5,6.83,3.34,30.91,9.33,33.98,16.02,1.53,3.33.09,7.15-3.87,6.97l-27.6-7.99c1.59,17.61,2.31,34.83-2.51,52-1.11,3.95-6.34,15.12-6.39,17.48-.09,4.19,6.17,12.69,3.89,18.52-5.09.9-7.44-3.57-10.98-6-15.04,29.27-41.89,50.16-69.58,66.96,4.18,19.27,30.19,18.81,45.58,15.55,12.61-2.67,28.95-11.85,36.53-22.47,8.19-11.47,10.12-41.65,9.45-55.53-.85-17.44-9.42-45.54,9.96-56.06,10.28-5.58,21.3-1.58,29.6,5.51,2.03,1.74,1.86,4.58,4.44,4.05,5.23-26.06,27.66-72.36,60.27-66.77,7.47,1.28,17.42,9.61,19.75,16.76,33.16-16.72,53.03,24.09,45.98,51.99,9.58-.52,15.16,7.82,17.31,16.2,9.47,37.03-25.25,98.83-52.83,122.77-5.53,4.8-18.15,11.75-21.9,16.1-3.42,3.97-10.38,21.68-14.55,28.45-20.65,33.5-52.32,61.65-88.34,77.66-19.51,8.67-42.17,15.85-63.67,14.83,5.88,25.27,12.65,50.34,15.19,76.3,70.86,44.63,65.84,148.72,8.81,202.68,40.39-2.01,90.73,17.57,89,65.01-.47-.05-.78.03-.98.51-.63,1.58-.5,4.11-1.02,5.49-6.22,10.28-17.06,13.24-28,16.5-50,14.89-129.12,9.64-180.03-1.97-17.63-4.02-48.99-10.48-47.98-33.53-29.81,9.02-61.96,9.01-92.99,7.01,1.3,4,3.59,7.46,5.01,11.48,4.29,12.11,4.53,23.11-2.01,34.51-1.56,1.67-5.05,4.41-7,6-13.78,7.2-30.16,10.32-45.63,11.87-14.19,1.42-31.12,1.7-45.37,1.13-7.14-.29-15.55-1.4-23-2-4.35-1.81-9.4-2.31-14-3-2.99-.45-5.02-.13-9-1-22.07-4.81-43.91-11.7-64-22-6.88-4.81-12.84-10.67-17-18ZM458.45,27.14c-20.45,23.65-27.15,42.17-58.64,56.86-34.92,16.28-61.2,25.46-91.37,51.63-2.27,1.97-17.55,16.01-17.84,17.22-.14.58,2.44,10.02,2.91,11.56.27.87,1.71.69,1.9,1.4.32,1.2-2.46,11.97-2.97,12.34-3.93,2.84-13.4-14.08-15.59-16.89-27.03-34.66-78.89-41.58-94.99,5.92-.58,1.72.56,3.23.31,3.79-.06.14-1.51.14-1.66.92-5.87,29.84,11.35,60.72,38.93,72.27.37.16.92,1.15,1.95,1.51,7.84,2.73,14.79,2.84,23.05,2.49,4.35.77,7.4-1.21,5.55,6.05-13.75,22.23-27.04,45.03-38.41,68.6-2.94,6.09-9.5,18.26-10.9,24.1-.26,1.07-.81,3.6.25,4.25,5.33-2.27,17.8-11.43,23.01-11.03,1.21.09,1.99.49,2.39,1.69,1.08,3.28-5.96,20.61-7.21,25.52-1.33,5.25-1.91,10.49-2.68,15.82-.53,3.69-1.75,7.75-1.99,11.51-2.3,36.11,7.14,75.3,36.5,98.47-3.26-7.29-6.73-14.23-9.01-21.98-2.26-7.66-4.86-19.16-5.5-27-.45-5.48.32-11.45,0-17,3.77-17,7.27-3.23,9.5,4.01,13.85,45.03,31.71,82.28,74.8,107.19,3.31,1.91,17.88,7.23,17.66,10.32-.04.58-2.14,1.8-2.92,2.04-6.53,2.04-27.51-6.5-34.4-9.7-3.81-1.77-17.46-10.37-19.34-10.68-4.92-.79-22.62,7.22-27.6,10.02-26.49,14.85-49.56,43.17-57.69,71.81-3.33,3.41-3.03,8.74-4,13-19.75,86.68,57.54,141.87,138.23,126.73,10.27-1.93,31.78-11.39,40.29-9.49.47.11.39,1.6,1.16,1.73,12.05,2,37.51,2.86,42.06-11.74,4.79-15.39-7.41-25.23-21.74-26.23-8.27-.58-18,2.13-25-3-.09-4.86,1.03-6.48,5.99-8.51,11.77-4.82,31.7-3.62,42.34,3.68,4.09,2.81,6.37,7.67,9.12,9.89,4.39,3.54,8.1-9.74,8.44-12.66,1.96-17.01-4.08-30.25-20.89-35.39-8.18-2.5-15.52-2.16-24-2-3.29-.9-14.61,1.77-11.53-4.98,3.31-7.26,15.69-8.6,22.53-9.02,3.07-.19,6.93-.2,10,0,.66.04,1.35-.07,2,0,.95.1,2.22-.2,3,0,1.53.39,9.09,4.45,10.92,5.58,3.01,1.87,5.31,4.29,8.07,6.42,1.6-16.76-6.36-29.23-21.64-35.85-34.44-14.93-57.41,16.21-87.36,22.86h-16c.05-.47-.02-.79-.51-.98-5.72-.68-11.93-3.21-16.81-6.19-3.09-1.89-17.66-12.26-11.74-16.38,5.04-3.5,21.95,6.74,28.06,7.56,4.59.61,12.48.13,17-1,14.39-3.6,31.1-17.97,46.46-23.04,31.17-10.27,62.18,1.36,76.54,31.04-.1.51-.06,1.43,0,2,.32,3.3,2.37,11.35,4,14,0,.33.02.67,0,1-3.22-.56-1.71,1.63-1.95,3.5-.62,4.85-3.04,13.2-3.04,17,0,8.46,3.92,16.13,2.72,26.72-1.07,9.43-5.72,16.1-10.72,23.78-.32.34-.67.66-1,1-1.48,1.51-5.74,4.28-6.49,6.01-1.27,2.92-.98,7.66-3.13,11.87-2.83,5.52-12.63,15.08-18.38,17.12-.52.18-1.48-.18-2,0-4.15,1.46-7.62,1.86-11.53,2.17-.64.05-.04,1.75-1.91,1.94-2.85.29-9.02-.85-12.56-1.11-5.11-.38-14.39-2.24-18.38-1.97-4.35.29-13.43,5.07-18.6,6.48-29.22,7.97-59.86,8.06-88.95-.49-2.48,5.59-4.64,11.38-7.06,16.98-13.25,30.6-22.54,63.43-24,97-.28,6.36-.25,13.64,0,20,1.12,28.58,9.04,59.33,24.36,84.14,2.29,3.71,14.98,18.8,15.38,20.61.86,3.84-.74,7.71-.83,11.76-.04,1.87,1.17,3.89,1.11,4.91-.04.61-1.88.44-2.05,1.25-.38,1.73.9,5.97.71,7.99-.16,1.66-1.54,2.66-1.63,3.88-.59,7.98.94,24.26,6.94,30,1.36,1.3,2.41,1.05,3.01,1.45,4.08,4.96,10.43,6.58,16,9,.28.12.72-.12,1,0,.8.34,1.73,1.14,4,2,.29.11.71-.11,1,0,1.07.39,1.95.65,3,1,24.51,8.28,51.23,13.99,77.51,14.99,3.04.12,15.7,1.26,15.35-2.31-.15-1.55-6.69-13.7-8.05-15.99-1.86-3.11-4.25-6.68-6.39-9.61-1.78-2.44-15.93-15.49-5.98-16,15.92-.82,34.58,29.42,35.66,43.82,3.62.39,29.68-1.61,29.97-3.52-2.28-9.61-6.51-18.69-12.24-26.71-3.64-5.09-18.95-17.57-4.29-16.73,15.63.9,28.91,26.46,31.47,40.06,15.9-3.63,6.11-25.09-1.03-33.47-13.38-15.7-39.35-24.92-59.54-23.64-.5.03.03-1.81-1.91-2.01-2.41-.25-3.95,1.09-4.52,1.12-6.3.3-11.6.28-18,1-4.22.48-21.92,4.85-23.91,1.91-4.07-6.01,18.9-15.36,22.89-16.44s8.23-.74,11.33-1.5c.79-.2.64-1.82,1.37-1.99,2.18-.5,5.25,1,7.78,1.06,5.75.12,11.6.04,17.33-.26,4.95-6.8,10.78-12.97,15.6-19.89,35.58-51.15,26.89-107.15,0-159.78-3.65-7.15-13.85-21.14-15.72-27.28-.69-2.26-.84-4.49-.67-6.83.69-.7,6.91,1.41,7.99,2,4.63,2.52,18.82,21.71,22.41,27.09,3.08,4.61,15.24,28.84,16.59,29.91,1.79,7.85,5.63,15.16,7.51,22.99,5.24,21.81,4.02,45.01.49,67.01-.44,2.77-.43,7.87-1,10-2.85,10.66-11.08,23.44-15,34l-18,25.98c16.54,7.59,34.34,11.29,52.51,13.01,62.76,5.95,124.47-12.37,171.02-54.96,3.93-3.59,9.14-8.34,11.47-13.03,66.61-66.58,54.03-174.98,29.26-257.76-15.07-50.39-36.37-99.67-59.06-147-.28-15.66,17.23-19.68,28.11-27.42,13.96-9.93,28.01-25.35,37.1-39.9,2.82-4.52,12.8-27,14-28,4.14-3.42,6.21,3.19,6.58,6.59.15,1.37-1.04,15.35,2.98,12.49.55-.39,6.15-10.14,6.9-11.62,1.85-3.66,3.27-8.25,4.93-12.08-6.57-9.3-16.81-16.99-26.68-22.93-12.11-7.28-26.27-13.92-39.13-19.37-.5-.21-1.83-2.63-4-3-4.67-1.41-8.01-5.74-10,1-1.4.63-5.01,7.53-7.65,9.85s-10.2,7.13-13.3,8.7c-6.2,3.12-12.78,3.27-18.04,7.46-.19.15-1.48-.36-1.84.13-3.7,17.21-9.37,34.06-17.16,49.87-12.74,25.89-31.2,47.03-62,50-6.69-1.79-13.36-.7-20.39-2.11-3.28-.66-8.41-2.59-11.61-3.89-25.88-10.44-47.53-34.43-62-58-9.41-20.03-20.42-39.85-24.01-62-1.09-1.06-16.42,6.8-18.99,8s-4.91,3.01-7,4c-14.95,7.08-30.15,13.46-44.31,22.19-5.42,3.34-30.76,23.65-34.09,22.76-3.98-2.46,4.09-10.87,6.37-13.48,19.43-22.25,52.79-40.62,78.03-55.47,3.45-2.03,8.37-3.95,11.99-6.01l-8.99-.99c-43.81-.6-86.34,8.98-128.55,19.05-8.85-3.74-5.71-7.06.89-10.21,27.06-12.94,103.89-27.77,133.67-26.83,1.94.06,6.39,1.89,9.46,2.03,8.55.41,26.24-5.29,28.38,7.72,1.4,8.49-18.77,4.74-12.26,13.17,2.04,2.64,10.6,10.72,13.43,13.08,22.02,18.4,56.38,20.05,80,4,5.55-2.93,5.86-3.53,10-8,6.69-7.22,10.62-13.47,10.01-24-14.35-1.16-27.42-8.41-40.01-15-2.16-1.59-6.17-4.5-8-6-3.85-4.44-7.98-8.71-12-13-.32-.34-.68-.66-1-1-4.2-7.56-9-18.13-8-27,.17-1.5,2.28-8.27,3-10,13.28-32.08,62.45-36.58,92-31,4.42.83,8.6,2.16,13,3,1.93.88,3.13,1.28,5,2,7.32,3.74,13.94,7.32,19.99,13l-6.17-9.32-3.82-10.68c-.02-.33.02-.67,0-1-.23-4.17-.51-11.04,0-15,.53-4.17,4.1-12.3,7.01-15.49,12.21-13.4,24.05,2.45,27.31,14.68,3.93,14.73,2.49,50.25-21.09,39.14-1.63-.77-.62-2.52-2.22-2.31,1.76,4.9,4.8,9.27,6.99,13.99,3.18,16.32-2.22,31.77-13,44-.32.34-.67.67-1,1-2.98,3-6.26,5.75-9,9-4.28,3.04-8.7,5.93-13,9l-17.87,8.58c-.3,1.19,2.59,8.69,3.39,10.41,10.14,21.78,43.57,30.82,63.48,17.02,5.55-2.46,7.47-4.06,12-8,2.15-1.87,4.6-3.38,6-6,.33-.34.67-.67,1-1s.67-.66,1-1c1.07-1.12,1.44-2.39,2-3,5.36-3.99,14.45,1.41,20,4,24.92,11.61,50.94,25.98,68.99,47,6.38-18.11,5.44-36.48,4.06-55.34-.25-1.13-13.73-3.46-16.04-3.66s-4.69.09-7,0c-.33-.01-.67,0-1,0-2.18-.99-6.65-1.84-9-2-.66-.04-1.34.03-2,0-4.6-.23-9.44.35-14,0-.3-.97-1.14-.93-2-1-.65-.05-1.34,0-2,0-6.98.03-14.2,1.69-21,2-7.68-2.86-19.97,1.2-26-5-.77-4.13-.13-5.91,3-9,4.12-1.75,8.46-.56,12.59-.96,1.31-.12,2.28-1.03,2.41-1.04,1.56-.12,3.42-.99,4-1,.83-.02,4.22,1.1,7,1,8.25-.3,14.74-.24,23,0,12.32.35,24.25,2.07,36.66,2.92,1.45.1,2.81.42,3.92-.88,1.32-1.81-5.64-15.4-7.05-18.07-1.17-2.23-7.94-14.44-9.2-14.86-21.34,1.33-40.45,6.9-60.33,13.89-6.27,2.2-12.45,4.24-18.55,6.94-3.98-.85-5.35-5.43-4.45-8.94,4.47-2.4,8.64-5.42,13-8,12.21-7.21,35.42-15.14,49.55-17.95,3.32-.66,7.82.34,11.45-1.06-16.4-20.72-25.17-45.75-32.71-70.78-19.05-63.28-28.74-108.1-89.6-145.4-25.44-15.59-44.16-19.38-71.94-27.06-8.09-2.24-1.19-5.42.78-7.68,8.14-9.35,17.41-19.38,19.47-32.06-4.58-1.43-7.04.06-11,.99-6.3,1.48-13.24,3.39-18,8-15.69,7.75-25.52,20.71-38.65,27.84-2.18,1.18-7.78,3.22-7.18-1.13.21-1.51,4.42-9.36,5.35-12.7,2.69-9.65,5.23-24.72,1.49-34.01l-1.49-7.01-2.51,7.01ZM694.45,169.14c-2.19-14.02-8.01-27.69-22.02-33.53-.9-.37-2,.41-2.77.21-.16-.04-.19-1.5-.88-1.66-6.14-1.38-15.17.58-19.87,4.93-6.26,5.78-1.89,4.27,0,7.09l10.56,19.96c6.62-7.87,24.99-14.58,25.99,1,.06.88.28,2.04-.21,2.77-1.4,2.09-17.66,9.84-17.87,10.86l11.58,32.35c11.8-8.93,17.77-27.09,16.54-41.56-.11-1.33-.99-2.12-1.04-2.42ZM914.45,420.14c.23-6.12-2.4-18.29-6.97-22.53-3.24-3.01-7.01-2.47-10.33-3.49-1.31-.4-.07-2.49-1.68-1.97.46,3.06-3.23,1.67-5.77,2.74-14.91,6.24-22.42,43.05-29.7,56.31-6.42,11.69-9.96.81-9.59-7.6.53-11.96,4.98-26.89,10.52-37.48,1.32-2.52,9.19-13.62,9.19-14.48,0-5.48-11.33-10.55-16.22-10.36-7.67.3-21.37,17.23-24.97,23.84-2.73,5.02-3.58,9.03-5.48,14.02-2.72,7.11-6.05,14.39-7,22-.98,2.59-3.09,5.24-2.95,8.41.05,1.07,4.38,14.54,4.88,15.16,1.02,1.28,16.75,5.89,20.76,8.24,10.57,6.18,31.26,30.21,30.39,42.7-.79,11.38-12.9-9.38-15.12-11.98-7.25-8.48-18.98-17.82-29.67-20.33-.78-.18-1.5-.3-2.29-.19-1.08,1.15,1.39,8.64.99,10.28-.17.7-1.44.6-1.89,1.51-1.88,3.74-1.63,8.15-8.1,3.2-1.7-3.9-2.9-7.88-4-12-5.46-20.41-7.33-41.02-29.24-49.07-.75-.27-1.19-3.91-4.48-.64-3.48,3.45-.97,7.38-1.3,10.1-.09.76-2,.22-2.09,2.07-.68,14.44,4.13,32.07,3.11,49.03-2.05,34.01-14.64,52.92-43.99,68.51-8.94,3.03-16.43,5.48-26,6-11.93.64-21.91-.59-33-5-5.86-5.67-14.8-10.05-17.01-19-2.08,1.2-12.19,5.34-11.88,7.34.13.81,6.54,12.11,7.61,14.45,11.11,24.24,21.25,49.14,31.05,73.95,4.97,12.59,9.2,28.47,14.72,40.28.69,1.48,1.48,3.28,3.2,3.8,2.85.86,16.05.46,19.79.18,43.7-3.28,88.65-33.88,114.51-67.99,4.65-6.13,18.01-24.45,19.61-31,.8-3.28-4.72-3.61-1.5-8.39,1.01-1.49,15.09-9.55,18.2-11.8,31.03-22.43,59.16-67.74,61.55-106.44.47-7.65,1.13-17.32-9.14-15.15-14.33,3.03-25.92,31.75-34.1,42.9-2.44,3.33-9.37,10.56-10.64,2.31s14.84-36.01,20.59-43.36c2.41-3.09,11.09-10.35,11.9-12.12.88-1.94.28-3.32.52-4.96.91-.73,1.34-1.78,1.57-2.89.41-1.94,1.36-7.42,1.43-9.11ZM544.45,498.13c7.56.47,19.51-.59,24.44-7.05,5.2-6.82,11.89-26.99,14.27-35.73,1.21-4.43,3.95-13.86,4.1-17.95.09-2.52-7.4-3.41-10.07-4.5-8.77-3.59-17.8-7.61-24.24-14.76l-8.49,79.99ZM539.45,423.15c-9.54,3.76-17.41,10.73-27.02,14.47-7.48,2.92-15.42,4.02-23.1,6.14-2.28,3.08,8.08,42.92,10.92,48.08,4.32,7.85,23.32,8.62,31.06,6.15l8.14-74.84ZM134.45,668.14c2.83-8.02,8.3-16,8.06-25.51-.43-17.36-18.31-17.44-31.35-13.27-46.49,14.85-91.88,91.3-89.72,138.78-1.5,1.57-.99,3.56-1.03,5.46-1.15,58.17,17.55,109.76,64.11,145.95,22.37,17.39,59.02,34.12,87.48,32.7.48-.02,3.31,1.71,8.43,1.89,11.53.39,21.67-1.72,33-2.01.82-2.35-1.7-4.68-2-5.99-2.04-8.98-4.01-19.88-5-29-.11-.98.09-2.02,0-3v-1c-.78-9.07-1.48-20.53-1.06-29.56.09-1.99.9-3.54,1.05-5.44-2.53,1.7-1.66-.43-2.77-.9-42.82-18.26-69.04-50.14-79.93-95.89-.81-3.41-3.01-25.24-4.29-25.21.2-5.64-.27-11.37,0-17,.87-18,4.96-35.65,9-53,3.5-5.07,3.95-12.18,6-18ZM683.45,957.14c-22.74,29.85-59.14,54.3-92.32,71.18-7.09,3.61-18.7,4.16-8.67,14.31,8.13,8.24,45.64,15.62,57.99,17.51,17.69,2.71,38.09,4.43,56,5,9.75.31,20.24.24,30,0,2.32-.06,11.81.18,12.89-1.1,2.96-3.52-6.69-20.31-9.48-23.82-3.03-3.81-15.31-12.7-15.94-14.11-2.92-6.43,3.33-6.44,7.93-5.87,19.77,2.47,33.52,25.11,33.61,43.89,2.17-.51,5.27-.48,7.24-1.07.86-.26.76-1.75,1.45-1.9,1.8-.4,11.64.01,12.38-2.65.86-3.1-2.2-12.98-3.86-16.08-2.72-5.07-14.2-15.77-15.03-19.05-1.35-5.37,3.86-5.64,7.88-4.8,9.56,2,19.87,13.97,23.13,22.87.87,2.39,2.64,13.68,4.31,13.67,1.91-2.42,4.98-3.19,6.5-5.98,2.68-4.95.72-9.3-1-14-6.79-18.53-33.94-31.45-53-32-9.25.27-18.89-1.42-28,1-13.83.85-22.57,7.91-37,8-3.17.02-5.94.1-9-1.01-.49-3.13,2.41-5.19,4.66-6.83,28.9-21.02,48.06-29.4,65.34-63.16,1.54-3.01,3.64-6.5,5-10,1.64-4.22,2.92-7.52,4-12,.08-.32-.08-.68,0-1,2.58-1.82,2.03-5.26,2-8,5.6-18.58,4.7-35.14-.71-53.79s-15.49-34.93-30.28-46.21c-.48,11.79.6,23.76.03,35.54-1.84,38.5-14.56,80.63-38.04,111.46Z"/>
              <path class="cls-2" d="M462.45,27.14c3.74,9.29,1.2,24.36-1.49,34.01-.93,3.34-5.14,11.19-5.35,12.7-.6,4.35,5,2.31,7.18,1.13,13.13-7.12,22.96-20.09,38.65-27.84,5.91-2.92,12.14-5.02,18-8,3.96-.93,6.42-2.42,11-.99-2.05,12.67-11.33,22.71-19.47,32.06-1.97,2.27-8.87,5.45-.78,7.68,27.78,7.68,46.5,11.47,71.94,27.06,60.86,37.31,70.55,82.12,89.6,145.4,7.53,25.03,16.31,50.06,32.71,70.78-3.63,1.4-8.12.4-11.45,1.06-14.13,2.81-37.34,10.74-49.55,17.95-.28-.37-.72-.64-1-1-7.72-9.97-19.24-19.42-31-24-.27-1.55-1.68-2.3-2-3-2.19-4.72-5.23-9.09-6.99-13.99,1.6-.21.59,1.54,2.22,2.31,23.58,11.12,25.02-24.4,21.09-39.14-3.26-12.23-15.1-28.08-27.31-14.68-2.91,3.19-6.47,11.32-7.01,15.49l-1.01-.52c.76,5.09-1.86,10.94,1.01,15.52.02.33-.02.67,0,1,.36,4.86,1.22,7.5,2.99,11.99-.5.51-7.66-3.73-9.21-4.32-1.33-.51-2.92-.34-3.78-.67-1.87-.72-3.07-1.12-5-2-.13-.06-.57-1.26-1.67-1.78-2.52-1.21-8.67-3.07-11.33-1.22-29.55-5.58-78.72-1.08-92,31-.5-1.58-3.78.42-4.67.83-17.69,8.12-26.5,16.55-39.34,30.66-1.18,1.29-2.01,2.48-3.99,2.51-29.8-11.71-71.2-12.83-103-12-1.04-1.66-3.8-1-5.49-1.02-12.27-.13-23.94.69-35.85,2.18l-7.66,1.84c-2.99.24-5.75-.22-7.35-.04-.58.07-.5,1.49-1.43,1.94-2.52,1.22-6,.05-5.24,5.53,1,7.27,20.38,2.71,25.54,2.57,3.5-.1,7,.05,10.49-.01,1.04,1.66,3.79,1,5.49,1.02,8.33.09,16.7.1,25.03,0,1.69-.02,4.45.64,5.49-1.02,6.3.15,7.54.61,12.5,1.76,3.36.78,9.81-1.41,14.08-.84,1.96.27,1.02,2.13,2.89,2.19,2.57.08,5.27-1.44,8.07-1.23,1.79.14,1.26,1.77,2.18,2.06,4.12,1.29,8.66-.29,12.64.14,9.36,1.01,21.39,4.43,30.64,6.91-.13.58.2,1.66,0,2-.9,1.53-5.54,5.57-7,7.5-1.92,2.53-3.49,7.95-7,8.5-29.78-.93-106.6,13.89-133.67,26.83-6.6,3.15-9.74,6.48-.89,10.21,42.21-10.07,84.74-19.65,128.55-19.05l-3,7c-25.24,14.85-58.6,33.22-78.03,55.47-2.28,2.61-10.35,11.02-6.37,13.48,3.33.88,28.67-19.43,34.09-22.76,14.16-8.73,29.36-15.11,44.31-22.19l3.95,24.55c3.7,9.22,6.97,19.09,15.05,25.45.06,1.09-.31,2.52,1,3,1.25,33.34,25.78,67.33,53,85-2.19.67-.24,1.1,1,2,.34,22.5-4.52,44.26-8.28,66.25-.3,1.77-1.61,3.2-1.72,3.75-14.35-29.68-45.37-41.31-76.54-31.04-15.37,5.06-32.07,19.44-46.46,23.04-1.03-2-3.5-.68-5-.51-3.99.43-8.55-.09-12,1.51-6.11-.82-23.02-11.06-28.06-7.56-5.92,4.12,8.64,14.49,11.74,16.38,4.88,2.99,11.09,5.51,16.81,6.19.49.19.56.51.51.98-.02.15-.89.52-1.01.98,6.02.17,11.21.31,17.01-.98,29.95-6.64,52.92-37.78,87.36-22.86,15.27,6.62,23.23,19.09,21.64,35.85-2.76-2.13-5.06-4.55-8.07-6.42-1.83-1.13-9.39-5.19-10.92-5.58-.57-1.29-2.8-1.7-3,0-.65-.07-1.34.04-2,0,.56-3.03-1.53-1.92-3.45-2-2.67-.11-5.37.08-8.04,0l1.5,2c-6.84.42-19.22,1.76-22.53,9.02-3.08,6.74,8.24,4.08,11.53,4.98l24,2c16.81,5.14,22.85,18.38,20.89,35.39-.34,2.92-4.05,16.2-8.44,12.66-2.76-2.22-5.03-7.08-9.12-9.89-10.64-7.29-30.57-8.49-42.34-3.68-4.96,2.03-6.08,3.65-5.99,8.51,0,.07-.79.29-.75.57.1.59,1.68,1.24,2.39,1.81.54.44.27,1.62.36,1.62h17.5c2.2,0,6.49,2.36,5.5-1,14.32,1,26.52,10.84,21.74,26.23s-30.01,13.74-42.06,11.74c-.78-.13-.69-1.63-1.16-1.73-8.5-1.9-30.01,7.57-40.29,9.49-80.69,15.14-157.98-40.05-138.23-126.73l4-13c8.13-28.63,31.21-56.96,57.69-71.81,4.98-2.79,22.68-10.81,27.6-10.02,1.89.3,15.53,8.91,19.34,10.68,6.89,3.19,27.87,11.74,34.4,9.7.78-.24,2.87-1.46,2.92-2.04.22-3.09-14.35-8.4-17.66-10.32-43.1-24.91-60.96-62.16-74.8-107.19-2.23-7.24-5.73-21-9.5-4.01-1.13,5.1-1.31,9.58-1,15-2.1-1.08-2.91-3.63-3.86-5.65-8.1-17.28-13.45-34.18-15.14-53.35.77-5.33,1.35-10.57,2.68-15.82,1.25-4.92,8.29-22.25,7.21-25.52-.4-1.2-1.18-1.6-2.39-1.69-5.21-.4-17.67,8.76-23.01,11.03-1.06-.65-.51-3.19-.25-4.25,1.4-5.84,7.96-18,10.9-24.1,11.36-23.56,24.66-46.37,38.41-68.6,1.85-7.26-1.2-5.28-5.55-6.05-4.67-.83-7.94-.57-12.37-1.13s-8.23-2.67-12.63-2.87c-27.59-11.55-44.8-42.43-38.93-72.27.15-.77,1.6-.78,1.66-.92.24-.55-.9-2.07-.31-3.79,16.1-47.5,67.96-40.58,94.99-5.92,2.19,2.81,11.67,19.73,15.59,16.89.52-.37,3.3-11.14,2.97-12.34-.19-.71-1.64-.53-1.9-1.4-.47-1.54-3.05-10.98-2.91-11.56.29-1.21,15.57-15.25,17.84-17.22,30.17-26.17,56.45-35.35,91.37-51.63,31.5-14.68,38.2-33.21,58.64-56.86.86-1,1.91-1.65,2.5-3.01.41.01,1.19,2.23,1.5,3.01ZM201.45,186.14c-1.25,8.77-1.62,11.11,1.82,19.68,8.52,21.22,39.16,36.57,49.18,8.32,10.02,4.51,11.91-7.93,10.76-15.26-3.55-22.54-32.28-47.79-53.67-30.15-6.29,5.19-7.03,9.98-8.09,17.41ZM589.45,186.14c.13.02,1.05,1.58,2.43,1.04l13.57-.04c9.64,2.24,11.88,8.23,17.97,14.53,3.08,3.18,8.12,9.54,12.08,4.03,3.67-5.1.1-5.72-.03-6.24-.35-1.34.16-3.1-.26-4.57-5.56-19.19-24.24-36.94-45-26.48-9.56,4.82-14.95,15.34-.77,17.73ZM370.45,207.14c1.41,2.8,5.46,5.46,8.72,4.26,3.2-1.18,12.84-14.7,17.95-18.09,3.09-2.06,8.49-4.04,12.13-4.87,5.78-1.32,12.91-.41,17.25-1.75,3.28-1.01,4.1-4.68,6.96-6.1.67-2.88-1.36-2.14-1.97-3.18-1.23-2.09-1.94-4.6-3.81-6.29-2.48-2.23-15.49-5.69-18.54-4.97-.72.17-.59,1.67-1.44,1.92-8.43,2.51-12.4,3.07-20.26,8.07-4.46,2.84-7.17,5.62-10,10-1.48,2.29-3.61,6.41-5,9-2.4,4.47-4.83,6.36-2,12ZM404.79,250.48c-8.28,9.35-8.75,27.18-5.84,38.65,3.15,12.39,14.73,31.04,29.44,21.46,15.84-10.3,13.53-49.52,1.09-62-6.77-6.79-18.63-4.96-24.7,1.89Z"/>
              <path class="cls-3" d="M657.45,411.14c2.17.37,3.5,2.79,4,3-1.53,12.6-4.39,27.78-8.72,39.78-1.69,4.68-4.65,8.28-6.28,12.22-2.07-.18-3.71-.22-5.56.93-3.22,2-9.85,18.62-11.44,23.07-7.18,13.14-14.87,24.86-25,36-.86-2.69-1.63,1.77-3,3-.33.33-.66.67-1,1-1.07.43-5.33,2.24-3,3-13.94,12.04-34.61,25.14-53,28-24.79,3.86-48.08,1.42-71-9-7.93-3.6-14.63-8.06-21-14,2.48-.92-.52-1.18-2-2-.33-.34-.67-.65-1-1-1.79-1.91-4.35-4.45-5.02-7l-.98,1c-4.42-4.9-7.46-8.56-11-14-9.55-14.7-15.7-29.04-20.73-45.82-.51-1.7.69-3.79-2.27-3.18-.12-.29.13-.74,0-1-1.28-2.66-3.15-2.33-5.04-.25-2.33,2.56-2.13,6.02-1.96,9.25-8.08-6.36-11.36-16.23-15.05-25.45l-3.95-24.55c2.09-.99,4.52-2.84,7-4,1.27,1.14,5.68-.9,6.99-1.51,2.46-1.15,8.78-5.9,10.93-4.41.85.59,4.57,16.96,5.6,19.9,4.67,13.19,12.15,28.08,19.48,40.02,14.47,23.57,36.12,47.56,62,58l6.04,3.46c10,3,15.7,3.53,25.96,2.54,30.8-2.97,49.26-24.11,62-50,2.72.19,2.47-1.61,3.3-3.2,7.36-14.06,10.88-31.68,15.7-46.8,5.26-4.19,11.84-4.33,18.04-7.46,3.1-1.56,10.77-6.48,13.3-8.7s6.25-9.21,7.65-9.85c.05-.02.57,1.07.82.86.69-.58.24-2.73,2.69-2.96,2.01-.19,3.02,1.6,4.31,1.93,1.37.35,2.07-.85,2.18-.83Z"/>
              <path class="cls-3" d="M471.45,311.14c-.72,1.73-2.83,8.5-3,10,.07,1.71-3.03,3.24-2.98,3.47.24,1.18,2.18,3.95,2.75,6.27.89,3.64-1.04,7.25,3.23,9.77l-1.99,1.49c3.28-.5,4.49,3.3,6.99,6.01.32.34.68.66,1,1,2.17,5.61,7.55,9.36,12,13,1.83,1.5,5.84,4.41,8,6,6.38,4.68,15.5,9.68,23.02,12.48,3.22,1.2,14.4,3.01,14.93,3.57.81.85-.56,8.39-1.03,10.17-.1.37-2.01,5.67-2.44,6.75-.58,1.48-3.84,3.96-4.47,6.03-4.14,4.47-4.45,5.07-10,8-19.08,10.07-44.49,12.95-64.78,4.28l-15.22-8.28c-2.82-2.36-11.39-10.44-13.43-13.08-6.5-8.42,13.66-4.68,12.26-13.17-2.14-13.01-19.83-7.31-28.38-7.72-3.07-.15-7.52-1.97-9.46-2.03,3.5-.55,5.08-5.98,7-8.5,1.46-1.93,6.1-5.96,7-7.5,7.37.51,18.09,9.2,24.65,2.65,3.48-3.48,3.39-6.93-.65-9.65-1.95-1.31-11.2-6.29-13-7,1.98-.03,2.81-1.22,3.99-2.51,12.84-14.1,21.65-22.53,39.34-30.66.89-.41,4.17-2.41,4.67-.83Z"/>
              <path class="cls-3" d="M642.45,339.14c-1.91,3.16-11.08,5.38-12,9s.48,8.09,4.45,8.94c6.09-2.7,12.27-4.74,18.55-6.94,0,6.05,5.04,10.22,6,16-.58.01-2.44.88-4,1-4.89-.1-11.44-1.51-15,2-3.13,3.09-3.77,4.87-3,9,.02.1-1.21.56.35,2,4.36,4.04,18.53,3.23,24.65,3v1c-2.89,1.71.99,8.68-.01,10-7.33-1.84-11.65-8.99-17.99-2-.56.61-.93,1.88-2,3l-.99-1v2c-.34.33-.68.66-1.01,1-1.7,1.73-4.6,4.38-7,5.02l1,.98c-4.53,3.94-6.45,5.54-12,8-18.2,8.07-39.58,6.95-54.91-6.59-5.93-5.23-9.32-12.9-10.17-20.78,6.91-2.09,10.5-4.65,16.08-8.63,4.3-3.07,8.72-5.96,13-9,3.24-2.3,8.08-5.02,9-9,.33-.33.68-.66,1-1,6.53-6.85,10.38-10.92,13.05-20.45,1.61-5.74,2.96-14.74,1.95-20.55,11.76,4.58,23.28,14.03,31,24Z"/>
              <path class="cls-6" d="M539.45,423.15l-8.14,74.84c-7.74,2.47-26.74,1.7-31.06-6.15-2.83-5.16-13.2-45-10.92-48.08,7.68-2.12,15.62-3.22,23.1-6.14,9.61-3.74,17.48-10.71,27.02-14.47Z"/>
              <path class="cls-2" d="M684.45,381.14l-3.99,1.99c7.08-.59,15.24,1.29,21.99-.99.66.03,1.34-.04,2,0l-1,1.99c3.32.07,6.68-.06,10,.01.33,0,.67-.01,1,0,1.26,1.65,5.74,1.65,7,0,2.32.2,15.79,2.53,16.04,3.66,1.39,18.86,2.32,37.23-4.06,55.34-18.05-21.02-44.07-35.38-68.99-47l-2-12v-1c.33-.01.67.02,1,0,6.8-.31,14.02-1.97,21-2Z"/>
              <path class="cls-6" d="M544.45,498.13l8.49-79.99c6.45,7.14,15.48,11.16,24.24,14.76,2.67,1.1,10.16,1.98,10.07,4.5-.15,4.09-2.89,13.52-4.1,17.95-2.38,8.74-9.07,28.91-14.27,35.73-4.93,6.46-16.88,7.52-24.44,7.05Z"/>
              <path class="cls-2" d="M689.45,367.14c.56-3.03-1.53-1.92-3.45-2-5.18-.2-10.9-.17-16.09,0-1.93.06-4.01-1.02-3.45,2-2.78.1-6.17-1.02-7-1-.96-5.78-6-9.95-6-16,19.88-6.98,38.99-12.56,60.33-13.89,1.26.42,8.03,12.62,9.2,14.86,1.4,2.68,8.37,16.27,7.05,18.07-1.11,1.3-2.47.98-3.92.88-12.41-.86-24.33-2.57-36.66-2.92Z"/>
              <path class="cls-2" d="M685.45,167.14c-.99-15.58-19.37-8.87-25.99-1l-10.56-19.96c-1.89-2.82-6.26-1.31,0-7.09,4.71-4.35,13.74-6.31,19.87-4.93.7.16.73,1.62.88,1.66.77.2,1.87-.59,2.77-.21,14,5.84,19.83,19.51,22.02,33.53-2.03,2.33-5.76-2.83-9-2Z"/>
              <path class="cls-5" d="M694.45,169.14c.05.3.93,1.09,1.04,2.42,1.23,14.47-4.74,32.62-16.54,41.56l-11.58-32.35c.22-1.02,16.47-8.77,17.87-10.86.49-.73.26-1.88.21-2.77,3.24-.83,6.97,4.33,9,2Z"/>
              <path class="cls-3" d="M437.45,411.14l15.22,8.28c20.29,8.67,45.7,5.78,64.78-4.28-23.62,16.05-57.98,14.4-80-4Z"/>
              <path class="cls-3" d="M497.45,368.14c12.59,6.59,25.65,13.84,40.01,15,.61,10.54-3.32,16.78-10.01,24,.63-2.07,3.89-4.55,4.47-6.03.43-1.08,2.34-6.38,2.44-6.75.47-1.79,1.84-9.32,1.03-10.17-.53-.56-11.7-2.37-14.93-3.57-7.52-2.8-16.64-7.81-23.02-12.48Z"/>
              <path class="cls-2" d="M666.45,367.14c-.56-3.02,1.53-1.94,3.45-2,5.19-.17,10.91-.2,16.09,0,1.93.08,4.01-1.03,3.45,2-8.26-.24-14.75-.3-23,0Z"/>
              <path class="cls-1" d="M392.45,393.14l8.99.99c-3.62,2.06-8.54,3.98-11.99,6.01l3-7Z"/>
              <path class="cls-3" d="M527.45,538.14c-10.26.99-15.97.46-25.96-2.54l-6.04-3.46c3.21,1.29,8.34,3.23,11.61,3.89,7.03,1.42,13.7.33,20.39,2.11Z"/>
              <path class="cls-3" d="M476.45,348.14c-2.51-2.71-3.71-6.51-6.99-6.01l1.99-1.49c-4.27-2.52-2.35-6.13-3.23-9.77-.56-2.31-2.5-5.08-2.75-6.27-.05-.22,3.05-1.76,2.98-3.47-1,8.87,3.8,19.44,8,27Z"/>
              <path class="cls-3" d="M611.45,315.14c1,5.81-.35,14.8-1.95,20.55-2.67,9.53-6.52,13.61-13.05,20.45,10.78-12.23,16.18-27.68,13-44,.32.7,1.73,1.45,2,3Z"/>
              <path class="cls-3" d="M573.45,375.14c-5.59,3.98-9.18,6.54-16.08,8.63.85,7.88,4.24,15.55,10.17,20.78,15.33,13.54,36.71,14.66,54.91,6.59-19.91,13.8-53.35,4.76-63.48-17.02-.8-1.71-3.69-9.22-3.39-10.41l17.87-8.58Z"/>
              <path class="cls-3" d="M663.45,383.14c-.33.02-.67-.01-1,0-6.11.24-20.29,1.04-24.65-3-1.56-1.45-.33-1.9-.35-2,6.03,6.2,18.32,2.14,26,5Z"/>
              <path class="cls-3" d="M608.45,438.14c-4.82,15.12-8.33,32.74-15.7,46.8-.84,1.6-.59,3.39-3.3,3.2,7.79-15.82,13.46-32.66,17.16-49.87.36-.49,1.65.02,1.84-.13Z"/>
              <path class="cls-2" d="M686.45,381.14c.27.97,1.15.94,2,1,4.56.35,9.4-.23,14,0-6.75,2.28-14.91.4-21.99.99l3.99-1.99c.66,0,1.35-.05,2,0Z"/>
              <path class="cls-1" d="M244.45,248.14c-8.25.35-15.21.24-23.05-2.49-1.03-.36-1.58-1.35-1.95-1.51,4.4.21,8.15,2.31,12.63,2.87s7.7.3,12.37,1.13Z"/>
              <path class="cls-1" d="M576.45,283.14c-4.4-.84-8.58-2.17-13-3,2.66-1.85,8.81,0,11.33,1.22,1.1.53,1.54,1.72,1.67,1.78Z"/>
              <path class="cls-3" d="M664.45,396.14c-5.55-2.59-14.64-7.99-20-4,6.34-6.99,10.66.16,17.99,2,1-1.32-2.88-8.29.01-10l2,12Z"/>
              <path class="cls-1" d="M591.45,262.14c-.51,3.96-.23,10.83,0,15-2.86-4.58-.25-10.43-1.01-15.52l1.01.52Z"/>
              <path class="cls-1" d="M236.45,444.14c-.96-.27-.95-1.15-1-2-.31-5.42-.13-9.9,1-15,.32,5.55-.45,11.52,0,17Z"/>
              <path class="cls-3" d="M655.45,367.14c-.13,0-1.11.92-2.41,1.04-4.13.39-8.47-.8-12.59.96,3.56-3.51,10.11-2.1,15-2Z"/>
              <path class="cls-1" d="M591.45,278.14l3.82,10.68,6.17,9.32c-6.05-5.68-12.67-9.26-19.99-13,.86.33,2.45.16,3.78.67,1.55.59,8.71,4.84,9.21,4.32-1.77-4.5-2.63-7.14-2.99-11.99Z"/>
              <path class="cls-3" d="M390.45,420.14c2.58-1.2,17.9-9.06,18.99-8,3.59,22.16,14.59,41.98,24.01,62-7.32-11.94-14.81-26.83-19.48-40.02-1.04-2.93-4.76-19.31-5.6-19.9-2.15-1.5-8.46,3.26-10.93,4.41-1.31.61-5.72,2.66-6.99,1.51Z"/>
              <path class="cls-2" d="M713.45,384.14c-3.32-.07-6.68.06-10-.01l1-1.99c2.35.16,6.82,1.01,9,2Z"/>
              <path class="cls-1" d="M458.45,27.14l2.51-7.01,1.49,7.01c-.31-.78-1.09-3-1.5-3.01-.59,1.36-1.64,2.01-2.5,3.01Z"/>
              <path class="cls-3" d="M657.45,411.14c-.12-.02-.81,1.18-2.18.83-1.29-.33-2.29-2.12-4.31-1.93-2.45.23-2,2.37-2.69,2.96-.25.21-.77-.88-.82-.86,1.99-6.74,5.33-2.41,10-1Z"/>
              <path class="cls-1" d="M519.45,39.14c-5.86,2.98-12.09,5.08-18,8,4.76-4.61,11.7-6.52,18-8Z"/>
              <path class="cls-2" d="M721.45,384.14c-1.26,1.65-5.74,1.65-7,0,2.31.09,4.71-.2,7,0Z"/>
              <path class="cls-3" d="M643.45,340.14c-4.36,2.58-8.53,5.6-13,8,.92-3.62,10.09-5.84,12-9,.28.36.72.63,1,1Z"/>
              <path class="cls-3" d="M586.45,366.14c2.74-3.25,6.02-6,9-9-.92,3.98-5.76,6.7-9,9Z"/>
              <path class="cls-3" d="M489.45,362.14c-4.45-3.64-9.83-7.39-12-13,4.02,4.29,8.15,8.56,12,13Z"/>
              <path class="cls-3" d="M634.45,403.14l-1-.98c2.4-.63,5.3-3.29,7-5.02-1.4,2.62-3.85,4.13-6,6Z"/>
              <path class="cls-2" d="M688.45,382.14c-.85-.06-1.73-.03-2-1,.86.07,1.7.03,2,1Z"/>
              <path class="cls-3" d="M642.45,395.14c-.33.34-.67.67-1,1v-2s1,1,1,1Z"/>
              <path class="cls-5" d="M235.45,442.14c.05.85.04,1.73,1,2,.64,7.84,3.25,19.33,5.5,27,2.28,7.75,5.75,14.69,9.01,21.98-29.36-23.17-38.8-62.36-36.5-98.47.24-3.75,1.46-7.82,1.99-11.51,1.7,19.18,7.05,36.07,15.14,53.35.94,2.01,1.75,4.56,3.86,5.65Z"/>
              <path class="cls-4" d="M409.45,465.14c.13.26-.12.71,0,1,3.29,7.9,4.77,16.41,8.14,24.36,3.59,8.46,9.06,17.51,14.86,24.64,3.54,5.44,6.58,9.1,11,14,1.89,2.09,3.35,4.64,6,6,.33.35.67.66,1,1,.69.69,1.26,1.31,2,2,6.37,5.94,13.07,10.4,21,14,20.39,12.32,48.18,15.32,71,9,18.39-2.86,39.06-15.96,53-28,1.11-.96,1.97-2.01,3-3,.34-.33.67-.67,1-1,1.06-1.06,1.9-1.79,3-3,10.13-11.14,17.82-22.86,25-36,2.34-4.28,8.98-19.62,10.95-21.55,1.81-1.77,2.97-1.86,5.05-.45-.38,2.18.36,4.96-.12,7.38-6.55,33.27-23.78,63.21-51.88,82.62-41.21,28.47-94.42,31.65-137,4-27.22-17.67-51.75-51.66-53-85-.14-3.76-.42-14.97,6-12Z"/>
              <path class="cls-4" d="M320.45,333.14c31.8-.83,73.2.29,103,12,1.8.71,11.05,5.69,13,7,3.93,3.08.44,10.49-3.55,11.02-4.61.61-15.42-4.67-20.45-6.02-9.26-2.49-21.28-5.9-30.64-6.91-3.98-.43-8.52,1.15-12.64-.14-.92-.29-.4-1.92-2.18-2.06-2.81-.22-5.5,1.31-8.07,1.23-1.87-.06-.93-1.92-2.89-2.19-4.27-.58-10.72,1.62-14.08.84-4.96-1.15-6.2-1.61-12.5-1.76-11.93-.29-24.07-.19-36,0-3.49.06-6.99-.09-10.49.01-5.15.14-24.53,4.7-25.54-2.57-.76-5.48,2.72-4.31,5.24-5.53.93-.45.86-1.88,1.43-1.94,1.6-.18,4.37.28,7.35.04,16.28-1.31,32.7-2.58,49-3Z"/>
              <path class="cls-4" d="M404.79,250.48c6.06-6.85,17.93-8.67,24.7-1.89,12.44,12.47,14.74,51.69-1.09,62-14.72,9.58-26.29-9.07-29.44-21.46-2.91-11.46-2.44-29.3,5.84-38.65Z"/>
              <path class="cls-5" d="M201.45,186.14c11.25-10.46,29.66-7.3,38.44,5.06,3.64,5.12,8.12,20.94,12.56,22.94-10.02,28.25-40.66,12.9-49.18-8.32-3.44-8.58-3.07-10.91-1.82-19.68Z"/>
              <path class="cls-4" d="M252.45,214.14c-4.44-2-8.93-17.82-12.56-22.94-8.78-12.36-27.19-15.52-38.44-5.06,1.06-7.43,1.8-12.23,8.09-17.41,21.39-17.64,50.11,7.61,53.67,30.15,1.16,7.34-.74,19.78-10.76,15.26Z"/>
              <path class="cls-4" d="M387.45,176.14c7.85-4.99,11.82-5.55,20.26-8.07.85-.25.72-1.75,1.44-1.92,3.04-.72,16.06,2.74,18.54,4.97,1.87,1.68,2.57,4.2,3.81,6.29.61,1.04,2.64.29,1.97,3.18-2.87,1.42-3.68,5.09-6.96,6.1-4.34,1.33-11.47.42-17.25,1.75-3.65.83-9.04,2.81-12.13,4.87-5.11,3.39-14.75,16.91-17.95,18.09-3.26,1.2-7.32-1.46-8.72-4.26l2-12c1.39-2.59,3.52-6.71,5-9l10-10Z"/>
              <path class="cls-4" d="M589.45,186.14c-14.19-2.39-8.79-12.91.77-17.73,20.75-10.46,39.44,7.29,45,26.48.42,1.47-.08,3.22.26,4.57.13.52,3.7,1.14.03,6.24-3.97,5.51-9-.84-12.08-4.03-6.1-6.3-8.33-12.29-17.97-14.53-5.37-1.25-10.54-1.09-16-1Z"/>
              <path class="cls-1" d="M320.45,333.14c-16.3.42-32.72,1.69-49,3l7.66-1.84c11.92-1.49,23.58-2.31,35.85-2.18,1.69.02,4.45-.64,5.49,1.02Z"/>
              <path class="cls-1" d="M329.45,346.14c-1.04,1.66-3.79,1-5.49,1.02-8.33.1-16.7.09-25.03,0-1.69-.02-4.45.64-5.49-1.02,11.93-.19,24.07-.29,36,0Z"/>
              <path class="cls-1" d="M605.45,187.14l-13.57.04c-1.38.54-2.3-1.02-2.43-1.04,5.46-.09,10.63-.25,16,1Z"/>
              <path class="cls-3" d="M409.45,465.14c-6.42-2.97-6.14,8.24-6,12-1.31-.48-.94-1.91-1-3-.17-3.23-.37-6.69,1.96-9.25,1.89-2.07,3.76-2.4,5.04.25Z"/>
              <path class="cls-1" d="M370.45,207.14c-2.83-5.64-.4-7.53,2-12l-2,12Z"/>
              <path class="cls-3" d="M436.45,352.14c4.04,2.72,4.12,6.17.65,9.65-6.55,6.55-17.28-2.13-24.65-2.65.2-.34-.13-1.42,0-2,5.03,1.35,15.83,6.63,20.45,6.02,3.99-.53,7.48-7.94,3.55-11.02Z"/>
              <path class="cls-1" d="M387.45,176.14l-10,10c2.83-4.38,5.54-7.16,10-10Z"/>
              <path class="cls-3" d="M646.45,466.14c-.26.62-.98,1.89-1,2-2.07-1.41-3.23-1.31-5.05.45-1.98,1.93-8.62,17.27-10.95,21.55,1.58-4.45,8.21-21.07,11.44-23.07,1.86-1.15,3.49-1.12,5.56-.93Z"/>
              <path class="cls-3" d="M544.45,561.14c-22.82,6.32-50.61,3.32-71-9,22.92,10.42,46.21,12.86,71,9Z"/>
              <path class="cls-3" d="M409.45,466.14c2.96-.61,1.76,1.48,2.27,3.18,5.03,16.77,11.18,31.11,20.73,45.82-5.8-7.13-11.27-16.18-14.86-24.64-3.37-7.95-4.85-16.46-8.14-24.36Z"/>
              <path class="cls-3" d="M604.45,526.14c-1.1,1.21-1.94,1.94-3,3,1.37-1.23,2.14-5.69,3-3Z"/>
              <path class="cls-3" d="M449.45,535.14c-2.65-1.36-4.11-3.91-6-6l.98-1c.67,2.55,3.23,5.09,5.02,7Z"/>
              <path class="cls-3" d="M597.45,533.14c-2.33-.76,1.93-2.57,3-3-1.03.99-1.89,2.04-3,3Z"/>
              <path class="cls-3" d="M450.45,536.14c1.48.82,4.48,1.08,2,2-.74-.69-1.31-1.31-2-2Z"/>
            </g>
          </g>
        </g>
      </g>
    </g>
  </g>
</svg>