<?xml version="1.0" encoding="UTF-8"?>
<svg id="Layer_2" data-name="Layer 2" xmlns="http://www.w3.org/2000/svg" viewBox="0 0 724.44 638.72">
  <defs>
    <style>
      .cls-1 {
        fill: #3e2d25;
      }

      .cls-2 {
        fill: #6cb6e2;
      }

      .cls-3 {
        fill: #f6f6f6;
      }

      .cls-4 {
        fill: #9ad2ed;
      }

      .cls-5 {
        fill: #b1744e;
      }

      .cls-6 {
        fill: #2970d7;
      }
    </style>
  </defs>
  <g id="Layer_1" data-name="Layer 1">
    <g>
      <path class="cls-2" d="M177.52,243.78c-.48-4.5-2.61-13.54-2.14-16.68.81-5.52,2.88-13.36,4.23-18.92l8.24-33.88,13.02-53.33c2.09-8.43,8.33-37.1,14.08-42.64,5.98-5.77,24.24-15.05,32.6-19.6l41.76-22.69c20.94-11.34,42.1-22.7,63.44-33.26,14.55-7.2,29.26,1.1,41.77,7.69l25.45,13.42,62.01,33.12c44.82,24.03,38.31,16.45,50.24,65.74l16.32,69.61,6.44,28.25c2.37,10.51,4.08,12.04,1.28,22.62,14.81,26.87,12.7,63.65-16.41,79.74,6.69,14.86,11.74,27.91,17.2,43.28,18.8-.57,38.02-.13,56.43,4.05,4.09,1.26,11.69.9,11.52,6.92-.11,4.02-3.01,5.52-6.57,4.85-19.57-3.66-37.15-5.21-57.12-4.66,3.68,11.7,6.77,22.94,9.76,34.85,7.67,3.07,38,11.96,40.77,19.03.52,1.34.53,2.37,0,3.7-.58,1.43-2.35,2.98-3.86,3.29-.94.19-1.9-.03-2.79-.31-4.54-1.43-8.95-3.73-13.33-5.62-5.76-2.48-11.68-4.63-17.63-6.61,2.19,8.64,13.82,58.32,10.89,63.79-.85,1.59-2.97,2.04-4.58,2.5,6.26,17.07,15.65,44.06,20.48,61.96,7.2,24.77,14.6,49.54,19.92,74.82.64,3.05,1.38,6.41,1.84,9.49l-13.06-.04c-24.56-.13-50.33-.63-74.79-.21-4.75.29-10.93.46-15.63-.08-13.57-.83-34.64-.22-48.63-.23l-92.8-.03-104.13.02c-18.64.02-41.79-.49-60.1.55-4.13.09-8.53,0-12.69,0l-76.67.11-12.79-.03c6.99-35.24,15.74-66.52,26.6-100.81,1.7-6.63,14.96-42.09,14.96-45.4-1.76-.84-3-1.18-4.09-2.77-1.44-4.37,9.08-55.81,10.95-63.54-5.25,1.51-33.14,13.25-34.47,12.48-17.57-10.15,30.78-23.26,37.58-25.54,3.84-10.2,6.56-24.08,10.56-35.4-12.91-.15-25.33.14-38.15,1.72-6.55.8-13.11,2.66-19.67,3.08-1.84.12-3.93.25-5.54-.85-.87-.59-1.39-1.53-1.41-2.58-.03-1.89.89-3.53,2.24-4.79,8.15-7.63,54.57-8.08,66.21-7.78,1.16-2.61,2.24-5.52,3.21-8.22,4.3-11.99,9.02-23.47,14.27-35.08-16.36-9.42-23.35-21.36-25.15-40.32-1.43-15.01,1.27-25.45,7.95-38.76Z"/>
      <path class="cls-1" d="M177.52,243.78c-.48-4.5-2.61-13.54-2.14-16.68.81-5.52,2.88-13.36,4.23-18.92l8.24-33.88,13.02-53.33c2.09-8.43,8.33-37.1,14.08-42.64,5.98-5.77,24.24-15.05,32.6-19.6l41.76-22.69c20.94-11.34,42.1-22.7,63.44-33.26,14.55-7.2,29.26,1.1,41.77,7.69l25.45,13.42,62.01,33.12c44.82,24.03,38.31,16.45,50.24,65.74l16.32,69.61,6.44,28.25c2.37,10.51,4.08,12.04,1.28,22.62,14.81,26.87,12.7,63.65-16.41,79.74,6.69,14.86,11.74,27.91,17.2,43.28,18.8-.57,38.02-.13,56.43,4.05,4.09,1.26,11.69.9,11.52,6.92-.11,4.02-3.01,5.52-6.57,4.85-19.57-3.66-37.15-5.21-57.12-4.66,3.68,11.7,6.77,22.94,9.76,34.85,7.67,3.07,38,11.96,40.77,19.03.52,1.34.53,2.37,0,3.7-.58,1.43-2.35,2.98-3.86,3.29-.94.19-1.9-.03-2.79-.31-4.54-1.43-8.95-3.73-13.33-5.62-5.76-2.48-11.68-4.63-17.63-6.61,2.19,8.64,13.82,58.32,10.89,63.79-.85,1.59-2.97,2.04-4.58,2.5,6.26,17.07,15.65,44.06,20.48,61.96,7.2,24.77,14.6,49.54,19.92,74.82.64,3.05,1.38,6.41,1.84,9.49l-13.06-.04c-2.22-13.73-6.71-29.48-10.38-43.04-11.09-41.02-23.78-81.91-39.48-121.41-1.79-4.51-4.4-9.23-5.68-13.85,3.13-9.27,10.93,0,14.33,3.79-2.55-14.67-5.14-27.63-8.41-42.1-12.5-5.23-34.18-7.67-47.81-7.9-6.54.36-12.06.39-18.69.83-6.11,2.04-10.88-7.64-5.16-9.43,16.05-5.02,55.08.39,69.02,4.17-3.23-10.54-6.4-20.71-9.93-31.16-18.33.81-36.81,4.66-54.37,9.83-3.18.94-9.85,4.35-12.95,2.86-1.47-.71-2.81-2.88-3.08-4.45-.19-1.13.1-2.04.78-2.95,6.03-8.13,54.55-14.76,65.65-16.24-20.47-53.3-46.08-109.83-103.33-131.58-30.23-11.49-54.24-12.02-86.1-11.35-43.52.91-85.96,15.22-114.11,50.19-22.2,27.5-36.43,59.89-49.18,92.69,20.63,2.4,44.38,6.06,63.68,14.17,5.47,2.99,1.79,11.57-3.86,9.51-21.47-7.84-40.95-10.55-63.61-13.06-3.71,10.34-7.28,20.73-10.33,31.3,18.91-4.98,39.78-6.13,59.27-5.51,3.1.1,10.76.4,11.69,4.25.9,3.74-1.35,6.5-5.29,6.68-7.42.34-14.95-.4-22.4-.46-14.8.07-31.12,1.98-45.23,6.67-3.49,11.04-6.48,28.85-8.44,40.36,2.39-2.3,5.92-5.88,9.39-6.1,2.47-.35,4.89,3.26,4.02,5.38-23.77,58.03-41.83,116.62-55.47,178.04l-12.79-.03c6.99-35.24,15.74-66.52,26.6-100.81,1.7-6.63,14.96-42.09,14.96-45.4-1.76-.84-3-1.18-4.09-2.77-1.44-4.37,9.08-55.81,10.95-63.54-5.25,1.51-33.14,13.25-34.47,12.48-17.57-10.15,30.78-23.26,37.58-25.54,3.84-10.2,6.56-24.08,10.56-35.4-12.91-.15-25.33.14-38.15,1.72-6.55.8-13.11,2.66-19.67,3.08-1.84.12-3.93.25-5.54-.85-.87-.59-1.39-1.53-1.41-2.58-.03-1.89.89-3.53,2.24-4.79,8.15-7.63,54.57-8.08,66.21-7.78,1.16-2.61,2.24-5.52,3.21-8.22,4.3-11.99,9.02-23.47,14.27-35.08-16.36-9.42-23.35-21.36-25.15-40.32-1.43-15.01,1.27-25.45,7.95-38.76Z"/>
      <path class="cls-6" d="M177.52,243.78c-.48-4.5-2.61-13.54-2.14-16.68.81-5.52,2.88-13.36,4.23-18.92l8.24-33.88,13.02-53.33c2.09-8.43,8.33-37.1,14.08-42.64,5.98-5.77,24.24-15.05,32.6-19.6l41.76-22.69c20.94-11.34,42.1-22.7,63.44-33.26,14.55-7.2,29.26,1.1,41.77,7.69l25.45,13.42,62.01,33.12c44.82,24.03,38.31,16.45,50.24,65.74l16.32,69.61,6.44,28.25c2.37,10.51,4.08,12.04,1.28,22.62-7.72-9.69-17.03-17.63-29.92-18.83-12.49-1.17-19.91,5.13-28.8,12.63.11-11.83,1.16-23.89,1.61-35.72.26-6.64,2.33-11.64,7.04-16.34,11.16-11.11,13.7-27.19,7.96-41.65-3.25-8.18-8.02-11.2-16.61-11.02-1.23-5.96-3.74-17.68-8.54-21.87-7.78-6.79-15.5,4.27-19.91,9.8-2.34-2.7-7.86-9.65-10.75-10.64-12.31-4.21-19.26,18.88-21.95,25.67-4.73.22-9.93,1.1-13.78,4.1-9.35,7.29-7.75,25.39-2.86,34.86,1.74,3.37,7.26,8.69,8.04,12.64,1.87,9.4-.33,22.04-1.51,31.52-6.29-2.86-11.8-4.6-18.67-5.33-1.3-12.69-8.37-72.81-.14-81.79,14.18-15.47,27.25-34.03,15.38-56.19-5.66-10.57-19.77,1.63-22.3,1.21-1.6-2-2.3-11.06-3.08-14.23-1.3-5.54-3.69-12.96-8.93-15.95-10.85-6.2-16.81,5.82-20.9,13.29-3.97-7.76-11.59-21.26-22.66-12.14-7.7,6.35-8.5,20.18-10.5,29.6-6.46-5.16-9-6.45-17.22-6.01-15.62,9.77-7.86,38.46,1.48,50.43,4.74,6.08,11.84,11.27,12.49,19.73,1.8,23.46-1.67,47.55-2.77,71.12-8.28,1.83-11.75,1.9-20.26,5.06-.75-6.37-3.49-24.97-1.41-30.15,3.23-8.04,10.54-12.08,12.15-23.84.97-7.12,1.07-14.82-3.3-21.38-3.47-5.22-10.4-5.69-16.27-6.72-3.09-8.68-5.77-17.43-13.04-23.68-7.82-6.72-14.12,3.6-18.57,9.06-19.54-24.59-23.14-9.41-29.2,12.1-5.02-.94-9.69.15-13.09,4.32-8.68,10.63-8.38,28.51-2.13,40.25,2.36,5.04,11.81,11.51,12.38,16.95,1.44,13.54.96,29.43,1.65,43.01-9.72-6.27-14.15-14.24-29.31-12.75-13.24,1.3-22.48,9.69-30.55,19.45Z"/>
      <path class="cls-2" d="M201.22,309.83c-12.8-7.5-17.24-18.87-18.16-33.3-.95-14.84,8.04-36.11,25.37-36,12.31.08,19.98,9.29,27.88,17.37-7.01,7.57-10.96,13.33-16.6,21.78-6.04,8.59-9.88,14.75-15.15,23.79-1.13,2.1-2.23,4.24-3.33,6.36Z"/>
      <path class="cls-6" d="M198.38,261.11c13.5,6.55,12.29,8.7,21.02,18.24l.3.33c-6.04,8.59-9.88,14.75-15.15,23.79-8.11-13.12-8.51-27.48-6.17-42.36Z"/>
      <path class="cls-2" d="M498.45,258.16c7.91-8.51,14.38-16.93,27.06-17.51,5.53-.25,10.69,1.82,14.72,5.62,16.81,15.86,14.61,52.46-6.69,63.67-1.23-2.25-2.54-4.57-3.68-6.85-4.65-8.21-9.68-15.91-14.94-23.73-4.72-6.58-10.9-15.78-16.47-21.2Z"/>
      <path class="cls-6" d="M514.92,279.36c4.88-3.81,13.78-18.67,19.82-18.33,6.71,4.66,2.15,34.98-3.82,40.71-.29.28-.77,1.01-1.06,1.35-4.65-8.21-9.68-15.91-14.94-23.73Z"/>
      <path class="cls-5" d="M364.51,101.99c27.66-3.33,45.25,37.38,6.13,42.12-7.87.74-15.13-1.08-21.66-5.89-13.56-9.98-6.68-28.21,6.72-34.35,3.17-1.46,5.34-1.57,8.81-1.88Z"/>
      <path class="cls-5" d="M463.62,163.44c6.62-.29,12.24,1.13,17.61,5.46,6.22,5.02,11.42,15.8,5.2,22.82-4.31,4.87-11.03,5.48-17.18,5.91-7.07.02-13.92-.99-19.73-4.9-10.97-7.36-4.88-21.45,4.93-26.44,3.73-1.9,5.17-2.29,9.17-2.86Z"/>
      <path class="cls-5" d="M267.43,163.46c23.69-1.33,38.65,31.52,2.71,34.07-31.87,3.7-29.34-30.66-2.71-34.07Z"/>
      <path class="cls-5" d="M478.89,124.24c1.22-.11,1.09-.05,2.33.11,5.17,3.81,4.62,16.83,2.74,22.39-1.2,3.54-2.84,5.14-6.14,6.71-9.37-1.19-6.97-14.69-4.8-20.94,1.31-3.78,2.88-5.7,5.88-8.27Z"/>
      <path class="cls-5" d="M255.19,124.04c9.26,2.06,13,22.77,5.05,28.93-12.34,1.14-11.38-22.01-5.05-28.93Z"/>
      <path class="cls-5" d="M352.74,59.07c6.59,2.95,8.86,19.48,7.09,25.72-.79,2.79-1.97,3.78-4.34,5.21-12.6-2.1-9.1-24.57-2.75-30.93Z"/>
      <path class="cls-5" d="M381.37,59.46c6.6,1.95,6.92,16.05,5.6,21.57-1.12,4.69-2.69,6.51-6.63,8.89-12.53-.05-3.9-24.7,1.04-30.46Z"/>
      <path class="cls-5" d="M323.97,83.55c8.62,1.34,16.81,19.67,8.71,26.93-12.46-1.11-16.12-19.45-8.71-26.93Z"/>
      <path class="cls-5" d="M409.27,84.23l2.2.21c5.31,3.46,3.63,11.11,2.11,16.38-1.33,4.6-3.86,7.51-8.15,9.62-6.18.39-6.88-4.17-6.01-9.21,1.18-6.83,4.13-12.82,9.84-17Z"/>
      <path class="cls-5" d="M452.78,123.02c7.39,2.32,8.04,16.3,7,22.78-.51,3.14-1.67,4.46-4.25,6.13-11.52-2.65-7.84-21.95-2.75-28.92Z"/>
      <path class="cls-5" d="M281.66,123.1c6.02,3.64,7.14,15.83,5.64,22.19-.84,3.55-1.95,4.66-4.94,6.54-11.08-.18-6.75-23.25-.7-28.73Z"/>
      <path class="cls-5" d="M234.57,145.51c5.91.76,8.73,11.52,8.69,16.69-.03,3.99-.54,5.4-3.28,8.14-11.2-.08-11.17-18.39-5.41-24.83Z"/>
      <path class="cls-5" d="M500.1,145.58c7.72,3.48,6.33,20.57-2.34,25.27-10.97-2.51-3.5-20.17,2.34-25.27Z"/>
      <path class="cls-5" d="M431.83,147.57c8.12,2.1,12.27,15.83,6.36,21.87-10.72-.28-11.98-16.97-6.36-21.87Z"/>
      <path class="cls-5" d="M301.52,148.21c6.55.05,5.89,7.65,4.88,12.36-.96,4.47-2.6,6.58-6.5,8.87-10.15-1.04-3.42-16.79,1.62-21.23Z"/>
      <path class="cls-1" d="M519.27,637.95c-4.63-21.09-10.66-39.08-18.94-58.91-.77-1.84-1.01-2.19-.08-3.78,10.43-3.58,24.69,29.43,26.66,36.71,2.28,8.4,6.05,17.7,7.99,26.06-4.75.29-10.93.46-15.63-.08Z"/>
      <path class="cls-1" d="M200.92,638.27c.61-12.19,17.94-65.01,32.05-64.45,4.43,2.33,1.7,6.11.15,9.48-1.42,3.1-3.5,6.34-4.81,9.47-3.3,7.89-7.16,15.73-9.51,23.96-1.99,7.32-2.99,14.32-5.19,21.54-4.13.09-8.53,0-12.69,0Z"/>
      <path class="cls-1" d="M316.33,375.72c5.85-48.03,98.84-43.41,101.41.01,4.77.3,14.89,4.37,19.18,6.83,16.7,9.61,31.93,24.45,37.54,43.25,5.79,19.37,1.27,42.25-8.23,59.56-15.1,26.64-40.64,45.24-69.73,53.74-56.13,16.41-120.82-16.25-137.62-72.89-4.63-15.61-3.96-35.88,4.77-50.22,11.93-19.61,30.4-34.15,52.68-40.28Z"/>
      <path class="cls-4" d="M417.74,375.73c4.77.3,14.89,4.37,19.18,6.83,16.7,9.61,31.93,24.45,37.54,43.25,5.79,19.37,1.27,42.25-8.23,59.56-15.1,26.64-40.64,45.24-69.73,53.74-56.13,16.41-120.82-16.25-137.62-72.89-4.63-15.61-3.96-35.88,4.77-50.22,11.93-19.61,30.4-34.15,52.68-40.28,1.56,11.35,6.79,17.7,16.19,23.97,8.81,5.87,16,6.49,26.01,8.22-1.18,31.88-53.23,40.33-71.32,18.21-3.31-4.05-8.47-13.15-14.31-9.94-6.38,7.97,7.42,21.13,13.48,25.54l3.18,2.27c1.46,5.16,3.54,12.75,5.46,17.57,5.85,14.67,19.33,37.45,33.75,45.1,18.9,10.02,38.57,13.36,59.35,7.21,23.28-6.89,32.64-19.51,44.24-40.21,5.62-10.04,8.44-19.07,11.67-29.96,6.53-5.3,16.62-13.37,18.08-22.17.93-5.65-6.75-8.46-10.95-2.26-13.2,19.45-41.18,24.73-60.91,12.44-8.98-5.6-14.37-12.92-16.1-23.17,9.83-1.52,19.1-2.93,27.7-8.42,8.55-5.45,15.03-14.03,15.9-24.38Z"/>
      <path class="cls-3" d="M371.6,434.46c1.48.81,6.64,4.95,8.78,6.37,5.98,3.99,10.73,6.04,17.2,8.94-1.94,12.14-3.27,19.86-7.53,31.6-3.24,7.71-13.69,5.8-20.22,4.58-.25-2.76-.25-5.51-.16-8.28.46-14.41,1-28.83,1.93-43.22Z"/>
      <path class="cls-3" d="M361.82,434.71s.06.05.09.08c.9,1.14,2.28,44.47,1.9,48.29-.1.97-.09,2.19-.96,2.76-2.87,1.89-9.48,1.33-12.8.55-2.47-.58-4.16-1.34-5.51-3.52-4.95-10.42-6.82-22.17-8.1-33.52,10.4-4.53,16.85-7.12,25.38-14.64Z"/>
      <path class="cls-1" d="M288.62,323.33c16.48-.86,19.06,20.65,14.25,32.33-2.23,5.4-4.74,7.79-9.95,10.06-21.21,1-21.74-35.76-4.29-42.39Z"/>
      <path class="cls-1" d="M441.26,323.32c20.08-.5,22.67,36.81,3.97,42.43-19.36.29-22.42-36.51-3.97-42.43Z"/>
      <path class="cls-1" d="M438.35,284.92c11.11-1.03,20.24,3.28,27.25,11.79,3.58,4.34,9.31,14.92,3.43,19.22-2.03.02-1.03.22-3-1.05-10.03-13.34-17.34-16.31-32.58-18.01-1.93-.21-5.04-4.38-3.33-6.89,2.32-3.38,4.24-4.08,8.22-5.07Z"/>
      <path class="cls-1" d="M289.08,284.88c16.46-1.02,23.99,11.56,5.02,13.01-10.27.78-13.58,3.63-20.26,10.87-1.89,2.79-4.1,7.2-8.02,6.48-3.99-3.68-.33-12.2,2.05-15.99,4.98-7.91,12.2-12.29,21.21-14.36Z"/>
      <path class="cls-4" d="M85.92,504.4c-17.97,9.34-25.19,24.71-36.54,40.33-18.42,25.37-38.46,50.03-47.64,80.54-1.14,3.78-2.77,7.64-.87,11.39,2.04,1.99,14.7,1.67,17.9,1.64,30.46-.24,61.24.65,91.67.07l1.02-.03c6.99-35.24,15.74-66.52,26.6-100.81-13.64-10.78-34.87-30.57-52.14-33.14ZM103.08,554.92c-2.96,3.1-8.31,6.73-11.74,9.73-2.33,2.03-4.66,4.4-7.08,6.3-.58-7.97-.47-10.71-3.34-18.12-2.97,1.28-3.92,1.79-6.66,3.52-6.42,3.34-11.94,7.18-17.83,11.3-1.34.94-2.67,2.02-4.03,1.75-2.17-5.62,26.82-41.37,33.36-45.76,2.18,1.25,5.78,5.28,7.51,7.44,3.81,4.76,15.86,17.48,9.8,23.84Z"/>
      <path class="cls-4" d="M711.37,606.62c-5.94-10.12-12.78-20.12-19.43-29.82-7.32-10.68-25.22-42.84-38.55-45.05-13.35-2.21-40.71,14.73-52.39,22.23,7.2,24.77,14.6,49.54,19.92,74.82.64,3.05,1.38,6.41,1.84,9.49,10.38.34,95.48.94,99.93-.41,1.26-.38,1.26-.93,1.75-2.06-.14-4.7-10.21-24.2-13.07-29.21ZM671.47,578.49c-3.42-.09-10.48-4.58-13.78-6.45-3.45-1.9-9.65,0-14.81.34-5.11-4.64-8.78-7.83-14.42-11.81,6.11-6.27,12.49-12.05,20.11-16.45l.94.2c2.22,1.64,22.96,32.11,21.97,34.17Z"/>
      <path class="cls-4" d="M150.25,236.02c-5.15-4.79-13.56-8.12-19.88-11.21,3.52-1.08,24.01-5.97,20.65-12.23-3.04-5.67-15.9-9.04-21.99-12.08,5.65-2.8,36.39-14.25,17-20.33-7.45,2.22-13.81,7.38-20.3,10.15.85-5.94,3.28-17.68-.36-22.59-5.53-3.61-14.62,6.52-18.86,9.61-.13-4.31-.05-8.39-.05-12.68,0-5.36,1.28-13.38-5.86-13.97-2.34,1.6-3.59,2.68-3.91,5.68-.81,7.67-.22,15.59-.58,23.41-3.11-2.68-17.94-18.14-21.06-10.51-2.01,4.9-.72,16.52.3,21.89-2.26-1.47-28.02-20.61-24.42-3.85.47,2.19,15.59,10.11,19.53,12.69-6.38,1.5-21.31,3.05-19.8,12.28,1,6.07,14.16,8.45,19.25,10.88-2.06,1.13-30.1,11.84-15.43,18.97,2.11,1.02,16.9-7.97,21.6-10.06-3.79,25.15-4.68,34.77,19.93,13.97,0,3.42-.22,7.43.03,10.78.44,6.06-2.01,16.72,7.23,15.23,4.03-4.31,2.7-18.76,2.65-25.33,3.92,3,12.85,12.51,17.37,11.73,7.58-1.32,4.11-20.01,2.76-25,6.18,3.19,12.51,7.58,18.8,10.43,3.64,1.65,9.52-4.15,5.4-7.86ZM75.3,215.59c-3.51-1.11-10.16-3.84-13.39-5.49,6.12-1.25,12.59-2.15,18.79-3.1,1.6.31,8.06,4.16,9.91,5.2-3.46,1.88-6.79,3.6-10.31,5.37l-4.99-1.97ZM95.52,233.46l-11.14,10.52c-.76-1.93,1.04-13.83,1.21-17.31l9.78-5.44c.39,3.33.18,8.73.15,12.23ZM95.95,203.42c-3.06-1.67-7.91-4.95-11.02-6.9-.93-4.81-1.58-11.45-2.02-16.29,2.98,1.68,10.34,9.19,13.12,11.92l-.08,11.27ZM105.91,190.57c3.06-2.98,8.05-6.7,11.54-9.84.98,1.58-1.18,13.43-1.56,16.13-2.28,1.93-6.64,4.7-9.26,6.47-1.12-1.32-.72-10.39-.72-12.75ZM105.79,234.44l-.03-12.46c2.65,1.32,7.59,4.57,10.29,6.23l2.99,16.8c-4.3-2.13-9.64-7.22-13.25-10.57ZM125.27,216.6l-5.95,1.58c-3.12-1.59-6.19-3.45-9.21-5.23l9.61-5.1c3.95.59,12.6,3.99,17.02,5.43-3.89,1.05-7.61,2.16-11.47,3.33Z"/>
      <path class="cls-4" d="M626.38,178.28c7.87-.53,8.44,5.54,8.3,11.94-.2,8.92-.62,17.71-.46,26.66,4.27-6.58,10.95-16,17.98-20,2.89-1.85,7.18.6,7.29,3.77.14,4.05-5.67,9.18-8.17,12.13-3.48,4.1-6.33,7.71-9.42,11.93,11.24-2.55,28.19-9.16,39.84-9.86,4.04-.25,4.83,8.04-.28,9.51-11.75,3.4-23.3,6.36-34.93,10.46,5,1.81,22.85,6.36,23.9,10.65,3.49,14.35-25.47,1-28.42-.11,4.46,6.24,21.24,28.69,20.75,32.14-2.67,18.98-26.76-21.23-28.63-23.87.6,5.91,1.11,23.35-.88,28.54-14.05,9.19-11.19-24.53-10.81-31.46-5.03,8.37-10.74,16.41-16.1,24.63-1.82,2.8-6.75,8.93-10.76,5.9-5.15-3.88,2.92-14.23,5.45-18.13,3.96-6.1,8.26-12.69,13.04-18.32-4.73,1.87-19.06,8.67-22.44,7.15-14.96-6.73,14.91-16.47,17.46-17.5-5.8-2.18-42.18-9.67-31.3-19.64,2.57-2.36,12.84,1.7,16.5,2.84l20.67,6.33c-3.61-5.92-7.29-11.11-11.89-16.31-2.73-3.09-5.28-5.44-5.04-9.75,5.25-10.5,22.2,12.9,25.47,17.32.06-10.04-.3-20.29-.03-30.32.09-3.38.5-4.51,2.91-6.62Z"/>
      <path class="cls-4" d="M60.89,382.22c1.89-.07,3.9-.27,5.36,1.18,3.72,3.7,1.53,20.54,1.19,26.24,3.14-4.6,13.26-21.99,18.53-11.56.42,4.59-8.08,15.69-10.97,20.07,3.7-1.95,21.94-11.73,25.12-10.2,15.56,7.47-13.76,16.11-19.01,18,5.12.89,16.84,2.05,16.7,8.9-3.51,5.99-15.44,2.2-20.88.86,3.49,3.96,22.29,25.84,7.67,25.94-4.09.03-14.52-18.27-17.02-22.27.4,5.66.87,13.7-1.58,18.87-10.07,5.16-9.17-11.7-9.56-17.62-2.54,3.93-13.26,19.86-17.42,20.14-15.66,1.06,5.13-20.4,8.67-24.6-5.39,1.55-16.98,5.39-20.98.13-1.09-7.03,11.48-9.2,16.59-10.39-5.5-1.57-32.54-10.44-20.11-18.33,3.17-2.01,21.33,6.96,25.17,8.85-2.68-3.67-16.24-19.39-5.11-20.65,3.86-.43,11.5,10.94,14.31,13.94-.11-6.07-.32-12.5-.19-18.55.09-4.38.47-6.18,3.51-8.95Z"/>
      <path class="cls-4" d="M660.42,414.16c8.85-.11,6.8,11.05,6.69,17.31,2.3-3.51,5.11-8.47,10.01-6.73,3.68,3.93.09,9.42-2.05,13.11,4.12-2.5,11.68-7.23,15.66-2.07,1.76,6.64-9.02,9-13.45,10.15,4.44,1.33,10.43,2.74,10.86,8.33-2.21,5.13-8.69,2.99-12.89,2.03,2.99,2.84,7.61,6.71,8.34,10.98.57,3.38-3.62,4.72-6.31,4.75-3.11-1.17-6.92-6.88-9.11-9.74-.25,4.93-.33,16.09-7.98,13.12-1.52-1.42-1.5-2.03-2.11-4.13l-.04-10.82c-1.98,2.67-9.28,14.18-12.73,13.41-12.23-2.74,2.83-15.6,5.92-18.77-4.26,2.1-12.67,6.98-15.93,1.2-.09-6.78,9.38-8.91,14.52-10.31-5.25-1.34-17.68-4.61-16.77-11.69,3.6-4.13,11.18-.15,15.06,1.61-2.46-3.15-5.76-7.45-2.6-11.21,5.26-2.1,9.25,3.65,12.01,7.15-.02-6.02-1.73-13.31,2.9-17.65Z"/>
    </g>
  </g>
</svg>