<?xml version="1.0" encoding="UTF-8"?>
<svg id="Layer_2" data-name="Layer 2" xmlns="http://www.w3.org/2000/svg" xmlns:xlink="http://www.w3.org/1999/xlink" viewBox="0 0 1322.06 886.08">
  <defs>
    <style>
      .cls-1 {
        fill: #0d364f;
      }

      .cls-2 {
        fill: #fefdfd;
      }

      .cls-3 {
        fill: #2b94d1;
      }

      .cls-4 {
        fill: #e96d3f;
      }

      .cls-5 {
        fill: #f8d935;
      }

      .cls-6 {
        fill: #c5e7f2;
      }

      .cls-7 {
        fill: url(#linear-gradient-2);
      }

      .cls-8 {
        fill: #37935a;
      }

      .cls-9 {
        fill: url(#linear-gradient);
      }

      .cls-10 {
        fill: #2c7de1;
      }

      .cls-11 {
        fill: #3a6ee2;
      }

      .cls-12 {
        fill: #134890;
      }

      .cls-13 {
        fill: #fd1f1e;
      }

      .cls-14 {
        fill: #32a3d9;
      }

      .cls-15 {
        fill: #a14946;
      }

      .cls-16 {
        fill: #0b2a55;
      }

      .cls-17 {
        fill: #65aa54;
      }

      .cls-18 {
        fill: #fcb06e;
      }

      .cls-19 {
        fill: #1d1f43;
      }

      .cls-20 {
        fill: #2970d7;
      }

      .cls-21 {
        fill: #51bbe7;
      }

      .cls-22 {
        fill: #854247;
      }

      .cls-23 {
        fill: #66c6e9;
      }

      .cls-24 {
        fill: #268360;
      }

      .cls-25 {
        fill: #ef935c;
      }

      .cls-26 {
        fill: #c3614c;
      }
    </style>
    <linearGradient id="linear-gradient" x1="662.45" y1="-1492.64" x2="682.7" y2="-1872.77" gradientTransform="translate(0 -1428.88) scale(1 -1)" gradientUnits="userSpaceOnUse">
      <stop offset="0" stop-color="#4bbdea"/>
      <stop offset="1" stop-color="#abe4f2"/>
    </linearGradient>
    <linearGradient id="linear-gradient-2" x1="556.82" y1="-2102.33" x2="538.13" y2="-2085.5" gradientTransform="translate(0 -1428.88) scale(1 -1)" gradientUnits="userSpaceOnUse">
      <stop offset="0" stop-color="#459a5a"/>
      <stop offset="1" stop-color="#1e815c"/>
    </linearGradient>
  </defs>
  <g id="Layer_1" data-name="Layer 1">
    <g>
      <path class="cls-2" d="M1318.46,484.68c-1.78-5.99-5.84-13.67-14.97-20.33.21-4.62-.26-8.94-1.38-13.04-1.35-4.91-4.22-11.26-10.29-17.05.04-18.36-1.47-52.2-4.61-64.87-.83-7.67-2.34-15.46-3.81-23.01-.3-1.54-.59-3.07-.88-4.56l-.26-1.36-.48-1.3c-2.42-6.61-4.34-12.8-6.38-19.35-3.17-10.2-6.45-20.75-11.58-32.48-16.65-38.08-41.1-72.55-72.68-102.46-28.49-26.99-63.04-50.52-102.68-69.92-86.16-42.18-177.26-56.34-238.5-60.8-39.29-2.86-79.54-2.9-118.5-2.94l-111.34.12-3.39.02c-49.93.36-101.56.72-152.04,7.09-.98.12-1.98.24-2.99.37-1.2.15-2.43.3-3.68.46-2.89-6.15-6.86-12.22-13.41-15.54-25-12.66-53.3-26.19-86.5-41.36-2.31-1.05-5.18-2.36-21.55-2.36-8.35,0-11.03.41-13.58,1.28-9.82,3.33-20.74,8.66-30.37,13.36-3.33,1.62-6.48,3.16-9.4,4.53l-.23.11c-5.51,2.68-11.21,5.37-16.71,7.96-10.04,4.73-20.42,9.62-30.57,14.9-9.7,5.05-16.16,13.65-18.66,24.88-2.96,13.28-6.1,26.8-9.13,39.88-4.03,17.39-8.2,35.37-12.05,53.16-.27,1.24-.45,2.45-.57,3.62-10.74,8.29-22.31,19.34-27.55,24.49-46.76,45.87-76.84,101.21-89.4,164.46-1.69,8.51-6.41,35.65-6.96,49.15-.44,4.53-1.75,20.42-1.95,32.66-.95.84-1.78,1.69-2.56,2.55-1.31-.26-2.7-.42-4.2-.42-.61,0-1.21.03-1.81.08-19.97,1.89-31.14,11.59-36.99,19.4-7.5,10-11.2,23.43-10.87,38.81-1.99,1.18-3.86,2.66-5.61,4.45l-7.4,7.55,3.5,9.98c4.38,12.48,18.2,13.47,26.46,14.06,5.63.4,12.77.59,22.49.59h.28c.43,2.8.91,5.69,1.46,8.69l.05.25.05.25c12.94,59.93,38.46,99.85,82.75,129.41,34.45,23,76.85,26.7,114.35,26.91v153.02c0,19.92,16.15,36.07,36.07,36.07h748.95c19.92,0,36.07-16.15,36.07-36.07v-152.97h27.95c2.28,0,4.55.01,6.82.02,2.31.01,4.62.02,6.92.02,8.13,0,16.92-.12,26.16-1,62.55-5.96,111.85-45.35,138.85-110.93l2.59-5.88.18-.48c3.04-8.2,5.49-15.89,8.08-24.02l.09-.29,1.88-6.71.1-.47c1.19-5.4,2.29-10.99,3.35-16.5,6.62-.3,15.58-1.87,21.62-9.96,7.62-10.21,5.17-23.42,1.39-36.18ZM264.1,126.3c1.12-5.1,2.27-10.31,3.51-15.08,5.23-2.62,11.83-5.67,17.19-8.12l8.15,4.13,8.48-6.45c16.35-12.44,27.83-14.54,47.37-14.54,2.58,0,5.27.03,8.08.07l10.89,6.8c25.95,16.2,36.9,41.7,29.31,68.2-6.19,21.6-25.92,43.4-56.05,43.4-5.32,0-10.83-.71-16.38-2.1l-3.46,6.47c-.45-.43-.91-.86-1.36-1.29-1.65-1.56-3.31-3.1-4.96-4.64-8.59-8.01-16.71-15.58-23.54-24.13-3.11-3.9-4.69-8.63-6.51-14.11-1.55-4.67-3.31-9.96-6.24-15.19-2.6-4.64-7.08-10.08-11.82-15.83-1.16-1.4-2.33-2.83-3.43-4.19.25-1.14.5-2.28.75-3.41Z"/>
      <g>
        <path class="cls-2" d="M1302.16,489.52c-2.35-7.91-9.79-13.02-17.31-16.19,3.48-12.74,2.24-23.67-10.25-30.78.95-12.19-.95-58.74-4.03-69.58l-.2-1.13c-.89-8.66-2.91-18.2-4.55-26.84-6.48-17.72-9.71-32.89-17.57-50.85-65.97-150.85-246.87-211.92-399.51-223.03-38.67-2.81-78.61-2.86-117.25-2.9l-111.34.12c-50.86.36-102.75.6-153.32,6.97-6.78.86-14.52,1.63-21.09,3.39-21.25.55-47.68.57-68.95-.02,79.97,49.93,27.47,161.48-56.28,140.43,12.32,11.17,30.76,28.29,41.87,40.3-3.46.2-9.96.42-13.16-.28-13.78-12.7-27.36-26.06-41.05-38.95-10.5-9.89-21.12-19.26-30.12-30.54-8.34-10.45-8.96-22.07-14.3-31.6-3.33-5.94-13.95-17.33-18.77-24.37,2.6-10.74,4.98-23.75,8.26-34.09,7.66-4.41,23.55-11.51,31.76-15.27,1.92.71,4.26,1.98,6.12,2.93,27.97-21.28,47.08-17.81,79.72-17.8l73.12.07c-1.26-3.05-3.78-8.98-7.03-10.62-27.98-14.16-57.39-28.04-85.88-41.06-1.98-.9-20.74-1.08-22.6-.45-11.94,4.05-26.42,11.74-38.03,17.18-15.6,7.58-31.49,14.65-46.87,22.65-5.48,2.85-8.57,7.5-9.91,13.49-6.91,31-14.45,61.9-21.16,92.93-.62,2.85-.31,5.67.21,8.51-9.94,6.29-24.78,20.05-33.04,28.15-43.95,43.12-72.65,95.29-84.63,155.63-2.08,10.45-6.31,35.87-6.67,46.99-.85,8.3-2.56,32.36-1.73,40.51-8.18,4.04-7.19,5.94-13.15,11.97-1.73,1.75-8.68-2.05-11.02-1.83-30.52,2.88-35.76,29.71-30.92,54.9-5.2-.06-8.28-1.07-12.01,2.73,1.53,4.36,41.21,3,48.03,3.27.98,7.88,1.9,14.82,3.34,22.62,10.92,50.59,31.13,89.2,75.56,118.86,35.25,23.53,80.62,24.53,121.76,23.95l18.93.1c15.84.15,32.8.35,48.59-.02l4.89.03h13.13s9.4.03,9.4.03l9.67-.07,2.46.11,11.22-.02,6.23-.04,5.99-.02c12.05,0,25.03.22,37-.1l11.42.04c10.84.31,21.83.13,32.68.06h7.48s.88-.03.88-.03l3.79.07,5.55.04,5.66-.11,6.52.03h6.94s33.48.06,33.48.06l8.38-.05h30.22s4.82.11,4.82.11c2.07,0,7.62.33,8.98.07l6.77-.18,7.98-.02,7.12.06h8.49c3.34-.01,7.72.12,10.97-.02l11.45-.06c34.59.22,72.36.69,106.83-.02l8.84-.03c3.94.09,7.9.24,11.84.07l11.36-.02c2.11-.02,5.42.06,7.43-.11,11.58,4.99,46.42,20.03,55.31,6.55.47-3.12-.7-3.73-3-5.76,3.09-1.36,41.26-.62,47.83-.58,7.87,2.2,13.22,1.91,21.18-.14,12.34.58,29.06.1,41.63.1h79.47s56.33.01,56.33.01c12.87,0,25.5.34,38.34-.88,60.97-5.81,102.21-45.62,124.82-100.66l2.47-5.6c2.89-7.8,5.3-15.35,7.83-23.28l1.67-5.95c2.11-9.58,3.95-19.9,5.85-29.57,16.97-1.28,29.59,5.03,20.81-24.57Z"/>
        <path class="cls-2" d="M340.21,228.84c-5.5,0-11.37-.46-17.44-1.36l-.91-.14-.9-.23c-8.4-2.2-16.17-5.37-23.07-9.4-19.22-11.23-32.96-29.61-38.72-51.73l-5.6-21.55,25.97.31c3.48.05,7.07.09,10.56.09,1.78,0,3.44-.01,5.01-.04,4.28-4.87,8.38-9.79,11.76-14.52-.72-3.04-1.4-6.06-2.06-9.01-.77-3.43-1.51-6.74-2.3-9.99-1.62-.76-3.29-1.52-5-2.3-1.34-.61-2.68-1.22-4.01-1.84l-27.04-12.54,24.55-16.9c14.12-9.72,28.79-14.69,46.17-15.63h.22c1.03-.05,2.08-.08,3.12-.08,3.67,0,7.47.26,11.3.76,21.41,2.81,41.31,14.32,54.59,31.58,13.92,18.1,19.81,40.61,16.57,63.39-3.08,21.65-14.91,41.62-32.46,54.78-14.66,11-31.12,16.34-50.3,16.34h0Z"/>
        <path class="cls-2" d="M306.48,203.03c5.86,3.42,12.24,5.91,18.8,7.63,20.06,2.99,38.39.72,55.04-11.76,13.94-10.45,23.38-26.31,25.83-43.57,2.56-17.99-2.12-36.2-13.21-50.62-10.48-13.63-26.24-22.85-43.32-25.09-3.76-.49-7.72-.72-11.51-.56-13.99.76-25.86,4.69-37.45,12.66,5.47,2.54,11.09,4.93,16.38,7.85,3.16,11.17,5.14,22.61,8.16,33.8-5.8,9.71-14.65,19.79-22.24,28.19-9.1.46-18.21.25-27.31.14,4.53,17.41,15.22,32.2,30.84,41.33Z"/>
        <path class="cls-2" d="M264.6,170.56l-5.02-5.23c-5.69-5.93-10.57-12.31-15.3-18.48-1.16-1.51-2.31-3.01-3.46-4.5l-4.72-6.06,1.43-7.55c1.65-8.7,3.79-17.2,5.85-25.42l2.53-10.06,7-3.49c6.51-3.25,13.11-6.39,19.5-9.44l6.98-3.33,2.98-.29c.69-.07,1.39-.1,2.1-.1,7.71,0,16.05,3.81,30.74,11.81,1.28.69,2.38,1.29,3.21,1.73l6.7,3.48,1.92,7.3c1.63,6.22,3.02,12.47,4.37,18.52.63,2.84,1.26,5.67,1.92,8.49l1.75,7.54-4.53,6.27c-5.31,7.34-11.61,15.12-18.71,23.13l-5.07,5.71h-18.58s-23.56,0-23.56,0Z"/>
        <path class="cls-2" d="M316.75,131.76c-2.04-8.82-3.87-17.77-6.17-26.53-5.45-2.83-21.24-12.12-26.57-11.6-7.85,3.75-15.72,7.47-23.51,11.35-2.24,8.92-4.55,17.88-6.26,26.92,5.65,7.26,11.25,15.02,17.61,21.65h16.29s10.95,0,10.95,0c6.12-6.89,12.25-14.33,17.65-21.8Z"/>
      </g>
      <g>
        <g>
          <g>
            <path d="M781.1,724.16l-10.54,9.3c-3.7-5.15-7.47-7.73-11.31-7.73-1.87,0-3.39.5-4.58,1.5-1.19,1-1.78,2.13-1.78,3.38s.42,2.44,1.27,3.56c1.15,1.49,4.63,4.7,10.44,9.61,5.43,4.54,8.73,7.41,9.88,8.59,2.89,2.92,4.93,5.7,6.14,8.36,1.21,2.66,1.81,5.57,1.81,8.72,0,6.14-2.12,11.2-6.36,15.2-4.24,4-9.77,6-16.59,6-5.33,0-9.97-1.31-13.92-3.92-3.95-2.61-7.34-6.71-10.15-12.3l11.97-7.22c3.6,6.61,7.74,9.91,12.43,9.91,2.44,0,4.5-.71,6.16-2.14,1.66-1.42,2.5-3.07,2.5-4.93,0-1.69-.63-3.39-1.88-5.08-1.26-1.69-4.02-4.29-8.3-7.78-8.15-6.64-13.41-11.77-15.79-15.38-2.38-3.61-3.56-7.21-3.56-10.81,0-5.19,1.98-9.63,5.93-13.35,3.95-3.71,8.83-5.57,14.64-5.57,3.73,0,7.29.86,10.66,2.59,3.38,1.73,7.03,4.88,10.97,9.46Z"/>
            <path d="M795.49,713.99h14.29v48.37c0,4.17.36,7.11,1.09,8.84.73,1.73,1.93,3.11,3.61,4.14s3.7,1.55,6.08,1.55c2.51,0,4.67-.58,6.48-1.73,1.81-1.15,3.07-2.62,3.76-4.39.69-1.78,1.04-5.17,1.04-10.19v-46.59h14.29v44.59c0,7.53-.42,12.75-1.27,15.66-.85,2.92-2.47,5.73-4.86,8.44-2.39,2.71-5.14,4.72-8.26,6.03-3.12,1.3-6.75,1.96-10.88,1.96-5.42,0-10.14-1.24-14.16-3.74-4.02-2.49-6.89-5.61-8.62-9.36-1.73-3.74-2.59-10.07-2.59-18.99v-44.59Z"/>
            <path d="M861.63,713.99h14.13v74.79h-14.13v-74.79Z"/>
            <path d="M931.04,724.16l-10.54,9.3c-3.7-5.15-7.47-7.73-11.31-7.73-1.87,0-3.39.5-4.58,1.5-1.19,1-1.78,2.13-1.78,3.38s.42,2.44,1.27,3.56c1.15,1.49,4.63,4.7,10.44,9.61,5.43,4.54,8.73,7.41,9.88,8.59,2.89,2.92,4.93,5.7,6.14,8.36,1.21,2.66,1.81,5.57,1.81,8.72,0,6.14-2.12,11.2-6.36,15.2-4.24,4-9.77,6-16.59,6-5.33,0-9.97-1.31-13.92-3.92-3.95-2.61-7.34-6.71-10.15-12.3l11.97-7.22c3.6,6.61,7.74,9.91,12.43,9.91,2.44,0,4.5-.71,6.16-2.14,1.66-1.42,2.5-3.07,2.5-4.93,0-1.69-.63-3.39-1.88-5.08-1.26-1.69-4.02-4.29-8.3-7.78-8.15-6.64-13.41-11.77-15.79-15.38-2.38-3.61-3.56-7.21-3.56-10.81,0-5.19,1.98-9.63,5.93-13.35,3.95-3.71,8.83-5.57,14.64-5.57,3.73,0,7.29.86,10.66,2.59,3.38,1.73,7.03,4.88,10.97,9.46Z"/>
            <path d="M985.19,724.16l-10.54,9.3c-3.7-5.15-7.47-7.73-11.31-7.73-1.87,0-3.39.5-4.58,1.5-1.19,1-1.78,2.13-1.78,3.38s.42,2.44,1.27,3.56c1.15,1.49,4.63,4.7,10.44,9.61,5.43,4.54,8.73,7.41,9.88,8.59,2.89,2.92,4.93,5.7,6.14,8.36,1.21,2.66,1.81,5.57,1.81,8.72,0,6.14-2.12,11.2-6.36,15.2-4.24,4-9.77,6-16.59,6-5.33,0-9.97-1.31-13.92-3.92-3.95-2.61-7.34-6.71-10.15-12.3l11.97-7.22c3.6,6.61,7.74,9.91,12.43,9.91,2.44,0,4.5-.71,6.16-2.14,1.66-1.42,2.5-3.07,2.5-4.93,0-1.69-.63-3.39-1.88-5.08-1.26-1.69-4.02-4.29-8.3-7.78-8.15-6.64-13.41-11.77-15.79-15.38-2.38-3.61-3.56-7.21-3.56-10.81,0-5.19,1.98-9.63,5.93-13.35,3.95-3.71,8.83-5.57,14.64-5.57,3.73,0,7.29.86,10.66,2.59,3.38,1.73,7.03,4.88,10.97,9.46Z"/>
            <path d="M1000.14,713.99h40.83v13.93h-26.69v13.52h26.69v13.68h-26.69v19.68h26.69v13.98h-40.83v-74.79Z"/>
          </g>
          <g>
            <path d="M735.39,810.48h9.2c5.04,0,8.62.45,10.76,1.35,2.14.9,3.86,2.39,5.16,4.48,1.3,2.09,1.95,4.56,1.95,7.41,0,3-.72,5.5-2.15,7.52-1.44,2.01-3.6,3.54-6.49,4.57l10.8,20.28h-9.49l-10.26-19.32h-.79v19.32h-8.68v-45.61ZM744.07,828.31h2.72c2.76,0,4.66-.36,5.7-1.09s1.56-1.93,1.56-3.61c0-1-.26-1.86-.77-2.6-.52-.74-1.21-1.26-2.07-1.59-.87-.32-2.45-.48-4.76-.48h-2.38v9.36Z"/>
            <path d="M793.16,809.33c6.45,0,12,2.34,16.64,7.01,4.64,4.67,6.97,10.37,6.97,17.08s-2.29,12.29-6.87,16.9c-4.58,4.61-10.14,6.91-16.68,6.91s-12.53-2.37-17.06-7.1c-4.53-4.73-6.79-10.36-6.79-16.87,0-4.36,1.05-8.37,3.16-12.03,2.11-3.66,5.01-6.56,8.7-8.7,3.69-2.14,7.67-3.21,11.93-3.21ZM793.07,817.83c-4.22,0-7.77,1.47-10.65,4.4-2.88,2.94-4.31,6.67-4.31,11.19,0,5.04,1.81,9.03,5.43,11.97,2.81,2.29,6.04,3.44,9.68,3.44,4.12,0,7.62-1.49,10.52-4.46s4.35-6.64,4.35-11.01-1.46-8.01-4.38-11.02c-2.92-3.01-6.47-4.51-10.65-4.51Z"/>
            <path d="M829.38,810.48h8.46l10.57,31.81,10.67-31.81h8.45l7.65,45.61h-8.4l-4.89-28.8-9.69,28.8h-7.65l-9.6-28.8-5.01,28.8h-8.46l7.9-45.61Z"/>
            <path d="M896.01,810.48h8.8l17.54,45.61h-9.02l-3.57-9.39h-18.61l-3.71,9.39h-9.02l17.59-45.61ZM900.47,822.57l-6.12,15.66h12.2l-6.08-15.66Z"/>
            <path d="M929.1,810.48h8.33l19.51,30.01v-30.01h8.68v45.61h-8.35l-19.49-29.92v29.92h-8.68v-45.61Z"/>
            <path d="M976.07,810.48h10.28c6.63,0,11.55.82,14.78,2.47,3.22,1.64,5.88,4.31,7.96,8.01,2.09,3.7,3.13,8.02,3.13,12.96,0,3.51-.58,6.74-1.75,9.69-1.17,2.95-2.78,5.39-4.83,7.33-2.06,1.94-4.28,3.29-6.68,4.03-2.4.74-6.55,1.12-12.45,1.12h-10.44v-45.61ZM984.69,818.85v28.77h4.03c3.97,0,6.85-.46,8.63-1.37,1.79-.91,3.25-2.44,4.39-4.59,1.14-2.15,1.71-4.8,1.71-7.95,0-4.84-1.35-8.6-4.06-11.27-2.44-2.4-6.36-3.6-11.75-3.6h-2.95Z"/>
            <path d="M1020.53,810.48h24.9v8.5h-16.28v8.25h16.28v8.34h-16.28v12h16.28v8.53h-24.9v-45.61Z"/>
          </g>
        </g>
        <g>
          <path class="cls-20" d="M570.04,858.97v-146.86c0-.62,1.8-1.32,2.57-1.15,32.24,2.29,68.92-6.42,98.35,9.58,47.13,25.62,52.55,92.39,8.67,124.18-7.85,5.68-26.79,14.25-36.32,14.25h-73.27ZM607.23,824.76h30.12c22.8,0,39.07-25.77,35.14-47.03-2.45-13.28-17.87-31.79-32.16-31.79h-33.1v78.82Z"/>
          <g>
            <path class="cls-20" d="M314.17,710.99v55.03l45-55.03h45.74l-53.43,67.42,60.12,80.56h-45l-38.29-50.25c-1.05-.77-1.58.14-2.28.76-1.12.98-11.86,13.96-11.86,14.91v34.58h-36.45v-147.98h36.45Z"/>
            <path class="cls-20" d="M518.78,766.72c-17.63-33.97-70.31-22.18-72.24,15.99-2.13,42.11,53.77,56.24,73.29,19.78l30.55,17.05c-18.66,37.28-66.46,50.59-102.55,29.61-38.86-22.59-49.1-76.27-19.83-111,34.14-40.52,96.97-34.63,121.9,11.8l-31.12,16.77Z"/>
          </g>
        </g>
      </g>
      <g>
        <path class="cls-2" d="M1302.16,489.52c-2.35-7.91-9.79-13.02-17.31-16.19,3.48-12.74,2.24-23.67-10.25-30.78.95-12.19-.95-58.74-4.03-69.58l-.2-1.13c-.89-8.66-2.91-18.2-4.55-26.84-6.48-17.72-9.71-32.89-17.57-50.85-65.97-150.85-246.87-211.92-399.51-223.03-38.67-2.81-78.61-2.86-117.25-2.9l-111.34.12c-50.86.36-102.75.6-153.32,6.97-6.78.86-14.52,1.63-21.09,3.39-21.25.55-47.68.57-68.95-.02,79.97,49.93,27.47,161.48-56.28,140.43,12.32,11.17,30.76,28.29,41.87,40.3-3.46.2-9.96.42-13.16-.28-13.78-12.7-27.36-26.06-41.05-38.95-10.5-9.89-21.12-19.26-30.12-30.54-8.34-10.45-8.96-22.07-14.3-31.6-3.33-5.94-13.95-17.33-18.77-24.37,2.6-10.74,4.98-23.75,8.26-34.09,7.66-4.41,23.55-11.51,31.76-15.27,1.92.71,4.26,1.98,6.12,2.93,27.97-21.28,47.08-17.81,79.72-17.8l73.12.07c-1.26-3.05-3.78-8.98-7.03-10.62-27.98-14.16-57.39-28.04-85.88-41.06-1.98-.9-20.74-1.08-22.6-.45-11.94,4.05-26.42,11.74-38.03,17.18-15.6,7.58-31.49,14.65-46.87,22.65-5.48,2.85-8.57,7.5-9.91,13.49-6.91,31-14.45,61.9-21.16,92.93-.62,2.85-.31,5.67.21,8.51-9.94,6.29-24.78,20.05-33.04,28.15-43.95,43.12-72.65,95.29-84.63,155.63-2.08,10.45-6.31,35.87-6.67,46.99-.85,8.3-2.56,32.36-1.73,40.51-8.18,4.04-7.19,5.94-13.15,11.97-1.73,1.75-8.68-2.05-11.02-1.83-30.52,2.88-35.76,29.71-30.92,54.9-5.2-.06-8.28-1.07-12.01,2.73,1.53,4.36,41.21,3,48.03,3.27.97,7.88,1.9,14.82,3.34,22.62,10.92,50.59,31.13,89.2,75.56,118.86,35.25,23.53,80.62,24.53,121.76,23.95l18.93.1c15.84.15,32.8.35,48.59-.02l4.89.03h13.13s9.4.03,9.4.03l9.67-.07,2.46.11,11.22-.02,6.23-.04,5.99-.02c12.05,0,25.03.22,37-.1l11.42.04c10.84.31,21.83.13,32.68.06h7.48s.88-.03.88-.03l3.79.07,5.55.04,5.66-.11,6.52.03h6.94s33.48.06,33.48.06l8.38-.05h30.22s4.82.11,4.82.11c2.07,0,7.62.33,8.98.07l6.77-.18,7.98-.02,7.12.06h8.49c3.34-.01,7.72.12,10.97-.02l11.45-.06c34.59.22,72.36.69,106.83-.02l8.84-.03c3.94.09,7.9.24,11.84.07l11.36-.02c2.11-.02,5.42.06,7.43-.11,11.58,4.99,46.42,20.03,55.31,6.55.47-3.12-.7-3.73-3-5.76,3.09-1.36,41.26-.62,47.83-.58,7.87,2.2,13.22,1.91,21.18-.14,12.34.58,29.06.1,41.63.1h79.47s56.33.01,56.33.01c12.87,0,25.5.34,38.34-.88,60.97-5.81,102.21-45.62,124.82-100.66l2.47-5.6c2.89-7.8,5.3-15.35,7.83-23.28l1.67-5.95c2.11-9.58,3.95-19.9,5.85-29.57,16.97-1.28,29.59,5.03,20.81-24.57Z"/>
        <path class="cls-2" d="M340.21,228.84c-5.5,0-11.37-.46-17.44-1.36l-.92-.14-.9-.23c-8.4-2.2-16.17-5.37-23.07-9.4-19.22-11.23-32.96-29.61-38.72-51.73l-5.6-21.54,25.97.31c3.48.05,7.07.09,10.56.09,1.78,0,3.44-.01,5.01-.04,4.28-4.87,8.38-9.79,11.76-14.52-.72-3.04-1.4-6.05-2.06-9.01-.77-3.43-1.51-6.75-2.3-9.99-1.62-.76-3.29-1.52-5-2.3-1.34-.61-2.68-1.22-4.01-1.83l-27.05-12.54,24.55-16.9c14.12-9.72,28.79-14.69,46.17-15.63h.22c1.03-.05,2.08-.08,3.12-.08,3.67,0,7.47.25,11.3.76,21.41,2.81,41.31,14.32,54.59,31.58,13.92,18.1,19.81,40.61,16.57,63.39-3.08,21.65-14.91,41.62-32.46,54.78-14.66,11-31.12,16.34-50.3,16.34h0Z"/>
        <path class="cls-2" d="M306.48,203.03c5.86,3.42,12.24,5.91,18.8,7.63,20.06,2.99,38.39.72,55.04-11.76,13.94-10.45,23.38-26.31,25.83-43.57,2.56-17.99-2.12-36.2-13.21-50.62-10.48-13.63-26.24-22.85-43.32-25.09-3.76-.49-7.72-.72-11.51-.56-13.99.76-25.86,4.69-37.45,12.66,5.47,2.54,11.09,4.93,16.38,7.85,3.16,11.17,5.14,22.61,8.16,33.8-5.8,9.71-14.65,19.79-22.24,28.19-9.1.46-18.21.25-27.31.14,4.53,17.41,15.22,32.2,30.84,41.33Z"/>
        <path class="cls-2" d="M264.6,170.56l-5.02-5.23c-5.69-5.93-10.57-12.31-15.3-18.48-1.16-1.51-2.31-3.01-3.46-4.5l-4.72-6.06,1.43-7.55c1.65-8.71,3.79-17.21,5.86-25.44l2.52-10.04,7-3.49c6.51-3.25,13.11-6.4,19.5-9.44l6.97-3.33,2.98-.29c.69-.07,1.39-.1,2.1-.1,7.71,0,16.05,3.81,30.74,11.81,1.27.69,2.37,1.29,3.21,1.73l6.7,3.48,1.92,7.3c1.63,6.22,3.02,12.47,4.37,18.52.63,2.84,1.26,5.67,1.92,8.49l1.75,7.54-4.53,6.27c-5.31,7.34-11.61,15.12-18.71,23.13l-5.07,5.71h-18.58s-23.56,0-23.56,0Z"/>
        <path class="cls-2" d="M316.75,131.76c-2.04-8.82-3.87-17.77-6.17-26.53-5.45-2.83-21.24-12.12-26.57-11.6-7.85,3.75-15.72,7.47-23.51,11.35-2.24,8.92-4.55,17.88-6.26,26.92,5.65,7.26,11.25,15.02,17.61,21.65h16.29s10.95,0,10.95,0c6.12-6.89,12.25-14.33,17.65-21.8Z"/>
      </g>
      <g>
        <path class="cls-16" d="M445.75,78.71c6.57-1.76,14.31-2.54,21.09-3.39,50.57-6.38,102.46-6.61,153.32-6.97l111.34-.12c38.63.04,78.57.08,117.25,2.9,152.64,11.11,333.54,72.18,399.51,223.03,7.86,17.96,11.09,33.13,17.57,50.85,1.64,8.64,3.66,18.18,4.55,26.84l.2,1.13c3.08,10.85,4.98,57.39,4.03,69.58,12.49,7.11,13.73,18.04,10.25,30.78,7.52,3.17,14.96,8.28,17.31,16.19,8.78,29.6-3.84,23.29-20.81,24.57-1.9,9.67-3.74,19.99-5.85,29.57l-1.67,5.95c-2.53,7.93-4.94,15.48-7.83,23.28l-2.47,5.6c-22.61,55.05-63.85,94.85-124.82,100.66-12.84,1.22-25.47.88-38.34.88h-56.33s-79.47-.01-79.47-.01c-12.57,0-29.29.48-41.63-.1-7.96,2.05-13.31,2.34-21.18.14-6.56-.04-44.74-.78-47.83.58,2.3,2.03,3.47,2.63,3,5.76-8.89,13.48-43.73-1.56-55.31-6.55-2,.17-5.31.09-7.43.11l-11.36.02c-3.94.17-7.89.02-11.84-.07l-8.84.03c-34.47.71-72.24.24-106.83.02l-11.45.06c-3.25.15-7.63.01-10.97.01h-8.49s-7.12-.05-7.12-.05l-7.98.02-6.77.18c-1.36.26-6.92-.06-8.98-.07l-4.82-.11h-30.22s-8.38.04-8.38.04l-33.48-.07h-6.94s-6.52-.02-6.52-.02l-5.66.11-5.55-.04-3.79-.07-.88.04h-7.48c-10.85.06-21.84.24-32.68-.07l-11.42-.04c-11.96.33-24.95.11-37,.1l-5.99.02-6.23.04-11.22.02-2.46-.11-9.67.07-9.4-.03h-13.13s-4.89-.04-4.89-.04c-15.79.38-32.75.17-48.59.02l-18.93-.1c-41.14.58-86.51-.41-121.76-23.95-44.43-29.66-64.65-68.27-75.56-118.86-1.44-7.8-2.36-14.74-3.34-22.62,37.96-.59,76.29.09,114.32-.28.13-16.51,1.2-40.84.04-56.7.69-22.15.79-44.4,1.01-66.57-34.63,7.29-60.55,7.84-94.58,12,.36-11.12,4.59-36.54,6.67-46.99,11.98-60.34,40.68-112.51,84.63-155.63,8.26-8.1,23.09-21.86,33.04-28.15,2.03,6.24,54.14,69.73,62.26,78.84,2.04,2.28,4.58,5.33,7.36,6.7,6.47,3.19,57.54,2.48,66.91,1.45,3.19.7,9.7.48,13.15.28-11.11-12.02-29.56-29.13-41.87-40.3,83.74,21.05,136.24-90.5,56.28-140.43,21.27.59,47.7.58,68.95.02Z"/>
        <path class="cls-9" d="M445.75,78.71c6.57-1.76,14.31-2.54,21.09-3.39,50.57-6.38,102.46-6.61,153.32-6.97l111.34-.12c38.63.04,78.57.08,117.25,2.9,152.64,11.11,333.54,72.18,399.51,223.03,7.86,17.96,11.09,33.13,17.57,50.85,1.64,8.64,3.66,18.18,4.55,26.84l.2,1.13c-1.84,3.59,2.07,15.32,1.22,16.53-6.23,8.8-6.86,12.36-6.24,23.75h-7.23l-7.75-7.54c-6.36-.77-9.45-.76-15.61-2.37-6.54-1.7-14.49-8.58-19.61-8.61-2.69-3.57-3.51-12.4-5.88-14.65l-.5.22c-3.25-5.74-5.99-14.02-9.4-20.31-55.07-101.51-186.45-115.25-258.75-23.66-.03-10.21-.2-20.91.52-31.07.47-6.61,5.99-4.59.3-13.71-9.47-15.17-20.45-29.25-30.43-44.06-2.85-4.24-2.65-11.93-5.72-15.38-3.65,2.28-1.6,12.23-4.88,17.2-5.65,8.57-11.42,16.57-17.84,24.59-1.23-7.25-1.76-15.78-2.31-23.19-2.87-38.55-8.72-76.85-10.11-115.5-.2-5.47-.33-11.93-1.24-17.27l-1.1-.59c-1.46,1.33-1.89,2.57-2.13,4.62-6.03,51.15-10.07,102.51-17.37,153.51-1.59-2.89-3.39-7.05-4.83-10.13-1.69,5.43-2.42,8.95-3.46,14.46-5.69-8.94-12.54-19.72-15.49-29.95-.99-3.42-.31-14.42-3.37-15.96-3.69,2.42-2.03,9.09-3.22,13.03-3.69,12.19-12.43,25.02-18.28,36.87-4.03,1.84-6.85,3.43-10.7,5.66.79,6.35.31,27.74.3,35.21l-103.8-.08c-.27-5.82.41-29.71-.88-32.71-10.92-25.49-8.14-52.12-11.57-79.18-.58-4.57-.56-27.84-3.75-29.38-5.12,9.4-5.51,63.81-8.89,78.2-.88,3.74-.85,8.4-2.28,12.54-2.69,7.76-6.64,15.13-8.02,23.21-1.81,10.36,1.34,23.03-1.24,33.05-1.78,1.62-12.25,18.31-13.88,21.36-1.14,2.14-1.95,8.35-3.3,9.74l-5.05-4.36c-5.58,15.54-14.14,15.81-14.67,34.59-15.59-.4-23.45,2.69-30.59,17.06-25.01-.71-53.62.25-78.87.51-5.4-5.69-10.48-10.79-16.13-16.24-22.36-.02-45.26.2-67.57-.3-6.12-8.45-19.69-26.49-26.94-35.26-1.74-.59-3.2-1.08-4.38-1.48-1.3-2.12-1.42-12.87-1.61-16.32-8.44-8.54-4.03-11.05-7.97-19.42l-1.63,1.22c-14.4,7.52-28.76,14.4-45.04,16.45,7.97-6.07,16.8-12.46,24.57-18.67l-54.54,26.08c-2.95,2.28-12.99,7.31-17.05,9.57-11.21,6.24-21.11,13.59-33.48,17.65-6.28,2.06-13.01,4.5-19.06,7.18-.67.3-.71,6.08-.72,6.99.33,19.25-.07,48.94,1.33,67.77.69,19.32,1.69,40.44,1.61,59.75.87,7.9,1.66,15.81,2.83,23.66,5.64-.04,13.13.14,18.62-.13,2.76,8.84,3.26,10.46,8.85,17.63l2.31,3.09c-5.48,2.96-30.6,1.65-38.02,1.79-26.54.5-53.24-.25-79.8.43-2.19.06-4.58-.43-6.26-1.9l-.07-1.55,1.97-1.98c6.07-6.38,22.65-3.27,30.67-7.47,5.41-2.83,4.68-1.76,5.96-7.48l.04-8.33.68-17.77c.13-16.51,1.2-40.84.04-56.7.69-22.15.79-44.4,1.01-66.57-34.63,7.29-60.55,7.84-94.58,12,.36-11.12,4.59-36.54,6.67-46.99,11.98-60.34,40.68-112.51,84.63-155.63,8.26-8.1,23.09-21.86,33.04-28.15,2.03,6.24,54.14,69.73,62.26,78.84,2.04,2.28,4.58,5.33,7.36,6.7,6.47,3.19,57.54,2.48,66.91,1.45,3.19.7,9.7.48,13.15.28-11.11-12.02-29.56-29.13-41.87-40.3,83.74,21.05,136.24-90.5,56.28-140.43,21.27.59,47.7.58,68.95.02Z"/>
        <path class="cls-21" d="M301.46,345.29l.45-1.61c4.63-4.27,19.71-14.7,25.45-18.08,4.81-2.64,14.5-4.98,18.58-8.23,11.42-9.11,13.88-17.38,29.71-20.46,7.79-1.52,18.68-7.86,25.63-12.11,12.51-5.95,24.48-27.53,35.86-32.81,15.31-7.11,28.3-5.39,43.22-18.48,11.13-9.77,19.18-19.87,32.95-7.92-1.19,13.09-1.15,30.77-1.63,44.25l8.59-9.04c-1.51,4.78-2.96,8.54-4.83,13.2,6.69,6.11,8.35,13.69,12.57,21.63,3.52,6.62,18.48,17.1,19.46,22.66l11.05,10.77c.44-9.68.57-15.17-1.01-24.67,5.08,7.61,8.87,17.61,15.99,22.52-4.87-13.87-9.78-24.99-13.85-39.39,9.04,4.34,19.71,12,27.09,18.73,2.4-1.6,2.4-1.5,3.12-5.16l.15-.8c4.32,1.84,11.02,11.73,17.12,13.08,1.41-.81.92-.25,1.54-1.72-1.34-3.57-2.62-7.02-3.85-10.63,18.6,15.78,24.51,17.75,44.22,29.3-1.78,1.62-12.25,18.31-13.88,21.36-1.14,2.14-1.95,8.35-3.3,9.74l-5.05-4.36c-5.58,15.54-14.14,15.81-14.67,34.59-15.59-.4-23.45,2.69-30.59,17.06-25.01-.71-53.62.25-78.87.51-5.4-5.69-10.48-10.79-16.13-16.24-22.36-.02-45.26.2-67.57-.3-6.12-8.45-19.69-26.49-26.94-35.26-1.74-.59-3.2-1.08-4.38-1.48-1.3-2.12-1.42-12.87-1.61-16.32-8.44-8.54-4.03-11.05-7.97-19.42l-1.63,1.22c-14.4,7.52-28.76,14.4-45.04,16.45,7.97-6.07,16.8-12.46,24.57-18.67l-54.54,26.08Z"/>
        <path class="cls-2" d="M301.46,345.29l.45-1.61c4.63-4.27,19.71-14.7,25.45-18.08,4.81-2.64,14.5-4.98,18.58-8.23,11.42-9.11,13.88-17.38,29.71-20.46,7.79-1.52,18.68-7.86,25.63-12.11,12.51-5.95,24.48-27.53,35.86-32.81,15.31-7.11,28.3-5.39,43.22-18.48,11.13-9.77,19.18-19.87,32.95-7.92-1.19,13.09-1.15,30.77-1.63,44.25l8.59-9.04c-1.51,4.78-2.96,8.54-4.83,13.2,6.69,6.11,8.35,13.69,12.57,21.63,3.52,6.62,18.48,17.1,19.46,22.66-11.89.85-23.64-18.67-27.36-28.17-7.09,11.11,5.07,38.74-1.88,42.85-5.88-1.74-9.71-20.22-16.14-13.75,1.01,2.39,1.81,3.47,1.26,5.85-5.71,4.33-18.29-17.17-22.32-20.12-2.98-2.18-5.15-.4-6.75-2.29.5-9.63,2.41-18.96,2.91-28.42-8.94,9.43-17.62,18.77-26.39,28.34-9.33,10.18-19.22,22.32-30.42,30.22,3.53-5.78,6.45-10.72,9.62-16.71-6.63,4.18-25.66,17.41-32.21,17.17l-.5-.78,1.71-1.93c1.57-5.36,19.97-28.98,23.11-35.31,1.12-2.26,1.04-1.45.35-3.63-10.33,7.61-20.81,14.73-31.91,21.18-1.72,1-11.46,6.33-12.45,7.41l-1.63,1.22c-14.4,7.52-28.76,14.4-45.04,16.45,7.97-6.07,16.8-12.46,24.57-18.67l-54.54,26.08Z"/>
        <path class="cls-23" d="M487.77,298.05c2.51-2.51,7.57-6.99,8.55-10.17-1.16-1.14-2.08-.11-4.97-.32.65-2.76,15.37-31.56,17.69-35.58-.42,7.06-3.85,28.2-1.74,31.83,2.41-.33,3.79-2.12,5.96-3.91,3.75.39,5.94,7.1,6.84,10.21-7.09,11.11,5.07,38.74-1.88,42.85-5.88-1.74-9.71-20.22-16.14-13.75-4.66-5.12-4.75-14.26-14.31-21.18Z"/>
        <path class="cls-23" d="M422.46,291.61c5.81-5.68,19.19-14.84,26.7-21.57-7.07,11.28-39.48,55.34-50.16,60.51,1.57-5.36,19.97-28.98,23.11-35.31,1.12-2.26,1.04-1.45.35-3.63Z"/>
        <path class="cls-23" d="M503.66,242.18c-12.22,13.13-26.94,19.38-40.89,33.65,1.68-5.12,7.68-15.48,7.37-19.35l.91-.79c3.28.76,3.56,1.09,5.45-1.69,10.36-5.09,16.4-7.67,27.16-11.81Z"/>
        <path class="cls-23" d="M471.06,255.68c7.47-10.61,18.12-20.85,27.19-30.56-3.6,8.25-4.89,12.66-11.58,18.97-2.48,2.34-9.16,7.42-10.16,9.89-1.89,2.78-2.16,2.45-5.45,1.69Z"/>
        <path class="cls-23" d="M586.74,306.25c2.4-1.6,2.4-1.5,3.12-5.16l.15-.8c4.32,1.84,11.02,11.73,17.12,13.08,1.41-.81.92-.25,1.54-1.72,2.06,4.46,11.27,20.71,5.17,23.43-9.02-1.68-20.9-21.37-27.11-28.82Z"/>
        <path class="cls-2" d="M182.95,390.92c1.5-54.46-.1-110.65,15.48-163.28,1.2-4.06,4.51-19.1,8.07-19.87,2.76,2.65,5.93,12.73,7.88,16.44,13.08,24.9,13.33,46.11,14.28,73.48,1.01,28.89,1.4,59.29,2.38,88.28.04.24.07.48.11.72.33,19.25-.07,48.94,1.33,67.77.69,19.32,1.69,40.44,1.61,59.75.87,7.9,1.66,15.81,2.83,23.66,5.64-.04,13.13.14,18.62-.13,2.76,8.84,3.26,10.46,8.85,17.63l2.31,3.09c-5.48,2.96-30.6,1.65-38.02,1.79-26.54.5-53.24-.25-79.8.43-2.19.06-4.58-.43-6.26-1.9l-.07-1.55,1.97-1.98c6.07-6.38,22.65-3.27,30.67-7.47,5.41-2.83,4.68-1.76,5.96-7.48l.04-8.33.68-17.77c.13-16.51,1.2-40.84.04-56.7.69-22.15.79-44.4,1.01-66.57Z"/>
        <path class="cls-6" d="M193.15,550.39c-.51-8.19.4-22.26.72-30.9l1.91-54.56c1.71-57.36,1.4-114.99,6.05-172.22.36-4.47,6.11-39.5,7.45-42.67,1.66,5.73-4.36,30.24-5.1,37.93-5.4,56.51-2.7,112.7-2.32,169.3l.1,41.79c-.02,10.53-.26,23.96,1,34.3l.13,1.02c1.88-12.86,4.62-31.64,7.56-43.98,2.74,19.09.75,25.76,6.64,45.71,5.88-8.03,7.95-13.14,11.79-22.15.5,10.68.42,29.64,8.9,37.05l1.52-.22.83,1.66c3.89,1.01,6.04.28,9.05,1.04-18.42.98-38.14.34-56.23-3.08Z"/>
        <path class="cls-21" d="M236.94,537.86c5.64-.04,13.13.14,18.62-.13,2.76,8.84,3.26,10.46,8.85,17.63-4.88-.51-10.11-1.29-15.03-1.89-3.02-.76-5.16-.03-9.05-1.04l-.83-1.66c-.45-3.56-1.81-9.25-2.57-12.91Z"/>
        <path class="cls-23" d="M144.55,555.23c6.07-6.38,22.65-3.27,30.67-7.47,5.41-2.83,4.68-1.76,5.96-7.48.02,3.76.32,7.81-.83,11.33-2.48,2.23-29.54,2.82-35.8,3.62Z"/>
        <path class="cls-11" d="M376.8,78.69c21.27.59,47.7.58,68.95.02l13.08,56.5c2.52,10.85,5.58,21.84,6.62,32.87.23,2.38-1.31,5.49-2.72,7.34-20.63,27.1-42.25,54.04-64.33,79.94-5.07,5.94-27.83,4.19-36,4.06-11.11-12.02-29.56-29.13-41.87-40.3,83.74,21.05,136.24-90.5,56.28-140.43Z"/>
        <path class="cls-23" d="M1265.82,345c1.64,8.64,3.66,18.18,4.55,26.84l-1.32-.86-.13-2.45c-1.92-.82-2.61-.64-4.58-.39-1.37-1.17-.64-4.07-1.55-7.45l-.99-.46c-2.3,2.75.65,1.92-.8,5.77-1.09-1.82-1.23-3.92-1.57-6.04,1.3-1.08,2.48-.62,4.68-.65,2.02-4.28-1.47-5.72,1.71-14.31Z"/>
        <path class="cls-2" d="M562.13,111.85c3.64.22,6.96.67,10.36,2.04,8.54,3.43,12.81,9.78,16.29,17.96,1.4-.61,2.82-1.16,4.26-1.66,5.61-1.93,12.46-2.56,17.85.31,5.95,3.16,7.72,8.37,9.44,14.4,3.73-.63,8.65-1.3,12.2.27,2.3,1.02,4.2,3.19,5.06,5.54.56,1.54.87,2.46.12,3.89-7.15,1.13-14.65.61-21.88.59l-35.15-.08c-23.81,0-47.73.54-71.53.11-2.01-.04-4.78.09-6.18-1.37-.48-2.51-.48-5.17.25-7.65,1.53-5.18,6.17-10.81,10.93-13.18,6.82-3.4,13.45-1.85,20.25.52,1.77-4.28,3.46-8.22,6.49-11.77,5.67-6.65,12.72-9.17,21.23-9.91Z"/>
        <path class="cls-2" d="M984.93,146.81c5.4-.04,10.2.59,15,3.17,6.35,3.41,9.46,8.58,11.43,15.29,2.9-1.14,6.09-2.23,9.21-2.54,5.17-.52,10.38,1.13,14.37,4.43,4.42,3.66,7.76,9.96,7.92,15.76.06,2.24-.41,3.36-1.87,4.96-8.03,2.32-35.18.77-45.16.74l-38.56.04c-6.42,0-14.17.92-20.37-.48-.92-1.73-.85-3.08-.65-5.05.36-3.39,1.85-6.56,4.56-8.68,5.66-4.42,13.07-3.73,19.7-2.78,1.37-5.63,2.58-10.71,6.16-15.41,4.57-6.02,11.03-8.42,18.26-9.44Z"/>
        <path class="cls-21" d="M684.4,546.15c2.58,1.48,13.57.93,17.26,1l44.71.77c24.53.41,49.09,2.49,73.67,2.1,5.54-.09,17.46.4,22.51-.83l431.28.42c-2.53,7.93-4.94,15.48-7.83,23.28l-2.47,5.6c-22.61,55.05-63.85,94.85-124.82,100.66-12.84,1.22-25.47.88-38.34.88h-56.33s-79.47-.01-79.47-.01c-12.57,0-29.29.48-41.63-.1-7.96,2.05-13.31,2.34-21.18.14-6.56-.04-44.74-.78-47.83.58,2.3,2.03,3.47,2.63,3,5.76-8.89,13.48-43.73-1.56-55.31-6.55-2,.17-5.31.09-7.43.11l-11.36.02c-3.94.17-7.89.02-11.84-.07l-8.84.03c-34.47.71-72.24.24-106.83.02,12.99-9.26,29.41-15.3,42.26-24.93,7.47-5.6,27.14-21.19,25.76-30.73-6.23-10.91-39.7-1.4-49.93,1.65,11.6-12.24,26.85-37.22,23.8-54.2-3.17-17.68-21.32-.54-26.11,3.9-22.15,20.5-32.46,44.98-46.22,70.71,2.32-25.15,8.34-44.58,15.44-68.73,20.43,7.82,22.81-1.01,19.98-19.67,8.89-.44,19.62-3.39,24.09-11.8Z"/>
        <path class="cls-16" d="M884.79,648.86c5.93-2.36,14.17-4.88,20.36-6.15,11.54-2.37,11.18-8.51,17.8-15.21,9.26-9.38,33.16-20.39,43.01-6.07,10.27-5.51,31.82-13.33,31.81,6.19,9.28.7,26.88.43,25.14,15.55-1.35,11.76-19.89,9.2-20.68,10.14-8.35,9.9-13.21,18.05-29.57-2.1-22.65,10.7-26.52,4.94-48.22-2.64-12.49-4.36-39.03,5.16-51.45,10.32,16.71,2.4,37.93-3.37,49.67,11.51,2.8,3.55,3.28,6.03.29,9.52-7.96,2.05-13.31,2.34-21.18.14-6.56-.04-44.74-.78-47.83.58,2.3,2.03,3.47,2.63,3,5.76-8.89,13.48-43.73-1.56-55.31-6.55.42-1.1,26.33-22.73,28.88-23.26l.67.55-3.34,8.61c4.86-1.56,9.88-3.09,14.65-4.85l.53-.98c2.97-5.57,4.74-10.36,7.48-17.27,4.86-12.26,33.47-26.89,45.1-22.8,8.6,3.02-6.36,23.98-10.81,29.01Z"/>
        <path class="cls-21" d="M832.06,670.91c14.37-6.5,26.98-8.41,42.76-6.55,12.18,1.43,17.7,8.52,26.94,15.71-6.56-.04-44.74-.78-47.83.58-7.29-4.16-13.94-7.13-21.87-9.73Z"/>
        <path class="cls-17" d="M981.43,620.75c2.75-.27,6.13-.58,8.61.84,1.89,1.08,3.5,2.46,4,4.62-1.72,4.88-8.8,4.17-11.74,7.9l.3,1.06c7.35,1.22,17.76-3.29,27.79-1.37,2.46.47,5.13,1.38,6.48,3.65.83,1.39,1.08,3.19.7,4.75-.44,1.81-1.35,3.21-3.07,4.06-7.37,3.66-20.04-.57-27.31-3.1,2.85,2.89,8.83,6.8,9.04,10.93-.39.58-.77,1.18-1.33,1.63-1.74,1.42-4.74,1.67-6.88,1.45-4.35-.45-6.07-2.91-8.71-6.02-7.34-7.28-14.49-8.7-24.56-9.22,3.9,2.08,7.59,4.26,11.24,6.76-1.42.5-2.83,1-4.25,1.46-12.57,4.05-22.38-1.43-33.35-7.11,8.42-1.57,17.69-2.65,25.38-6.58,10.79-5.51,14.94-12.1,27.66-15.73Z"/>
        <path class="cls-17" d="M886.85,625.8c1.5-.21,2.66-.4,4.14.05l.47,1.2c-.27,2.43-1.28,4.41-2.52,6.48-6.93,11.45-18.04,20.83-31.09,24.02-1.9.42-3.41.84-5.32.36-.59-.78-.98-1.11-1.17-2.11-.57-3.02,2.02-7.1,3.59-9.59,7.15-11.3,19.12-17.51,31.9-20.4Z"/>
        <path class="cls-17" d="M947.21,620.05c3.21-.36,8.47-.56,11.41.81,1.59.74,2.01,1.42,2.48,3.03-.22.57-.27.8-.58,1.28-3.57,5.61-19.96,9.67-26.53,11.41-4.72.8-9.39,2.21-14.02,3.41.73-1.39,1.47-2.77,2.27-4.11,5.08-8.53,15.75-13.44,24.97-15.84Z"/>
        <path class="cls-17" d="M889.86,664.12c7.16-.46,15.34.3,21.72,3.81,3.38,1.86,6.24,4.2,7.32,8.02-3.08.67-6.17,1.01-9.29,1.35-7.45-3.71-13.52-7.54-19.75-13.18Z"/>
        <path class="cls-17" d="M823.01,676.58c6.98-.65,17.29,2.72,22.96,6.83,1.05.76,1.04.75,1.24,2-2.04,1.22-4.2.82-6.48.69-9.86-1.19-18.7-3.84-28.03-7.08,3.4-1.05,6.83-1.74,10.32-2.44Z"/>
        <path class="cls-17" d="M778.61,631.62c14.68-10.84,21.22-6.12,19.68,11.67,6.1-.05,14.24,1.41,13.81,9.47-.61,11.49-10.19,19.75-17.91,27.2l-11.36.02c-3.94.17-7.89.02-11.84-.07l-8.84.03c-7.16-7.93-21.72-26.02-11.59-38.4,2.03-2.49,6.58-.04,9.22-.45,6.43-8.64,6.1-19.54,18.82-9.47Z"/>
        <path class="cls-16" d="M778.61,631.62c14.68-10.84,21.22-6.12,19.68,11.67,6.1-.05,14.24,1.41,13.81,9.47-.61,11.49-10.19,19.75-17.91,27.2l-11.36.02c4.24-3.41,9.41-5.92,13.7-9.33,5.23-4.15,13.4-14.46,7.98-20.89-6.38-3.69-12.08,1.77-16.34,6.09l3.5-9.55c2.06-5.48,4.91-11-.69-15.18-6.19-1.66-9.83,3.73-11.35,9.08-3.26-2.79-4.63-5.7-8.16-8.39-14.2,15.29-.02,17.65-.94,27.49l-.91.02c-5.93-7.86-7.07-10.46-16.48-14.38-.21,16.96,3.05,25.43,17.86,34.97l-8.84.03c-7.16-7.93-21.72-26.02-11.59-38.4,2.03-2.49,6.58-.04,9.22-.45,6.43-8.64,6.1-19.54,18.82-9.47Z"/>
        <path class="cls-3" d="M1263.53,578.49c-40.5,1.71-81.84.35-122.39,1.08-2.53.05-6.83-.51-8.54-2.42.35-2.52,1.88-3.91,4.49-3.98,14.11-.35,28.26-.26,42.37-.28h86.54s-2.47,5.6-2.47,5.6Z"/>
        <path class="cls-3" d="M972.84,573.18l76.41-.33c10.47,0,22.42-1.23,32.68.19,2.67.37,4.96.93,6.6,3.1l-.26.91c-3.45,3.36-8.71,2.54-13.19,2.49-13.78.1-107.05,1.76-113.2-.7-1.19-.48-1.13-.64-1.64-1.8.37-.73.26-.68.76-1.17,3.26-3.17,7.62-2.66,11.84-2.68Z"/>
        <path class="cls-3" d="M935.24,553.86c8.42.21,50.76-1.17,55.08,1.18.52,1.5.38,2.13-.07,3.64-4.05,3.15-51.63,1.86-60.66,1.85-11.9.19-23.81.06-35.7.03-5.53-.01-12.45.71-17.81-.44-2.03-.43-2.98-1.21-4.12-2.89l.75-1.31c7.13-3.59,51.27-1.81,62.54-2.07Z"/>
        <path class="cls-3" d="M773.1,590.29c20.12-.68,40.35-.32,60.48-.27,9.97.02,20.33-.74,30.25-.06,2.63.18,5.67.58,8.07,1.7,1.63.76,2.55,1.24,3.15,2.9-1.42,1.42-3.18,1.22-5.13,1.45-12.53.4-94.61,1.78-100.89-2.14l-.28-1.2c1.29-1.61,2.38-1.86,4.33-2.38Z"/>
        <path class="cls-3" d="M1084.27,610.15c9.71-.54,57.8-1.58,64.91.43,1.6.45,2.32.89,3.02,2.37-.18.49-.23.72-.58,1.17-1.33,1.7-3.38,1.52-5.32,1.72-10.87-.09-62.06,2.85-67.18-1.65v-1.41c1.5-1.79,2.93-2.06,5.15-2.63Z"/>
        <path class="cls-3" d="M997.14,554.41c12.86-.14,26.35-1.06,39.14-.15,3.16.22,5.65.31,7.79,2.82-.37,1.86-.76,1.81-2.25,2.87-12.24,1.33-27.47,1.54-39.74.57-2.78-.22-5.14-.35-7.02-2.54.24-2.09.63-2.16,2.08-3.57Z"/>
        <path class="cls-3" d="M883.17,590.26c6.88-.71,23.18-1.49,29.4.91,1.56.6,1.67.88,2.31,2.32l-.92,2.04c-1.38.19-2.77.36-4.16.47-6.19.47-22.79,2.43-27.5-1.58-.15-2.08-.12-2.33.87-4.16Z"/>
        <path class="cls-21" d="M67.58,514.47c37.96-.59,76.29.09,114.32-.28l-.68,17.77-.04,8.33c-1.28,5.72-.54,4.64-5.96,7.48-8.02,4.2-24.61,1.1-30.67,7.47l-1.97,1.98.07,1.55c1.68,1.47,4.07,1.96,6.26,1.9,26.55-.68,53.26.07,79.8-.43,7.42-.14,32.53,1.17,38.02-1.79,3.01,4.12,4.03,5.33,7.72,8.83-9.31,10.02-11.2,19.88-11.53,33.44-.51,20.73,31.52,7.7,41.92,3.35,8.4,13.02,19.27,26.42,36.41,22.18,5.14,16.23,10.54,32.16,16.3,48.18-11.09-13.51-53.88-67.31-70.79-40.75-13.27-7.93-37.75-17.74-53.17-14.11-2.92.69-5.3,2.07-6.92,4.64-1.52,2.41-1.57,4.97-.79,7.66,5.7,19.77,36.94,27.86,39.1,32.49,1.61,3.44-4.97,8.84,3.28,15.53-41.14.58-86.51-.41-121.76-23.95-44.43-29.66-64.65-68.27-75.56-118.86-1.44-7.8-2.36-14.74-3.34-22.62Z"/>
        <path class="cls-14" d="M67.58,514.47c37.96-.59,76.29.09,114.32-.28l-.68,17.77c-.65,4.07-.47,6.26-5.79,6.2-3.88-.04-6.47-.45-10.26.62,1.68,2.42,3.16,5.29,4.6,7.9-8.01-4.69-14.5-8.59-23.59-10.73-4,2.39-65.9,1.16-75.27,1.14-1.44-7.8-2.36-14.74-3.34-22.62Z"/>
        <path class="cls-2" d="M146.19,535.95c-3.48-.79-8.57-1.32-10.84-3.49l-.42-1.32c3.25-4.71,11.7-3.69,16.57-2.12,5.7,1.84,9.58,5.59,13.68,9.77,1.68,2.42,3.16,5.29,4.6,7.9-8.01-4.69-14.5-8.59-23.59-10.73Z"/>
        <path class="cls-3" d="M154.26,595.11c10.76-.54,64.82-1.51,70.6,1.94l.23,1.23-1.84,2.32c-8.15.26-65.92,1.22-69.51-.5-.52-.25-.92-.71-1.37-1.07-.05-1.95.73-2.41,1.89-3.92Z"/>
        <path class="cls-3" d="M228.09,575.31c3.22-.16,7.37-.6,10.51.15,1.59.38,1.74.59,2.49,1.93l-1.05,2.4c-3.97,2.63-21.86,1.3-27.34,1.32-4.43.16-9.72.3-13.96-1.03l-.38-1.82.92-1.18c6.78-3.42,21.04-1.68,28.81-1.78Z"/>
        <path class="cls-2" d="M116.23,552.9c4.72-.36,6.61-1.37,10.42.27,2.72,3.85-2.64,5.8-5.37,6.97-3.66,1.78-7.71,1.2-8.56-3.32,1.2-2.89.64-1.91,3.51-3.93Z"/>
        <path class="cls-23" d="M116.23,552.9c4.72-.36,6.61-1.37,10.42.27,2.72,3.85-2.64,5.8-5.37,6.97.69-2.35.92-2.84.97-5.24-1.82-1.8-3.09-1.49-6.02-2.01Z"/>
        <path class="cls-8" d="M851.99,543.71c21.05-7.35,41.59-15.75,63.28-21.85,7.05-1.98,17.61-5.99,24.65-7.08,9.63-1.49,23.09-.76,33.18-.75l59.52.05,162.47.03c28.08.02,58.42.68,86.26-.03-1.9,9.67-3.74,19.99-5.85,29.57-18.17-.7-39.01-.18-57.42-.17l-102.01.05-264.08.16Z"/>
        <path class="cls-23" d="M301.46,345.29l54.54-26.08c-7.76,6.21-16.6,12.6-24.57,18.67,16.28-2.05,30.64-8.93,45.04-16.45-2,9-2.57,11.27-7.44,19.18.36,3.49,1.81,12.28.01,14.79-1.04.26-5.08,1.21-5.58,1.78-8.1,9.21-26.22,26.6-32.71,36.11-.4,6.29-.98,13.13-.92,19.38l-8.64.33c-17.23-13.55-35.08-7.55-42.55,12.6-2.24.04-6.24-.02-8.33.48-12.87,3.09-19.4,15.46-20.12,27.8-6.15.34-11.52.58-17.7.58-1.41-18.83-1.01-48.52-1.33-67.77,0-.92.05-6.7.72-6.99,6.05-2.68,12.77-5.12,19.06-7.18,12.37-4.06,22.27-11.41,33.48-17.65,4.06-2.26,14.1-7.29,17.05-9.57Z"/>
        <path class="cls-14" d="M667.02,513.93l171.16.15c26,.02,57.41-.84,83.09.13-14.09,4.18-72.89,20.87-79.78,28.86-.47,2.54-.08,3.67,1.07,6.13-5.05,1.22-16.97.74-22.51.83-24.58.39-49.14-1.69-73.67-2.1l-44.71-.77c-3.69-.07-14.68.48-17.26-1-3.34-12.72-6.96-16.79-19.38-20.68.83-3.92,1.69-7.54,1.99-11.54Z"/>
        <path class="cls-3" d="M732.38,527.47c28.89-1.78,58.4.07,87.39-.35,4.09-.06,10.64-.64,13.71,2.35-.4,1.91-.97,2.04-2.45,3.24-12.55.72-94.06,2.54-100.45-.45l-.53-1.6c.6-2.04.55-2.04,2.33-3.18Z"/>
        <path class="cls-14" d="M371.1,514.15c38.25-.93,79.76.47,118.11-.01,10.32-.13,120.4-.44,122.17.84.47,2.24.56,2.36-.08,4.48-7.07,2.36-32.56-3.24-14.67,19.93,1.42,1.84,5.67,4.47,7.72,5.86-7.78,3.09-70.76,1.24-83.33,1.93-3.21.18-10.53-.6-12.9.41l-.18,1.41c-1.52-4.82-2.98-7.28-6.45-10.73-7.05-7.02-8.81.42-14.98.42-.51-.59-1.62-1.74-1.98-2.28-5.68-8.53-17.5-3.35-23.11,2.58-3.61,3.82-4.18,5.63-5.68,10.31-8.49.69-17.05.36-25.58.42l-44.01.35c24.25-15.05,4.51-25.39-13.38-28.08l-1.66-7.85Z"/>
        <path class="cls-21" d="M386.14,550.07l44.01-.35c8.54-.05,17.1.27,25.58-.42-.19,3.29-.41,6.43-.35,9.73-19.56-7.43-25.19-1.72-21.07,18.2-5.16.08-15.04.31-17.97,4.68-11.42,17.07,13.56,30.94,24.89,34.37-7.09,3.91-14.25,8.05-16.79,16.29-2.13,6.92,1.13,13.66,6.54,17.9-6.81,3.07-16.22,8.62-11.43,17.74,2.85,5.42,10.84,8.87,16.17,11.67-11.96.33-24.95.11-37,.1,5.01-25.53,8.89-47.01,3.76-73.05-.76-3.86-1.51-7.5-4.76-9.7-2.08-.05-3.37.15-4.99,1.62-16.31,14.74-19.83,42.62-21.78,62.43-4.29-11.01-12.58-33.8-18.05-43.13,4.29-10.18,4.81-13.65,2.97-24.46,7.31-.63,17.37-.78,23.39-5.22,10.96-8.09,3.22-22.28-3.17-30.23,3.29-3.24,6.02-5.91,10.04-8.18Z"/>
        <path class="cls-21" d="M604.35,545.26c1.67,1,3.74,2.15,5.33,3.21-4.54,12.89-8.36,29.58,12.26,26.3-4.76,17.18-11.29,40.35-13.2,57.74-2.79-12.03-3.97-24.86-7.47-36.73-2.83-9.63-14.06-44.4-24.9-44.95-21.01,9.07-2.23,71.11,2.22,88.98-14.91-.02-21.02,2.08-35.07,7.98-2.81-13.85-5.77-19.42-16.4-29.32,18.53-2.34,37.08-23.53,16.57-36.24,4.17-15.83-1.35-32.32-18.88-19.72-.54.39-7.05-5.19-8.44-4.54-2.36.52-5.61,1.25-7.97,1.8-.33-3.84-.2-7.17-.47-10.76l.18-1.41c2.37-1.01,9.69-.23,12.9-.41,12.57-.7,75.56,1.15,83.33-1.93Z"/>
        <path class="cls-8" d="M287.18,679.99c-3.73-1.13-11.91-3.43-14.65-6.12l.27-1.2c4.89-2.55,10.04-1.95,14.43-4.42l.31-1.09c-2.31-2.27-13.21-5.94-17-7.57-12.05-5.15-40.25-18.45-39.72-33.35,2.33-2.08,5.68-1.92,8.72-1.67,22.19,1.87,41.08,7.23,55.36,25.24-.68-3.13-3.1-12.19-2.37-14.88.92-1.02,1.66-2.11,3.41-1.96,17.9,1.49,32.65,16,43.71,28.9,4.22,4.92,11.39,12.93,14.15,18.12h-13.13s-4.89-.04-4.89-.04c-15.79.38-32.75.17-48.59.02Z"/>
        <path class="cls-24" d="M247.46,633.16c20.4,5.7,34.12,11.7,52.17,22.88,9.45,5.85,34.96,14.65,41.02,23.96l-4.89-.03c-2.74-3.07-36.73-15.85-44.16-20.73-13.79-9.06-30.54-15.56-44.15-26.07Z"/>
        <path class="cls-8" d="M617.29,679.98c11.71-16.03,32.87-35.89,50.2-45.81,7.71-4.41,39.88-12.04,48.49-8.52,1.9,3.23-3.84,7.95-5.83,10.43-16.76,20.9-46.95,27.79-66.28,43.93-3.25.15-7.63.01-10.97.01h-8.49s-7.12-.05-7.12-.05Z"/>
        <path class="cls-24" d="M624.42,680.04c20.87-24.38,44.28-41.12,76.6-46.52-10.26,7.43-64.99,37-68.12,46.51h-8.49Z"/>
        <path class="cls-8" d="M576.17,556.9c18.32,21.41,24.67,58.26,27.11,85.61,1.4,9.06,3.91,29.34,6.03,37.49l-6.77.18c-1.36.26-6.92-.06-8.98-.07-3.72-20.61-9.05-41.02-14.93-61.11-5.81-19.86-9.51-42.07-2.47-62.11Z"/>
        <path class="cls-24" d="M580.46,577.21c7.15,10.96,9.28,22.03,12.64,34.26,1.92,6.99,5.09,32.14,9.73,36.17l.45-5.13c1.4,9.06,3.91,29.34,6.03,37.49l-6.77.18c-.08-6.55-5.49-22.86-7.54-29.75-7.36-24.77-14.84-47.15-14.55-73.23Z"/>
        <path class="cls-6" d="M1270.57,372.97c3.08,10.85,4.98,57.39,4.03,69.58-3.7-.92-6.42-1.06-10.2-1.38-6.67-12.28-13.67-16.08-27.97-12.41-8.48,2.18-12.75,11.76-16.68,18.93-2.58-1.39-2.49-7.65-2.4-10.35.77-23.2-1.13-35.35-8.38-57.05l.5-.22c2.37,2.26,3.19,11.08,5.88,14.65,5.12.03,13.07,6.91,19.61,8.61,6.16,1.61,9.25,1.6,15.61,2.37l7.75,7.54h7.23c-.62-11.39.01-14.95,6.24-23.75.85-1.2-3.06-12.94-1.22-16.53Z"/>
        <path class="cls-8" d="M395.56,603.19c6.04,32.97,1.23,45.45-2.79,76.82l-6.23.04-11.22.02.73-1c.22-24.32,1.4-57.17,19.51-75.88Z"/>
        <path class="cls-24" d="M394.01,619.98c-1.9,16.01-3.45,45.88-7.47,60.07l-11.22.02.73-1c1.41-.75,5.24-2.26,5.42-3.78,2.29-18.74,5.21-37.7,12.54-55.31Z"/>
        <path class="cls-7" d="M516.67,679.98c7.12-10.53,41.41-39.21,58.55-32.47,1.3.51,1.3,1.74,1.58,3.04-1.82,8.67-19.57,23.72-26.65,29.5l-33.48-.07Z"/>
        <path class="cls-14" d="M234.1,514.2c19.09-.13,39.8-.53,58.82-.03-2.57,6.42-3.64,9.53-4.29,16.41-9.81-2.5-30.11-7.06-33.06,7.14-5.49.27-12.98.09-18.62.13-1.17-7.85-1.97-15.77-2.83-23.66Z"/>
        <path class="cls-8" d="M446.69,656.01l3.5,5.98c4.94,4.39,6.13,6.03,12.84,5.81,2.17-.48,2.91-1.06,4.94.29,4.17,2.76,8.51,8.11,11.88,11.89-10.85.07-21.84.25-32.68-.06-8.71-6.75-14.25-6.09-25.09-16.51,7.78-6.51,14.76-6.29,24.61-7.4Z"/>
        <path class="cls-24" d="M463.02,667.81l-2.14.74c-2.1,2.41.45.01.63,2.84-6.06,1.98-27.04-4.76-28.63-10.01,3.93-3,13.14.15,17.31.62,4.94,4.39,6.13,6.03,12.84,5.81Z"/>
        <path class="cls-21" d="M582.82,656.97l5.93,23.04h-30.22c9.2-8.36,15.79-13.92,24.29-23.04Z"/>
        <path class="cls-24" d="M363.19,680.03l.02-.8c.3-17.13-12.97-42.18-13.64-56.67l.51-.36c8.38,18.44,14.49,39.07,22.79,57.76l-9.67.07Z"/>
        <path class="cls-21" d="M484.43,647.06c1.09,8.86,1.81,25.65,3.77,32.9l-.88.04c-4.95-5.26-10.61-11.53-15.74-16.5,6.74-6.5,8.33-8.32,12.85-16.44Z"/>
        <path class="cls-21" d="M521.39,657.75l7.02,2.09c-5.73,4.38-15.39,13.88-18.69,20.16l-6.52-.03c-.38-3.58-1.2-7.9-.12-11.18,4.73-4.49,9.77,3.81,18.3-11.03Z"/>
        <path class="cls-8" d="M490.44,656.9c1.85,1.92,4.33,4.66,6.29,6.34.17,5.75.36,11.07.81,16.82l-5.55-.04c-.85-7.85-1.17-15.23-1.55-23.12Z"/>
        <path class="cls-19" d="M1073.8,282.5c3.01-.55,7.71.05,10.84.46,23.21,3.02,46.97,14.04,65.66,27.97-7.81.04-19.18-.28-26.7.18l.1.93,27.52.1c9.07,5.68,17.09,15.43,24.14,23.58-9.72-2.2-31.06-2.48-41.81-3.84-.46.29-.93.57-1.39.85l.51.05c4.83-.4,8.84.72,13.57,1.04,9.15.62,19.68,1.9,28.84,1.75,7.36,8.19,11.6,13.67,17.17,23.3h-1.02c-10.53.03-21.23-2.18-31.65-2.57-6.38-.24-17.75-1-23.81-.44-.82-.85,50.95,3.96,55.85,4.04h.98c5.3,9.54,7.66,15.43,11.6,25.62-5.53-.79-38.8-4.51-42.86-3.69l.04.13c3.07,1.05,9.58.83,13.22,1.25,9.71,1.11,20.05,1.74,29.66,3.35,3.06,10.29,4.72,16.76,5.98,27.39-15.88-1.08-31.74-2.61-47.62-3.69-2.42-.17-5.34-.22-7.65-.69-6.48-.17-20.66-.06-26.28-1.1-1.56-.56-1.87-.35-3.51-.1-.9.16-2.12.36-3.03.36-43.38-.07-86.81-1.75-130.17-.17-2.93.11-11.01,1.17-12.91-.55-2.62-5.44.25-17.67-.22-24.84-.59,4.33-1.88,21.93-3.21,24.29l-.65,1.02c-2.38,1.03-52.98,2.5-58.53,2.38,1.31-9.6,3.21-17.13,5.72-26.41,2.73-.14,5.31-.35,8.03-.59l-.13-.92c-2.38.04-5.22.38-7.63.59,1.54-4.77,7.87-21.74,11.41-24.49l-.04-.96c3.6-6.23,10.99-19.17,16.31-22.95l1-1.71c6.56-7.61,12.54-13.34,20.39-19.67l1.68-1.48c10.63-8.82,51.64-30.79,64.66-28.71l2.2,1.93.04.63c.05.73-.01.52.13.81,12.54-5.1,20.41-7.78,32.69.02l.87-4.47Z"/>
        <path class="cls-15" d="M1132.67,332.8c4.83-.4,8.84.72,13.57,1.04,9.15.62,19.68,1.9,28.84,1.75,7.36,8.19,11.6,13.67,17.17,23.3h-1.02c-10.53.03-21.23-2.18-31.65-2.57-6.38-.24-17.75-1-23.81-.44-.82-.85,50.95,3.96,55.85,4.04h.98c5.3,9.54,7.66,15.43,11.6,25.62-5.53-.79-38.8-4.51-42.86-3.69l.04.13c3.07,1.05,9.58.83,13.22,1.25,9.71,1.11,20.05,1.74,29.66,3.35,3.06,10.29,4.72,16.76,5.98,27.39-15.88-1.08-31.74-2.61-47.62-3.69-2.42-.17-5.34-.22-7.65-.69-.8-9.88-1.54-17.79-3.94-27.47-3.04.13-5.5.12-8.52.05l.32-.46-.23-.65-4.28-.51c-3,.31-9.75.82-12.32,1.58-1.75-8.45-3.64-17.1-5.15-25.58l1.84-.34-2.58-.78c-2.08-7.17-4.42-16.08-7.23-22.81,4.55.46,14.78.7,19.28.14l.51.05Z"/>
        <path class="cls-4" d="M1120.85,356.55c4.58,1,17.16.65,22.45.63,2.18,7.74,4.4,15.23,6.78,22.9-2.86.05-9.24.03-11.76.46-3,.31-9.75.82-12.32,1.58-1.75-8.45-3.64-17.1-5.15-25.58Z"/>
        <path class="cls-4" d="M1132.16,332.75l.51.05c4.62,7.84,7.51,13.35,10.54,22.15-4.08.02-19.99-.13-23.1.47-2.08-7.17-4.42-16.08-7.23-22.81,4.55.46,14.78.7,19.28.14Z"/>
        <path class="cls-4" d="M981.06,381.43l131.07.75c2.11.11,8.94.2,10.51.86-.11,4.34,1.63,20.95,2.54,25.35-.9.16-2.12.36-3.03.36-43.38-.07-86.81-1.75-130.17-.17-2.93.11-11.01,1.17-12.91-.55.16-9.45.82-17.27,1.99-26.6Z"/>
        <path class="cls-4" d="M1040.24,286.95c12.54-5.1,20.41-7.78,32.69.02,9.34,6.94,16.02,12.26,23.41,21.51l1.74,2.24c3.53,6.17,7.77,13.71,10.51,20.23-12.14-.15-24.74-.49-36.84-.06-17.13-.94-34.78-1.66-51.93-1.01-7.41.28-14.81.71-22.23.87,3.31-5.42,9.39-15.57,13.74-19.95l1.03-1.49c7.55-10.51,12.45-12.52,22.1-19.47,2.63-.96,3.38-1.4,5.78-2.89Z"/>
        <path class="cls-4" d="M1040.24,286.95c12.54-5.1,20.41-7.78,32.69.02,9.34,6.94,16.02,12.26,23.41,21.51-1.58.63-1.63.69-3.38.7l-80.6.12c7.55-10.51,12.45-12.52,22.1-19.47,2.63-.96,3.38-1.4,5.78-2.89Z"/>
        <path class="cls-22" d="M1096.34,308.49l1.74,2.24c-5.84.2-14.26.59-19.92.11-22.53-1.89-44.27.17-66.83-.04l1.03-1.49,80.6-.12c1.75,0,1.8-.07,3.38-.7Z"/>
        <path class="cls-4" d="M930.22,383.88c16.44-1.29,30.92-1.71,47.32-1.83-.85,6.9-2.32,18.5-1.9,25.43l-.65,1.02c-2.38,1.03-52.98,2.5-58.53,2.38,1.31-9.6,3.21-17.13,5.72-26.41,2.73-.14,5.31-.35,8.03-.59Z"/>
        <path class="cls-4" d="M933.87,359.05c15.33.46,33.67-1.87,49.13-1.85-1.96,7.18-4.43,16.06-5.27,23.47-9.86,0-38.62.49-47.64,2.28-2.38.04-5.22.38-7.63.59,1.54-4.77,7.87-21.74,11.41-24.49Z"/>
        <path class="cls-4" d="M950.14,335.14c14.53-.18,29.66-2.66,42.89-2.6-1.88,4.01-7.5,15.3-7.54,19.21-.86,1.8-1.24,3.64-2.95,3.85-15.49,1.84-33.31,1.37-48.71,2.49,3.6-6.23,10.99-19.17,16.31-22.95Z"/>
        <path class="cls-15" d="M1073.8,282.5c3.01-.55,7.71.05,10.84.46,23.21,3.02,46.97,14.04,65.66,27.97-7.81.04-19.18-.28-26.7.18-4.27-.2-19.32-.58-22.15-1.4-6.49-9.61-14.2-17.55-23.53-24.39-1.9-.68-2.61-1.51-4.12-2.82Z"/>
        <path class="cls-4" d="M1077.92,285.33c8.64-1.17,27.05,18.88,33.7,23.86-2.98.03-7.4-.14-10.17.53-6.49-9.61-14.2-17.55-23.53-24.39Z"/>
        <path class="cls-15" d="M1115.94,311.65c2.63.1,5.14.18,7.76.4l27.52.1c9.07,5.68,17.09,15.43,24.14,23.58-9.72-2.2-31.06-2.48-41.81-3.84-.46.29-.93.57-1.39.85-4.5.56-14.73.32-19.28-.14,2.84-.51,3.36-.53,5.92-1.74,2.06-.64,9.46-.29,12.07-.25-3.03-4.37-10.96-16.12-14.93-18.97Z"/>
        <path class="cls-4" d="M971.53,313.77c10.94-1.58,23.08-1.29,34.46-2.56-4.68,6.59-8.08,12.57-12.13,19.57-5.87.62-39.86,4.02-42.72,2.66,6.56-7.61,12.54-13.34,20.39-19.67Z"/>
        <path class="cls-4" d="M1126.05,382.83c5.89-.49,10.59-.6,16.46-.66,3.02.07,5.48.08,8.52-.05,2.4,9.68,3.14,17.59,3.94,27.47-6.48-.17-20.66-.06-26.28-1.1-.07-8.23-1.67-17.33-2.64-25.66Z"/>
        <path class="cls-4" d="M973.21,312.29c10.63-8.82,51.64-30.79,64.66-28.71-1.09.83-6.93,4.53-7.01,4.61-9.63,4.72-17.33,13.43-23.87,21.83-8.79,1.18-24.1,1.73-33.78,2.27Z"/>
        <path class="cls-4" d="M1101.63,310.65c5.86,0,8.54.1,14.31,1,3.97,2.85,11.9,14.61,14.93,18.97-2.61-.05-10.01-.4-12.07.25l-4.25.09c-3.58-1.55-8.88-14.7-12.92-20.31Z"/>
        <path class="cls-4" d="M1024.24,354.24c9.47,0,19.17.24,28.6.05,21.25-.42,42.27,2.07,63.47,2.32,1.95,7.51,4.76,17.23,5.63,24.7l-10.88-.29c-13.62-.2-27.07-1.31-40.42-1.49-29.8-.4-59.62-.09-89.42.61,1.46-8.14,3.45-15.49,5.55-23.5,11.7-.64,26-1.09,37.47-2.4Z"/>
        <path class="cls-4" d="M997.06,332.38c6.18-1.12,12.19-.97,18.45-1.12,18.73-.45,37.31.27,56.06.08,12.29.96,25.04,1.07,37.39,1.35,2.83,7.9,4.83,14.21,7.09,22.3-29.24-.86-63.26-3.62-91.97-1.24-12.75-.52-24.69,1.48-36.52,1.16,1.06-4.69,7.27-17.89,9.5-22.53Z"/>
        <path class="cls-8" d="M584.6,414.64c4.39-11.27,13.76-20.27,26.92-15.16,5.73,2.22,9.01,7.03,12.64,11.76,18.11-15.73,18.09.76,17.63,15.25,11.1.17,18.23-1.42,20.11,12.13,20.74-5.25,35.29,1.77,44.06,21.64,5-.66,7.5-.98,12.49-.87,4.35,2.53,7.02,4.21,11.06,7.18l7.79-.24c.46,4.21.27,8.69,3.31,11.35l1.6-.07c1.89-2.64.19-8.21,2.18-11.51,9.84-16.39,28.07-5.39,37.82,2.72,7.72-14.51,15.75-13.01,30.32-10.53,6.1-17.87,17.81-14.43,32.07-9.32,5.67-17.93,11.98-23.49,31.36-21.61,7.23-18.42,9.91-35.01,36.05-26.33-2.72,22.56-3.6,31.31-.17,54.43,2.92,20.29,6.35,33.72,15.23,52.03-22.23.72-46.4.29-68.74.29l-113.95.07-52.41-.02c-7.33,0-15.68.32-22.94-.26-4.15-.34-4.01-6.59-8.59-7.62-5.95-1.34-12.39,1.42-17.39,3.99-10.73-22.1-23.82-15.83-31.48,3.73-10.34.08-20.57.24-30.91-.22,3.88-16.51,1.37-28.26-15.8-34.41-2.37-4.49-3.49-6.14-6.58-10.2-.1-5.21-2.75-18.37.25-22.02h3.26c-1.55-34.75,14.7-21.45,22.82-26.17Z"/>
        <path class="cls-17" d="M584.6,414.64c4.39-11.27,13.76-20.27,26.92-15.16,5.73,2.22,9.01,7.03,12.64,11.76,18.11-15.73,18.09.76,17.63,15.25,11.1.17,18.23-1.42,20.11,12.13,20.74-5.25,35.29,1.77,44.06,21.64,5-.66,7.5-.98,12.49-.87,4.35,2.53,7.02,4.21,11.06,7.18l7.79-.24c.46,4.21.27,8.69,3.31,11.35l1.6-.07c1.89-2.64.19-8.21,2.18-11.51,9.84-16.39,28.07-5.39,37.82,2.72,7.72-14.51,15.75-13.01,30.32-10.53,6.1-17.87,17.81-14.43,32.07-9.32,5.67-17.93,11.98-23.49,31.36-21.61,7.23-18.42,9.91-35.01,36.05-26.33-2.72,22.56-3.6,31.31-.17,54.43-15.08.12-27.85,3.14-38.28,14.48-13-12.87-36.96-8.61-48.23,5.92-2.5,3.22-4.73,9.66-7.9,14.26-21.87-20.77-59.7-12.57-81.76,3.3-13.41-10.97-15.33-12.63-32.39-14.54-17.32-15.92-14.66-9.73-35.7-14.44-13.72-3.07-11.45-9.63-29.57-5.89-2.35-34.85-17.36-49.73-52.95-43.45l-.46-.46Z"/>
        <path class="cls-17" d="M584.6,414.64l.46.46c-4.46,6.88-3.35,16.07-1.74,23.57l1.08,4.88c-6.36-1.07-18.24-1.74-22.61-2.76-1.55-34.74,14.7-21.44,22.82-26.15Z"/>
        <path class="cls-18" d="M335.96,401.67c25.05.64,50.24.21,75.3,0,.38,12.41,1.19,102.46-.87,105.8-14.95.05-62.48,2.32-75.07-2.55-1.86-11.66-.18-25.07,0-36.97l.63-66.27Z"/>
        <path class="cls-16" d="M351.78,448.11c.82.18,1.48.43,2.23.83,1.77.94,2.35,2.79,2.74,4.63,1.01,4.67.71,11.4-1.92,15.5-.49-.08-1.18-.18-1.63-.34-1.67-.61-2.32-1.62-2.84-3.27-1.53-4.86-1.05-12.91,1.41-17.34Z"/>
        <path class="cls-16" d="M388.35,448.73c.76.29,1.52.58,2.23,1,1.5.89,2.16,2.42,2.57,4.06,1.1,4.4.89,11.67-1.51,15.61-1.12-.27-2.21-.65-3.31-1.01-.7-.8-1.11-1.42-1.44-2.45-1.65-5.23-.94-12.3,1.46-17.2Z"/>
        <path class="cls-16" d="M370.84,448.14c1.15.5,2.14,1.21,3.17,1.91,1.3,1.97,1.67,4.08,1.95,6.38.45,3.73.06,9.62-2.3,12.67-1.2-.28-2.06-.7-3.13-1.31-.86-1.25-1.21-2.22-1.48-3.74-.79-4.47-.89-12.07,1.79-15.93Z"/>
        <path class="cls-16" d="M371.12,415.34l2.11.66c1.1,1.05,1.74,1.77,2.15,3.27,1.13,4.05.99,10.92-1.23,14.58l-2.89-.7c-1.71-1.53-2.13-2.85-2.48-5.1-.61-3.94-.02-9.4,2.32-12.72Z"/>
        <path class="cls-16" d="M351.65,415.32c1.01.14,1.94.44,2.92.71,1.31,1.32,1.91,2.27,2.3,4.11.91,4.22.18,9.56-2.14,13.21-.53-.08-1.65-.15-2.15-.43-1.34-.72-1.74-1.61-2.21-2.96-1.45-4.17-.68-10.73,1.28-14.65Z"/>
        <path class="cls-16" d="M388.34,415.15c.6.08.91.1,1.52.31,1.61.58,2.49,1.79,3.02,3.36,1.43,4.23.74,11.03-1.25,14.96-.62-.15-1.69-.32-2.28-.65-1.37-.77-1.83-1.51-2.37-2.91-1.72-4.44-.48-10.85,1.37-15.08Z"/>
        <path class="cls-15" d="M841.41,330.38c3.37,2.07,6.72,10.01,8.9,13.71,6.76,11.48,13.84,22.46,22.81,32.33-19.6.26-39.25-.29-58.86-.4l-95.27-.11-10.23-.03c-.17-3.53.16-8.42-.92-11.75-.57-1.77-2.24-2.19-3.82-2.97-5.45-2.69-15.85-22.55-18.5-28.73,34.37-1.65,69.22-1,103.62-.87,15.7.06,37.27,1.91,52.27-1.19Z"/>
        <path class="cls-8" d="M283.98,432.73c4.51-16.84,7.17-20.09,25.01-21.03,6.45,2.62,5.03,4.44,10.91,7.02,4.19,1.83,6.59-.42,9.15,1.77.87,3.31.42,7.59.25,11.12-.4,25.3-.33,50.72-.92,75.98l-.94.45.87.64-.42,1.29c-1.7-7.88-3.51-21.65-15.18-18.54-8.17,2.18-13.07,9.93-17.78,16.38l-55.67.02c-.17-8.11-.03-38.93-.99-44.62l.26-2.53c3.13-2.48,12.7-1.36,17.41-1.3.57-19.43,7.33-29.16,28.03-26.67Z"/>
        <path class="cls-17" d="M283.98,432.73c4.51-16.84,7.17-20.09,25.01-21.03,6.45,2.62,5.03,4.44,10.91,7.02,4.19,1.83,6.59-.42,9.15,1.77.87,3.31.42,7.59.25,11.12-15.73-.06-25.52,8.14-30.86,22.73-16.41-.45-26.61,1.23-38.44,13.69-6.65.04-14.42.86-20.14-2.28-.88-1.21-.94-1.19-1.58-2.52l.26-2.53c3.13-2.48,12.7-1.36,17.41-1.3.57-19.43,7.33-29.16,28.03-26.67Z"/>
        <path class="cls-18" d="M418.26,418.05c27.11-.14,54.55-.42,81.63.18,7.15,5.67,14.32,12.39,21.14,18.54,1.44,1.96.61,24.85.74,29.47-5.81,8.22-7.36,10.48-10.78,20.06-8.47-12.86-19.83-15.01-29.75-2.29-.74,7.65.16,16.33-.84,22.68-2.03,1.11-.91.8-3.59.43-2.77-2.57-2.34-3.36-2.74-7.16-.68-6.54,2.39-15.07-3.14-20.01-6.57-5.86-16.09-5.61-22.17.67-6.32,6.91-.19,18.58-3.49,26.46-.2.48-4.44.15-5.12.03-4.07-4.97,5.3-28.38-11.97-31.94-3.96-.82-7.83,1.04-11.24,3,.57-13.41,1.27-28.3,1.21-41.68l.12-18.43Z"/>
        <path class="cls-4" d="M418.26,418.05c27.11-.14,54.55-.42,81.63.18,7.15,5.67,14.32,12.39,21.14,18.54-15.38-.69-32.22.24-47.72-.02-7.01-.12-14.61.44-21.55-.3h-2.67c-9.81.57-20.89,0-30.94.03l.12-18.43Z"/>
        <path class="cls-16" d="M449.09,436.48c-2.48-3.91-4.01-7.57-1.09-11.55,2.44-1.07,1.21-.95,3.83-.33,2.99,3.14,1.72,8.36-.07,11.87h-2.67Z"/>
        <path class="cls-16" d="M493.11,423.07c1.8.51,3.21.56,4.16,2.39,1.66,3.18.41,7.71-.77,10.84l-2.51-.63c-.78-.8-1.55-1.56-1.98-2.61-1.3-3.19-.28-7.02,1.1-9.98Z"/>
        <path class="cls-19" d="M471.61,423.19c2.01,1.06,3.25,1.56,4.01,3.88,1.01,3.12.05,6.38-1.51,9.12-1.4-.1-2.13-.4-3.34-1.09-.75-1.13-1.32-2.06-1.49-3.43-.37-3.05.53-6.03,2.33-8.46Z"/>
        <path class="cls-16" d="M426.03,422.49c1.91.76,3.36,1.27,4.16,3.38,1.18,3.11.08,7.42-1.21,10.32-1.83-.58-3-.69-3.91-2.59-1.51-3.14-.32-8.08.96-11.11Z"/>
        <path class="cls-16" d="M493.24,440.91c2.08.67,3.5,1.29,4.48,3.36,1.67,3.52.36,8.68-.92,12.13-.69-.06-1.16-.07-1.85-.26-1.61-.43-2.59-1.7-3.19-3.18-1.42-3.52.07-8.73,1.48-12.04Z"/>
        <path class="cls-16" d="M471.81,440.99c1.87.91,2.98,1.62,3.72,3.64,1.31,3.59.37,7.43-1.21,10.77-1.65-.15-2.36-.26-3.76-1.26-.67-1.24-1.29-2.47-1.42-3.89-.3-3.26.63-6.73,2.67-9.27Z"/>
        <path class="cls-16" d="M426.08,440.94c1.78.85,2.98,1.2,3.85,3.13,1.57,3.46.5,8.86-.85,12.26l-2.71-.9c-.76-.84-1.28-1.51-1.6-2.62-1.02-3.56-.37-8.61,1.31-11.86Z"/>
        <path class="cls-16" d="M448.92,440.92c2.09,1.02,3.35,1.53,4.11,3.93,1.09,3.47.19,7.71-1.53,10.8-.36-.1-.74-.17-1.09-.3-1.8-.63-2.5-1.29-3.17-3.08-1.3-3.48.17-8.18,1.68-11.36Z"/>
        <path class="cls-4" d="M656.11,304.13c6.33-.66,16.21-.17,22.68.18.35,6.21,1.24,17.6.75,23.6,1.41,13.25,13.84,32.6,22.91,42.06-.67,23.98-.05,49.09-.12,73.24-11.77-10.49-16.39-13.52-32.92-13.18l.14-44.07c.01-4.83.28-18.49-.48-22.76-1-2.7-1.05-3.01-2.78-5.24l-1.31-.14c-2.09,4.16-1.15,58.05-1.15,65.74-5.98-2.01-7.73-2.58-14.06-3.49-.86-10.77-.94-14.8-10.24-21.41-.19-35.21-3.56-38.31,16.86-67.54-.33-9.39-.46-17.61-.28-26.99Z"/>
        <path class="cls-18" d="M656.11,304.13l.81.11c4.71.64,8.33-.51,11.55.87,1.5,2.01.97,2.12,1.08,5.23-.05,7.18-.26,15.18-.04,22.29.04,5.38.45,26.7-.43,30.57-1-2.7-1.05-3.01-2.78-5.24l-1.31-.14c-2.09,4.16-1.15,58.05-1.15,65.74-5.98-2.01-7.73-2.58-14.06-3.49-.86-10.77-.94-14.8-10.24-21.41-.19-35.21-3.56-38.31,16.86-67.54-.33-9.39-.46-17.61-.28-26.99Z"/>
        <path class="cls-16" d="M659.12,310.59c1.92.35,2.91.62,4.38,1.92,3.05,5.91,1.6,14.04,1.25,20.47-1.83-.18-3.21-.25-4.8-1.29-3-5.35-1.99-15.24-.83-21.11Z"/>
        <path class="cls-16" d="M669.54,310.34c2.6-.25,3.85-.71,5.92.59,3.47,5,1.05,11.89,1.99,18.77-1.94,3.92-3.81,3.07-7.96,2.93-.22-7.11,0-15.11.04-22.29Z"/>
        <path class="cls-16" d="M683.21,380.22c.5.01.63,0,1.19.11,1.39.27,2.37.54,3.19,1.75,3.08,4.52,1.6,24.25.58,29.79-1.41-.08-3.01-.07-4.33-.6-1.25-.5-1.72-.87-2.09-2.19-1.47-5.21-.72-24.21,1.47-28.87Z"/>
        <path class="cls-8" d="M1225.57,456.56c1.74-11.98,6.7-24.23,22.6-23.22,6.61.42,10.22,7.08,12.05,12.98,5.77-.04,12.11-.08,16.24,4.54,8.15,9.12,2.19,19.14-2.52,27.1,18.55,5.34,24.7,7.7,22.91,29.12-28.68.69-63.01.71-91.82.47,3.26-9.86,5.79-21.15,8.18-31.32,1.17-7.03,2.33-15.06,3.98-21.9l8.38,2.23Z"/>
        <path class="cls-17" d="M1225.57,456.56c1.74-11.98,6.7-24.23,22.6-23.22,6.61.42,10.22,7.08,12.05,12.98,5.77-.04,12.11-.08,16.24,4.54,8.15,9.12,2.19,19.14-2.52,27.1-.57,1.4-1.18,2.1-2.07,3.3-.41.04-.82.09-1.23.13-2.75-6.48-6.22-12.48-12.09-16.57-3.23-2.32-7.29-4.12-11.34-3.24-2.87.63-5.11,2.43-7.37,4.21-2.09,1.65-3.53,3.85-4.97,6.08-2.51.56-3.6.57-6.2.7-2.96.1-6.23-.22-8.52,1.35l-.2,2.2-1.27.63-5.47-.53c1.17-7.03,2.33-15.06,3.98-21.9l8.38,2.23Z"/>
        <path class="cls-8" d="M1218.68,476.75l1.27-.63.2-2.2c2.29-1.57,5.56-1.26,8.52-1.35.75,3.17.82,3.97,2.74,6.54-4.23-1.02-8.77-1.13-12.73-2.36Z"/>
        <path class="cls-17" d="M1228.67,472.58c2.6-.13,3.69-.14,6.2-.7-.74,1.74-2.35,6.03-3.46,7.24-1.92-2.58-1.99-3.38-2.74-6.54Z"/>
        <path class="cls-10" d="M296.09,532.32c2.11,3.83,12.5,18.39,15.79,20.09v.39s-.1.93-.1.93c-2.46,2.22-4.44,7.71-5.3,10.91l.77,2.95c3.51,2.94,9.21,6.39,13.82,4.67l2.79-.2,1.01.19c3.94.01,5.06-.31,8.36-2.32l1.38,1.14-1.83.88c1.97,3.05,6.5,4.95,7.99,6.81l-.43,1.2c1.32,2.67,5.15,7.87,5.45,8.59,6.1,8.08,6.21,20.82-.81,28.39-1.73,1.84-6.22,3.74-8.71,4.96-14.38-5.21-24.78-12.57-26.54-28.51-1.53-1.47-1.66-1.77-3.8-2.03-1.24,3.33-2.53,5.06-5.68,6.91-5.61,3.29-21.41,7.96-27.5,6.39-8-6.13,2.49-29.79,8.14-36.62.68-.57,1.52-1.44,2.18-2.08l-.35-1.34c-6.05-2.87-21.63-21.31-19.23-27.99,5.96-5.93,24.82.04,31.26,4.52l1.35-.41c.85-1.81.15-6,0-8.4Z"/>
        <path class="cls-10" d="M333.22,569.92l1.38,1.14-1.83.88c1.97,3.05,6.5,4.95,7.99,6.81l-.43,1.2c1.32,2.67,5.15,7.87,5.45,8.59,6.1,8.08,6.21,20.82-.81,28.39-1.73,1.84-6.22,3.74-8.71,4.96-14.38-5.21-24.78-12.57-26.54-28.51.09-8.41,1.99-13.1,6.13-20.26,4.48,7.11,5.2,10.47,8.82,17.58-.56-5.22-1.55-13.64-.82-18.65l1.01.19c3.94.01,5.06-.31,8.36-2.32Z"/>
        <path class="cls-12" d="M333.22,569.92l1.38,1.14-1.83.88c1.97,3.05,6.5,4.95,7.99,6.81l-.43,1.2c1.32,2.67,5.15,7.87,5.45,8.59,6.1,8.08,6.21,20.82-.81,28.39-1.73,1.84-6.22,3.74-8.71,4.96,10.85-20.86,6.73-35.3-11.39-49.65,3.94.01,5.06-.31,8.36-2.32Z"/>
        <path class="cls-11" d="M345.78,588.53c6.1,8.08,6.21,20.82-.81,28.39-.35-1.9,2.13-7.87,2.53-10.82.86-6.49-1.6-11.55-1.71-17.56Z"/>
        <path class="cls-10" d="M282.71,564.61c-6.05-2.87-21.63-21.31-19.23-27.99,5.96-5.93,24.82.04,31.26,4.52,3.2,3.97,9.81,11.77,11.65,15.9-8.71-2.49-13.38-3.86-22.4-5.04,7.88,3.59,12.52,6.22,19.84,11.29l-9.33.89c-2.16,2.25-4.02,3.82-5.2,6.67l-.34.09c-2.67-1.17-5.31-1.99-8.07-2.92.68-.57,1.52-1.44,2.18-2.08l-.35-1.34Z"/>
        <path class="cls-11" d="M282.71,564.61c4.39.06,7.4-.07,11.79-.43-2.16,2.25-4.02,3.82-5.2,6.67l-.34.09c-2.67-1.17-5.31-1.99-8.07-2.92.68-.57,1.52-1.44,2.18-2.08l-.35-1.34Z"/>
        <path class="cls-12" d="M296.09,532.32c2.11,3.83,12.5,18.39,15.79,20.09v.39s-.1.93-.1.93c-2.46,2.22-4.44,7.71-5.3,10.91l.77,2.95c3.51,2.94,9.21,6.39,13.82,4.67l2.79-.2c-.74,5.01.26,13.43.82,18.65-3.61-7.11-4.33-10.48-8.82-17.58-4.15,7.15-6.04,11.84-6.13,20.26-1.53-1.47-1.66-1.77-3.8-2.03-1.15-6.75,4.56-13.09,4.57-17.47l-1.14-.45c-8.31,2.33-21.81,15.06-28.72,21.15,8.03-12.55,13.41-17.6,25.48-26.07-4.41.5-12.7,1.28-16.82,2.36,1.18-2.85,3.05-4.43,5.2-6.67l9.33-.89c-7.32-5.08-11.96-7.71-19.84-11.29,9.02,1.18,13.69,2.55,22.4,5.04-1.83-4.13-8.45-11.93-11.65-15.9l1.35-.41c.85-1.81.15-6,0-8.4Z"/>
        <path class="cls-26" d="M723.39,381.86c49.98-1.56,100.36-.68,150.36.39-.73,9.2-.53,18.48-.51,27.71-11.42.07-22.86-.31-34.28-.55.11-4.12.38-8.36.13-12.48-.2-3.26-1.08-6.82-3.58-9.04-1.11.03-1.22-.19-2.07.65-4.52,4.48-3.4,14.99-3.3,20.88l-17.42-.07c.05-6.51,1.13-14.95-1.95-20.84-2.11.04-3.76-.24-5.46,1.26-3.82,3.37-2.3,15.43-2.26,20.44-6.57-.2-13.14.04-19.7.2-.06-5.1.45-10.9-.69-15.89-.61-2.67-1.37-4.96-3.77-6.46-1.12.21-1.22.06-2.07.96-4.55,4.87-3.24,15.74-3.12,21.94l-21.26.15c.1-6.03,1.06-14.12-1.75-19.63-.81-1.6-1.36-2.11-3.06-2.57-.49.31-.73.41-1.12.79-4.26,4.12-2.94,15.72-2.84,21.21l-16.06.1c-.26-7.28,1.31-16.95-3.54-23.03l-2.17-.05c-4.86,6.15-3.89,15.75-3.74,23.09l-9.84.2.09-28.99,14.97-.38Z"/>
        <path class="cls-21" d="M471.92,586.1c-4.85-8.72-13.3-27.38-9.5-36.94,6.82-17.17,17.67-10.85,22.5,3.12,1.78-4.01,4.58-9.42,9.38-10.16,13.98,2.59,4.61,24.31,3.03,33.41l-.12.72c-1.54,5.63-2.69,15.49-7.67,18.44-1.9,1.13-5.05,1.44-7.37,2.76l-1.27.11c-5.13,4.86-4.87,6.68-8.93,12.15-.45.61-2.84.62-3.84.66-15.53.58-36.5,2.39-45.67-12.42-11.58-18.71,11.5-15,20.69-12.72-2.42-5.49-6.77-16.28-3.23-21.82,9.38-5.81,22.15,12.17,27.14,18.67l3.78,4.37,1.06-.36Z"/>
        <path class="cls-21" d="M443.17,585.24c-2.42-5.49-6.77-16.28-3.23-21.82,9.38-5.81,22.15,12.17,27.14,18.67-2.64,8.04,3.54,9.31,2.93,15-1.44.69-2.54.45-4.15.36-6.28-3.4-11.95-6.85-18.04-10.57,5.6,7.92,10.98,12.5,20.04,16.26,3.12,1.29,4.63.97,5.03,3.11-1.84,2.38-2.09,2.74-4.74,4.11-15.53.58-36.5,2.39-45.67-12.42-11.58-18.71,11.5-15,20.69-12.72Z"/>
        <path class="cls-3" d="M483.7,557.12c-1.6,11.61-5.24,25.1,3.09,34.77-1.46.52-2.09.31-3.55.02l-.92.83c-.07,1.56-.17,3.15-.14,4.71l-1.27.11c-5.13,4.86-4.87,6.68-8.93,12.15-.45.61-2.84.62-3.84.66,2.65-1.38,2.9-1.73,4.74-4.11-.4-2.14-1.91-1.81-5.03-3.11-9.06-3.76-14.45-8.35-20.04-16.26,6.09,3.72,11.77,7.17,18.04,10.57,1.61.09,2.7.32,4.15-.36.61-5.7-5.57-6.96-2.93-15l3.78,4.37,1.06-.36c2.05,1.81,2.41,2.38,4.95,3.05,1.34-1.16,1.41-3.35,1.51-5.24.59-11.8-.1-16.11,5.31-26.79Z"/>
        <path class="cls-10" d="M486.79,591.9c2.61-4.54,3.53-7.97,5.65-12.61,1.11-2.42,2.43-2.33,4.77-3.03-1.54,5.63-2.69,15.49-7.67,18.44-1.9,1.13-5.05,1.44-7.37,2.76-.03-1.56.07-3.15.14-4.71l.92-.83c1.46.29,2.09.5,3.55-.02Z"/>
        <path class="cls-21" d="M465.82,612.98c3.44-.44,8.43-1.62,11.28.22,4.41,5.54,8.61,5.43,15.11,5.62l2.19.84c5.35,5.82,15.24,16.28,21.13,21.16-4.28-9.55-7.64-13.81-15.02-21.37,2.71-3.99,6.37-.01,10.86-5.26,10.42,5.99,30.81,24.74,23.36,38.1-5.6,4.11-13.22-1.1-17.95-4.63-.02.2-.03.39-.05.59l-.1.98c-.84,9.03-5.99,16.1-15.78,10.27-9.72-5.78-12.53-22.24-14.94-32.66-2.96,8.84-14.37,42.89-30.03,32.69-4.42-2.88-4.64-10.78-4.98-15.74-7.47,1.82-25.98,6.68-19.9-11.96,2.51-7.7,26.27-16.38,34.81-18.85Z"/>
        <path class="cls-10" d="M477.11,613.21c4.41,5.54,8.61,5.43,15.11,5.62-2.17,1.42-7.13,6.77-8.48,6.79-6.81.1-14.48,7.66-19.96,11.67,3.72-5.42,8.77-10.02,12.92-15.43-7.45,4.01-14.35,8.25-21.58,12.65,4.46-4.52,9.44-9.58,14.52-13.35,4.2-2.67,5.22-3.77,7.47-7.95Z"/>
        <path class="cls-3" d="M465.82,612.98c3.44-.44,8.43-1.62,11.28.22-2.25,4.18-3.27,5.28-7.47,7.95l1.9-2.97c-.7-2-3.68-3.66-5.71-5.21Z"/>
        <path class="cls-2" d="M620.72,527.38c-2.44-8.31-6.31-24.78,4.83-30.95,7.97-4.42,13.12,11.61,15.1,17.54,2.17-2.64,6.67-6.91,9.95-7.89,17.83-5.38,8.32,17.45,5.78,23.11,1.31.56,1.67.85,3.07,1.01,24.77,4.23,24.72,25.24-8.67,20.39,2.55,5.95,8,18.67,1.75,23.53-9.96,2.89-15.4-11.64-18.42-18.61-3.95,5.5-11.69,15.42-19.38,12.78-6.98-6.09,1.93-18.54,5.93-23.97-7.08-1.01-24.44-6.8-22.6-16.03,4.02-5.49,16.99-2.37,22.67-.92Z"/>
        <path class="cls-16" d="M625.66,528.26c6.98-4.71,10.76-5.55,17.83.06l3.23,3.97v.52c3.48,8.78-.31,14.51-9.33,16.95l-4.1.65c-10.47-3.53-12.05-11.63-7.14-20.87l-.49-1.28Z"/>
        <path class="cls-5" d="M628.13,531.55c7.69-4.68,10.02-4.94,15.87,1.96,1.36,7.77.47,10.98-7,14.68-9.25-3.85-10.73-7.17-8.87-16.64Z"/>
        <path class="cls-6" d="M646.72,532.29c3.98-1.8,6-1.64,9.66-3.09,1.31.56,1.67.85,3.07,1.01l-1.1.98c-.18,5.69-3.43,3.59-3.79,9,3.21,2.84,8.08,1.95,12.93,2.9-7.1.29-14.75.47-20.29,6.08-2.72,2.76-2.47,6.38-5.44,8.45-2.59-1.51-6.63-4.84-8.48-7.21l4.1-.65c9.02-2.45,12.81-8.17,9.33-16.95v-.52Z"/>
        <path class="cls-6" d="M625.66,528.26c.68-2.8,2.4-3.86,4.6-5.86,1.11-3.39-.71-4.74.46-6.79,4.93,3.06,6.84,3.42,12.72,3.95,2.98-1.43,6.22-4.74,8.75-7.09-2.52,4.08-8.47,11.9-8.7,15.85-7.07-5.6-10.85-4.77-17.83-.06Z"/>
        <path class="cls-10" d="M330.16,532.59c12.8-12.13,17.44-14.72,34.08-18.59.83,3.65,2.11,11.24,3.17,14.16,7.18,1,17.89,1.08,22.54,6.81,1.02,5.75-4.21,7.45-8.64,10.15-4.38,4.66-9.2,7.62-12.78,12.9,14.25,15.56,14.37,31.45-11.29,27.95-6.46-.88-11.04-3.84-16.48-7.22-1.49-1.86-6.01-3.77-7.99-6.81l1.83-.88-1.38-1.14-2.6-3.43c.48-1.18,1.32-3.23,1.56-4.19,1.55-6.26.1-5.03-4.71-7.07-.64-1.22-1.21-2.31-1.73-3.29-2.75-8.37.55-11.59,4.43-19.34Z"/>
        <path class="cls-10" d="M335.5,560.58c11.34-7.83,11.35-7.61,25.42-7.04,2.54,1.35,5.13,2.99,7.61,4.48,14.25,15.56,14.37,31.45-11.29,27.95-6.46-.88-11.04-3.84-16.48-7.22-1.49-1.86-6.01-3.77-7.99-6.81l1.83-.88-1.38-1.14-2.6-3.43c8.6-.67,25.88,6.32,34.07,9.91-10.96-8.69-16.09-11.17-29.19-15.82Z"/>
        <path class="cls-12" d="M325.74,551.93l1.64.28c.62.56,1.2,1.13,1.99,1.35,1.73.48,7.35-8.37,8.82-10.05,7.66-8.78,13.82-13.26,23.83-18.6-10.96,8.88-16.57,16.19-25.5,26.95,13.75-5.51,26.49-11.07,41.04-14.06-9.84,4.52-13.85,6.45-22.62,12.32,4.64,1.53,9.56,4.75,13.77,3.1,3.94-4.23,6.97-6.44,12.6-8.1-4.38,4.66-9.2,7.62-12.78,12.9-2.48-1.49-5.07-3.12-7.61-4.48-14.07-.56-14.08-.79-25.42,7.04,13.1,4.65,18.23,7.13,29.19,15.82-8.19-3.59-25.48-10.58-34.07-9.91.48-1.18,1.32-3.23,1.56-4.19,1.55-6.26.1-5.03-4.71-7.07-.64-1.22-1.21-2.31-1.73-3.29Z"/>
        <path class="cls-4" d="M1057.95,458.59c19.49-.11,39.6.61,59.1,1.55-1.2,9.57-2.52,19.27-4.48,28.72-1.37,4.25-3.28,13.82-4.36,18.54l-50.3.04c.09-9.83.02-19.63-.04-29.46l.08-19.38Z"/>
        <path class="cls-15" d="M1057.95,458.59c19.49-.11,39.6.61,59.1,1.55-1.2,9.57-2.52,19.27-4.48,28.72-14.5-3.67-38.93-14.92-53.71-12.54l-.99,1.65.08-19.38Z"/>
        <path class="cls-4" d="M992.01,458.53c17.54-.46,34.41-.69,51.95-.65.39,14.55.86,32.27.25,46.73l-.21,1.94c-3.18,1.72-33.94.9-39.52.87-5.43-11.35-8.19-22.33-10.63-34.55-.77-4.96-1.33-9.35-1.84-14.35Z"/>
        <path class="cls-15" d="M992.01,458.53c17.54-.46,34.41-.69,51.95-.65.39,14.55.86,32.27.25,46.73-.82-5.79-.59-23.27-.63-29.96-10.86-2.25-39.69-4.84-49.73-1.78-.77-4.96-1.33-9.35-1.84-14.35Z"/>
        <path class="cls-18" d="M875.59,299.47l25.68.08c-.71,26.85-.41,53.71-.86,80.57-.07,4.01.07,8.09-.44,12.07-8.42-.16-14.18,4.21-19.65,9.95.01-8.28.16-16.14.45-24.42-.18-4.62-2.22-6.41-5.12-9.96.12-22.74.37-45.57-.05-68.3Z"/>
        <path class="cls-25" d="M880.77,377.73c10.62,13.24,12.26,7.97,19.2,14.46-8.42-.16-14.18,4.21-19.65,9.95.01-8.28.16-16.14.45-24.42Z"/>
        <path class="cls-16" d="M888.11,309c1.03.58,1.98,1.24,2.72,2.17,4.02,5.02,2.95,22.86,2.15,29.32-.33,2.65-1.02,3.01-2.99,4.56-1.33-.27-2.58-.41-3.62-1.36-1.7-1.55-1.89-6.28-2.01-8.5-.42-7.46-1.22-20.53,3.75-26.2Z"/>
        <path class="cls-17" d="M518.3,489.04c2.41-13.61,14.53-30.59,30.87-24.63,6.84,2.5,9.59,9.97,12.09,16.24,16.34-2.01,16.3,16.44,11.16,27.17-15.37.17-30.86-.05-46.14.17-3.77.11-18.53,1.53-19.08-3.94-.74-7.4,4.04-12.98,11.11-15.01Z"/>
        <path class="cls-8" d="M561.26,480.65c16.34-2.01,16.3,16.44,11.16,27.17-15.37.17-30.86-.05-46.14.17,6.88-19.75,11.41-19.36,30.58-24.97,2.16-.63,3.16-.69,4.4-2.38Z"/>
        <path class="cls-4" d="M904.53,299.7c9.86-.15,19.78.31,29.65.52-.32,9.62.33,39.67-2.03,46.83-3.16,9.62-9.65,18.64-13.51,28.19-1.92,5.37-3.38,10.9-4.95,16.38l-8.75-.08c-.59-15.06.04-30.33.06-45.41.02-15.48-.56-30.95-.46-46.43Z"/>
        <path class="cls-16" d="M917.73,308.16c1.55.63,2.62,1.36,3.5,2.8,2.38,3.93,2.82,28.29,1.33,32.67-.38,1.13-.67.97-1.69,1.46-2.03-.05-3.74-.12-5.67-.77-.53-.88-.78-1.59-.96-2.6-1.48-8.6-1.49-26.31,3.49-33.56Z"/>
        <path class="cls-15" d="M791.88,416.15c4.25-.3,8.54-.31,12.8-.42,7.42,7.58,15.04,14.98,22.59,22.43-.2.05-.4.1-.6.14l-1,.21c-20.93,4.62-49.57,2.34-71.53,2.39-14.16-9.82-21.75-9.26-34.2-24.01,23.87-1.29,48.02-.25,71.94-.75Z"/>
        <path class="cls-21" d="M496.57,585.6c3.52-6.06,12.83-22.7,21.22-19.95,2.48,3.16,1.61,6.13,1.17,10.17,5.03-5.01,20.46-20.02,20.77-1.36.07,4.19-3.43,10.66-5.71,14.25,15.6.08,16.11,9.28,5.1,18.2-7.48,6.06-20.17,5.4-29.13,3.23l-4.11.91,5.49,3.15c-4.48,5.25-8.14,1.27-10.86,5.26,7.38,7.56,10.74,11.82,15.02,21.37-5.89-4.88-15.78-15.34-21.13-21.16l1.93-3.75,1.76-2.87c3.86-7.94-1.33-13.32-4.76-20.7l3.24-6.75Z"/>
        <path class="cls-3" d="M496.57,585.6c.76,2.96,1.46,5.86,2.4,8.76,2.61-1.65,4.52-3.18,7.62-3.46l1.68.51c.53,3.73-3.53,5.58-6.37,7.55l7.74,2.96c4.81-1.62,9.91-3.44,14.72-4.93-5.68,4.32-13.76,8.47-17.98,11.89l.2.73,3.41.53-4.11.91,5.49,3.15c-4.48,5.25-8.14,1.27-10.86,5.26,7.38,7.56,10.74,11.82,15.02,21.37-5.89-4.88-15.78-15.34-21.13-21.16l1.93-3.75,1.76-2.87c3.86-7.94-1.33-13.32-4.76-20.7l3.24-6.75Z"/>
        <path class="cls-22" d="M1130.95,461.48c13.64-.08,28.02.75,41.42,3.43-3.15,13.87-7.3,27.13-11.69,40.66l-.78,1.33c-6.37,1.98-29.78.56-37.75.52,3.65-15.2,7.48-30.32,8.8-45.94Z"/>
        <path class="cls-4" d="M1057.9,418.78c-.09-2.72-.58-3.72.63-5.82,12.42-1.3,45.57.67,59.88.76.2,9.35-.08,20.04.35,29.11-3.81-.04-9.71.09-13.27-.56l-47.42-.68c-.25-7.34-.13-15.41-.17-22.8Z"/>
        <path class="cls-15" d="M1057.9,418.78c-.09-2.72-.58-3.72.63-5.82,12.42-1.3,45.57.67,59.88.76.2,9.35-.08,20.04.35,29.11-3.81-.04-9.71.09-13.27-.56,3.7-.24,10.82.69,12.83-1.26-.6-4.52-8.73-8.62-12.19-11.33-15.53-12.18-29.86-9.92-48.23-10.89Z"/>
        <path class="cls-17" d="M866.67,165.07c1.33,7.62,1.74,18.33,2.14,26.11,2.23,16.18,3.14,35.97,4.83,52.52,1.02,10.01,3.23,30.76,3.01,39.59l-6.03,8.18c-5.02,8.33-.79,4.75-2.31,12.88-3.23,2.74-10.35,1.58-14.95,1.37-.31-23.36,4.32-55.38,6.8-78.82,2.18-20.57,4.27-41.26,6.5-61.82Z"/>
        <path class="cls-8" d="M868.82,191.18c2.23,16.18,3.14,35.97,4.83,52.52,1.02,10.01,3.23,30.76,3.01,39.59l-6.03,8.18c-1.26-8.26-1.15-31.29-1.3-40.45-.33-19.3-1.86-40.89-.51-59.84Z"/>
        <path class="cls-4" d="M938.08,461.77c14.62-1.62,24.37-2.52,39.07-2.73l2.32,13.45c2.07,11.22,6.16,24.89,10.69,35.36-9.9.34-18.22.54-28.13.03-4.73-5.49-14.5-24.25-18.2-31.37-2.01-3.39-4.34-10.75-5.75-14.74Z"/>
        <path class="cls-15" d="M938.08,461.77c14.62-1.62,24.37-2.52,39.07-2.73l2.32,13.45c-10.56.66-25.2,1.47-35.64,4.02-2.01-3.39-4.34-10.75-5.75-14.74Z"/>
        <path class="cls-4" d="M366.32,363.61c7.89.15,15.73.48,23.61.98,8.58,9.04,17.26,21.04,22.82,32.15-9.45-.21-18.92-.2-28.37-.28-15.6.09-31.19-.73-46.8-.42,8.93-11.14,18.64-22.33,28.74-32.42Z"/>
        <path class="cls-4" d="M989.96,413.02c17.69-.11,35.7-.38,53.35-.14.17,5.41,1.08,24.24-.15,28.08-2.65.97-4.23.6-7.04.38l-45.53.24c-.36-2.73-.44-5.78-.58-8.55-.96-7.37-.72-12.6-.05-20Z"/>
        <path class="cls-22" d="M989.96,413.02c17.69-.11,35.7-.38,53.35-.14.17,5.41,1.08,24.24-.15,28.08-2.65.97-4.23.6-7.04.38,2.28-.22,4.1-.46,6.36-.83,1.04-2.68.45-18.98.38-22.74-16.01-1.32-36.52-.44-52.75.13.09,5.21.07,9.93-.1,15.14-.96-7.37-.72-12.6-.05-20Z"/>
        <path class="cls-8" d="M637.81,636.37c8.13-20.54,20.79-40.09,36.65-55.52,3.87-3.76,9.71-10.95,15.4-8.34,4.96,12.33-19.68,50.1-30.31,58.47-2.68,2.11-6.89,5.22-9.79,7.27-1.23,1.81-16.56,14.06-20.12,17.45,1.74-4.47,5.9-15.85,8.17-19.32Z"/>
        <path class="cls-24" d="M637.81,636.37c5.08-.9,14.52-16.69,17.64-21.36,4.63-6.96,9.89-13.14,14.89-19.79-4.83,11.84-9.55,22.98-16.14,33.95-1.18,1.96-4.41,7.1-4.43,9.07-1.23,1.81-16.56,14.06-20.12,17.45,1.74-4.47,5.9-15.85,8.17-19.32Z"/>
        <path class="cls-22" d="M906.91,250.99c3.13,1.76,26.62,38.61,27.62,43.94-2.22,1.89-16.2,1.42-19.33,1.07-10.96-1.22-29.82,1.55-39.87-.76.39-1.21,28.48-39.89,31.58-44.26Z"/>
        <path class="cls-4" d="M906.91,250.99c1.42,6.87-3.23,35.09-4.07,44.39-8.4-.23-19.13-.7-27.5-.14.39-1.21,28.48-39.89,31.58-44.26Z"/>
        <path class="cls-22" d="M1132.19,414.46c14.29-.16,28.8.62,43.01,2.22-.05,9.81-.06,19.62-.54,29.42-14.02-1.23-27.98-1.7-42.01-2.58-.04-9.69-.28-19.38-.46-29.07Z"/>
        <path class="cls-4" d="M933.54,420.6c-.12-2.4-.4-3.22.66-5.26,7.39-1.61,32.3-2.07,40.01-1.7,1.26,1.64.8,1.82.86,4.42.05,8,.05,15.53.74,23.51-13.56.05-26.62.36-40.16,1.56-.85-7.59-1.72-14.9-2.11-22.53Z"/>
        <path class="cls-15" d="M933.54,420.6c-.12-2.4-.4-3.22.66-5.26,7.39-1.61,32.3-2.07,40.01-1.7,1.26,1.64.8,1.82.86,4.42-11.3.02-30.11,1.43-41.53,2.54Z"/>
        <path class="cls-22" d="M820.68,259.31l.61-.8c4.33,6.5,12.94,22.24,15.19,29.83.66,2.24,1.31,11.05,1.53,13.86-7.3.45-20.88,1.21-28.01.66l-15.19.14-.63-9.45c14.41-9.25,17.55-19.17,26.5-34.24Z"/>
        <path class="cls-4" d="M820.68,259.31c.18,5.69-1.32,13.17-1.83,19.01-.68,7.76-1.18,15.48-1.76,23.24-2.82.99-4.17,1-7.09,1.29l-15.19.14-.63-9.45c14.41-9.25,17.55-19.17,26.5-34.24Z"/>
        <path class="cls-10" d="M296.09,532.32c-1.36-11.47,3.56-18.96,9.66-28.5,1.9-2.97,4.01-5.27,7.58-5.95,6.91,1.71,7.03,11.93,8.76,17.4,4.66,14.72.02,20.45-5.67,33.33-1.49,1.79-2.88,3.62-4.65,5.12l.09-.93v-.39c-3.28-1.7-13.67-16.27-15.77-20.09Z"/>
        <path class="cls-1" d="M311.88,552.42c.31-6.86-.95-21.11.37-26.36.64,5.86,1.95,17.29,4.18,22.55-1.49,1.79-2.88,3.62-4.65,5.12l.09-.93v-.39Z"/>
        <path class="cls-17" d="M845.51,282.02c.2.17.44.32.61.52,2.63,3.14,1.27,13.54,1.18,17.64-.06,3.03-.52,8.81,1.92,10.99,3.49,3.13,16.23,1.95,20.97,1.95-.2,12.65,2.03,34.89-.78,46.27-9.25-8.62-17.58-22.97-24.94-33.43-.24-10.37-1.89-35.06,1.04-43.94Z"/>
        <path class="cls-15" d="M419.68,400.37c20.47-.87,41.6-1.39,62.05-.2,4.72,2.92,9.2,6.66,12.59,11.06l-.51.99-75.51-.09c-.08-3.57-.8-8.89,1.38-11.77Z"/>
        <path class="cls-22" d="M545.08,414.63c5.93-.22,11.89-.16,17.83-.18-5.13,7.18-6.79,13.1-7.82,21.82-7.04.17-17.74,1.64-24.34-.57-8.73-4.6-15.39-11.79-21.93-19.04,12.11-.49,24.17-1.08,36.26-2.02Z"/>
        <path class="cls-8" d="M624.73,588.35c.8-4.66,3.11-20.4,9.72-19.29,1.4,2.08,1.46,4.07.78,6.55-6.96,25.72-12.67,52.3-16.62,78.67,0,3.65-.85,11.43-1.15,15.38-1.8,2.16-3.99,4.53-5.88,6.67-1.87-26.01,4.7-63.42,13.14-87.98Z"/>
        <path class="cls-24" d="M611.59,676.33c-1.87-26.01,4.7-63.42,13.14-87.98.41,4.28-1.28,8.69-1.63,12.9-1.23,14.87-6.94,38.71-4.48,53.04,0,3.65-.85,11.43-1.15,15.38-1.8,2.16-3.99,4.53-5.88,6.67Z"/>
        <path class="cls-15" d="M811.88,415.82c11.7.02,23.41.25,35.1.13,7.97-.08,16.92-1.07,24.77.15.7,1.68.45,2.12.09,3.86-2.5,1.85-10.97,1.12-15.1,3.03-.2.09-.4.2-.6.29-7.93,5.42-11.72,10.11-15.97,18.74-10.48-6.42-19.6-17.52-28.29-26.21Z"/>
        <path class="cls-15" d="M1202.69,419.17l7.82.55c2.73,30.09-2.24,59.52-12.34,87.82-2.4.3-5.21-.22-7.64-.4,2.56-7.98,5.58-15.84,7.59-23.98,5.17-20.89,5.11-42.62,4.57-63.99Z"/>
        <path class="cls-18" d="M708.93,449.98c-.36-8.86-.5-18.1-.39-26.98.04-3.12.5-6.05,3.95-5.98,2.86,1.53,3.91,3.37,5.87,5.97,4.7,4.63,10.28,9.66,14.77,14.21,0,7.51.07,14.27-.65,21.76-6-3.18-9.19-6.22-15.79-6.44-2.47-.7-5.28-1.72-7.75-2.55Z"/>
        <path class="cls-4" d="M708.93,449.98c-.36-8.86-.5-18.1-.39-26.98.04-3.12.5-6.05,3.95-5.98,2.86,1.53,3.91,3.37,5.87,5.97-1.24,8.95-1.35,20.33-1.68,29.53-2.47-.7-5.28-1.72-7.75-2.55Z"/>
        <path class="cls-4" d="M978.55,417.54c.04-2.56-.15-3.04,1.33-4.92l1.77-.81c5.58,2.92,4.36,8.75,4.09,14.26.22,20.57,2.39,41.36,7.14,61.46,1.28,5.45,4.91,13.25,6.65,19.45l-.69.56c-1.92.07-3.39.4-4.94-.61-3-3.92-4.27-9.83-5.67-14.6-7.47-25.47-8.75-48.62-9.68-74.79Z"/>
        <path class="cls-22" d="M978.55,417.54c.04-2.56-.15-3.04,1.33-4.92l1.77-.81c5.58,2.92,4.36,8.75,4.09,14.26-.69-3.18.07-4.91-1.14-7.92-2.27-1.23-3.19-.72-6.05-.61Z"/>
        <path class="cls-15" d="M1180.93,418.65l8.48-.38c-2.31,30.66-7.45,59.54-17.78,88.58l-.3.41c-1.8.54-3.12.48-4.98.31-1.45-2.32,2.85-12.86,3.63-15.92,2.17-8.5,5-16.85,6.83-25.45,3.33-15.62,3.79-31.64,4.12-47.54Z"/>
        <path class="cls-4" d="M1047.81,470.26c-.85-5.38-1.3-54.57.53-57.56,2.28-.72,1.13-.69,3.55.12,2.11,2.59,1.47,2,1.74,5.9l.35,64.37c0,4.57.33,20.21-.43,23.77-1.35.89-2.82.55-4.52.46-2.13-2.06-1.21-32.17-1.22-37.06Z"/>
        <path class="cls-26" d="M1047.81,470.26c-.85-5.38-1.3-54.57.53-57.56,2.28-.72,1.13-.69,3.55.12,2.11,2.59,1.47,2,1.74,5.9-2-1.76-1.11-1.24-3.94-1.69l-1.38.74c-1.63,14.83,1.09,37.84-.5,52.49Z"/>
        <path class="cls-4" d="M1122.09,414.3c1.89.01,3.83-.24,5.48.82,2.02,4.49,1.23,11.11,1.17,16-.33,26.11-3.87,50.68-10.87,75.88-.27.08-.54.19-.82.24-1.75.31-3.19.3-4.61-.7.54-8.93,4.13-18.39,5.67-27.3,3.8-21.89,4.81-42.75,3.98-64.95Z"/>
        <path class="cls-4" d="M943.18,446.75c10.58-1.41,22.35-.43,33.06-.31.22,2.84.6,5.67.95,8.49-9.77.03-19.59.66-29.35,1-10.01.92-19.73,2.16-29.58,4.22-.81-3.32-.98-6.76-1.27-10.15,8.67-1.61,17.4-2.53,26.18-3.26Z"/>
        <path class="cls-4" d="M1057.9,445.56c19.96-.43,40,.52,59.96.92l-.29,9.29c-11.21-.33-22.4-1.06-33.61-1.49-8.36-.32-16.79-.2-25.13-.95-1.27-2.21-.9-5.27-.93-7.77Z"/>
        <path class="cls-22" d="M492.61,481.44c1.28.02,2.6.03,3.87.23,4.29.66,6.33,4.28,8.48,7.6-1.96,6.08-2.48,11.71-2.98,18.03l-1.43.48-14.42.14c-.28-5.95-1.25-12.85.1-18.66.97-4.18,2.97-5.67,6.38-7.82Z"/>
        <path class="cls-4" d="M1010.24,445.37c11.04-.2,22.04-.29,33.08-.17.16,2.29.59,4.43-.56,6.51-4.51,3.09-13.71,1.28-19.27,1.29-9.82.05-21.91,2.54-31.38.26-1.16-1.95-1.1-3.96-1.22-6.15,3.28-2.92,14.91-1.72,19.35-1.73Z"/>
        <path class="cls-22" d="M423.23,481.56c1.33-.09,2.68-.19,4.01-.05,1.69.18,2.94.91,3.98,2.25,4.15,5.36,2.69,16.67,1.71,22.91-1.21,1.34-3.39,1-5.18,1.1l-10.8-.03c.12-6.52-1.4-13.92.33-20.22.95-3.47,2.98-4.38,5.95-5.97Z"/>
        <path class="cls-15" d="M1132.08,447.51c14.12.51,28.09,1.55,42.14,3.05l-1.21,8.58c-2.89,1.43-35.17-1.92-40.99-2.11l.06-9.52Z"/>
        <path class="cls-22" d="M457.5,482.13c2.29-.19,5.28-.49,7.21.98,2.87,2.19,3.68,6.69,3.99,10.1.3,3.41.45,12.03-1.54,14.44l-3.02.12-12.31-.2c-.18-5.65-.93-12.05.11-17.6.74-3.96,2.27-5.65,5.55-7.84Z"/>
        <path class="cls-22" d="M1186.29,469.71c3.05,1.27,6.21,2.34,9.32,3.47-2.17,11.71-5.27,22.86-9.31,34.05l-10.48.07c3.98-12.43,8.07-24.74,10.47-37.59Z"/>
        <path class="cls-18" d="M805.67,308.24c3.74-.34,7.63-.24,11.39-.33l-.35,16.93-8.38.04-12.72-.26-.14-15.89,10.21-.49Z"/>
        <path class="cls-18" d="M629.09,368.21c.8.55,1.56,1.12,2.24,1.82,3.64,3.73,1.35,21.36,1.28,27.06l-.6.14c-.33.08-.67.17-1,.24-3.16.72-4.96,1.3-7.67,3.17-1.89-1.55-3.67-3.27-5.49-4.9,1.52-11.14,5.01-18.29,11.25-27.53Z"/>
        <path class="cls-4" d="M924.75,462.87l1.14.05c2.05,1.91,5.28,20.65,6.6,24.89,1.92,6.16,4.77,11.86,7.48,17.69l-.29.74-4.31,1.03c-1.07-.17-1.47-.03-2.26-.84-4.9-5.01-13.56-33.88-13.67-41.32,1.18-1.38,3.59-1.76,5.31-2.25Z"/>
        <path class="cls-4" d="M820.29,308.03l18.16.12c.15,5.5.05,11.02.05,16.52l-18.31-.15.1-16.49Z"/>
        <path class="cls-4" d="M915.9,415.55l10.74.18c-1.16,9.6-.76,18.56-.03,28.15-3.43.33-6.81,1.01-10.19,1.61-.75-9.95-.53-19.98-.52-29.95Z"/>
        <path class="cls-8" d="M932.79,464.73c2.52,1.78,3.06,5.84,4.07,8.62,4.25,11.66,11.54,22.63,17.05,33.8l-9.39.02c-5.41-13.63-10.1-27.81-11.73-42.43Z"/>
        <path class="cls-4" d="M669.15,222.12c.2.25.46.46.6.75,1.61,3.25,1.41,38.26.96,44.19-.37,5.01-1.36,9.95-2.32,14.88-3.57-7-1.86-50.45.76-59.82Z"/>
        <path class="cls-5" d="M479.74,600.18c.26.02.53.02.79.05,3.14.34,4.59,2.73,6.52,4.95.78-.87,1.57-1.8,2.46-2.57,1.46-1.26,2.11-1.54,4-1.5,1.06.88,1.39,1.64,1.75,2.94.85,3.05.27,4.36-1.26,7.07-1.55,1.33-3.3,2.87-5.27,3.52-1.93.64-4.36-.05-6.11-.93-2.39-1.2-3.89-3.27-4.53-5.84-.81-3.25-.1-4.91,1.64-7.69Z"/>
        <path class="cls-4" d="M755.22,447.46c7.9-.41,23.04-1.88,30.32.38,1.63.51,1.71.76,2.45,2.19-.53,2.21-.91,2.49-2.45,4.05-1.34,1.05-2.72,1.89-4.2,2.74-5.18-.55-9.67-5.13-14.89-6.1-3.31-.62-8.45,1.02-11.29-.68l.06-2.58Z"/>
        <path class="cls-22" d="M1194.16,418.14c1.78.34,2.94.2,4.13,1.6.54,5.73,1.52,27.19-.74,31.57-1.87-.43-3.5-1.03-5.25-1.83-1.03-5.11,1.53-24.44,1.86-31.34Z"/>
        <path class="cls-4" d="M739.25,439.25c4.22,2.55,11.02,5.34,12.3,10.41-.63,2.48-2.01,3.12-3.9,4.69l-8.74,6.69c-.15-7.08-.72-14.78.34-21.79Z"/>
        <path class="cls-4" d="M662.53,276.23c2.24,3.48,4.31,17.37,5.39,22.01-1.63,1.04-4.82.73-6.76.81-1.27.08-2.54,0-3.81-.04l-.93-1.01c-1.07-5.97,4.21-15.81,6.1-21.77Z"/>
        <path class="cls-1" d="M321.06,572.25c16.03-10-2.62-14.59,1.95-28.07,1.34-3.96,3.45-9.73,7.16-11.59-3.88,7.76-7.18,10.97-4.43,19.34.52.98,1.09,2.08,1.73,3.29,4.81,2.04,6.26.81,4.71,7.07-.24.96-1.08,3.01-1.56,4.19l2.6,3.43c-3.29,2-4.42,2.33-8.36,2.32l-1.01-.19-2.79.2Z"/>
        <path class="cls-26" d="M673.77,275.41c.41.63.53.76.85,1.55,1.6,3.93,5.89,18.09,4.36,21.52l-2.1.31c-2.19.02-5.54.38-7.31-.84-.83-6.92,2.5-15.82,4.2-22.53Z"/>
        <path class="cls-15" d="M528.26,441.54l8.54.02c-.03,5.07-.12,10.1-.42,15.15l-1.18.99-7.11,2.65.17-18.82Z"/>
        <path class="cls-5" d="M319.51,558.82c.72-.23,1.87-.3,2.66-.22.91.09,2.08.34,2.66,1.07.95,1.2,1.08,2.39.8,3.84-.78,4.08-2.88,5.48-6.13,7.57-1.16-.21-2.37-.5-3.47-.9-2.31-.84-3.6-2.4-4.56-4.57.03-1.72-.05-2.46.94-3.94,1.53-2.3,4.6-2.44,7.11-2.85Z"/>
        <path class="cls-15" d="M542.04,441.57l8.92.06.15,15.74c-2.92-.24-5.85-.62-8.77-.94.11-4.95-.14-9.91-.3-14.86Z"/>
        <path class="cls-15" d="M1189.57,453.83c2.97,1.2,5.79,2.51,8.63,3.99-.35,3.68-.97,7.35-1.49,11.01-2.79-1.59-5.85-2.74-8.81-4l1.67-11.01Z"/>
        <path class="cls-22" d="M808.81,446.78c1.32-.32,2.04-.39,3.36-.06-.04,1.42-.55,2.34-1.65,3.32-2.24,1.98-9.37-.03-12.7.14l-.86.05c-1.98.41-4.3,1.22-6.25.49-.47-1.48-.59-1.56-.05-3,5.47-1.51,12.39-.38,18.14-.94Z"/>
        <path class="cls-4" d="M374.66,345.05c2.12-.04,3.6-.41,5.43.79,1.46,2.83.8,6.57.67,9.69-2.22.15-2.93.4-4.92-.69-1.65-2.73-1.15-6.66-1.18-9.78Z"/>
        <path class="cls-26" d="M376.82,330.41c1.03,1.64,2.54,4.5,2.24,6.51-.33,2.18-1.75,2.46-3.46,3.42l-1.32-1.02c-.07-3.12,1.43-6.05,2.55-8.91Z"/>
        <path class="cls-11" d="M212.71,172.15c-.52-2.83-.83-5.65-.21-8.51,6.71-31.03,14.24-61.94,21.16-92.93,1.34-5.99,4.43-10.64,9.91-13.49,15.39-8,31.28-15.07,46.87-22.65,11.62-5.44,26.1-13.13,38.03-17.18,1.86-.63,20.62-.45,22.6.45,28.49,13.02,57.91,26.9,85.88,41.06,3.25,1.65,5.76,7.57,7.03,10.62l-73.12-.07c-32.65-.01-51.76-3.48-79.72,17.8-1.87-.95-4.2-2.22-6.12-2.93-8.21,3.76-24.1,10.86-31.76,15.27-3.28,10.34-5.67,23.35-8.26,34.09,4.81,7.04,15.44,18.43,18.77,24.37,5.34,9.54,5.96,21.16,14.3,31.61,9.01,11.28,19.62,20.65,30.12,30.54,13.69,12.89,27.27,26.25,41.05,38.95-9.37,1.03-60.44,1.75-66.91-1.45-2.78-1.37-5.32-4.42-7.36-6.7-8.12-9.11-60.23-72.6-62.26-78.84Z"/>
        <path class="cls-16" d="M88.37,402.92c34.03-4.16,59.95-4.72,94.58-12-.22,22.17-.32,44.42-1.01,66.57,1.16,15.86.09,40.19-.04,56.7-38.02.37-76.35-.31-114.32.28-6.82-.27-46.51,1.09-48.03-3.27,3.73-3.8,6.81-2.78,12.01-2.73-4.84-25.19.4-52.02,30.92-54.9,2.33-.22,9.29,3.58,11.01,1.83,5.96-6.03,4.98-7.93,13.15-11.97-.83-8.15.88-32.21,1.73-40.51Z"/>
        <path class="cls-23" d="M88.37,402.92c34.03-4.16,59.95-4.72,94.58-12-.22,22.17-.32,44.42-1.01,66.57-2.71-.37-8.88.29-11.9.53-3.01-4.86-6.81-9.72-11.41-12.13-15.02-7.88-20.52,4.71-30.98,9.99-4.55,2.29-9.93-8.34-16.17-11.42-8.68-4.28-15.58-3.71-24.84-1.02-.83-8.15.88-32.21,1.73-40.51Z"/>
        <path class="cls-8" d="M75.29,464.3c3.12-4.57,6.02-9.19,10.72-12.26,14.02-9.16,27.66-4.68,33.43,10.93,5.11-.9,8.76-1.06,13.89-1.32,10.77-16.97,23.74-15.46,33.83,1.01l11.74.02c-.75,15.83-.93,30.8-1.48,46.4-38.08-.88-76.23.15-114.32-.07-4.01-.02-8,.03-12-.3-3.93.19-9.87-.1-13.95-.16-3.77-17.35-1.47-39.17,18.14-46.99,7.01-2.8,13.52-.52,19.99,2.74Z"/>
        <path class="cls-17" d="M75.29,464.3c3.12-4.57,6.02-9.19,10.72-12.26,14.02-9.16,27.66-4.68,33.43,10.93-12.87,5.59-25.96,11.45-32.25,24.92-10.22-4.74-20.82-6.4-26.53,5.93-2.49,5.36-1.5,8.43-.59,14.11-3.52.62-5.42.67-8.98.78-3.93.19-9.87-.1-13.95-.16-3.77-17.35-1.47-39.17,18.14-46.99,7.01-2.8,13.52-.52,19.99,2.74Z"/>
        <path class="cls-11" d="M338.11,79.05c3.79-.16,7.75.07,11.51.56,17.08,2.24,32.83,11.46,43.32,25.09,11.09,14.42,15.77,32.63,13.21,50.62-2.45,17.26-11.89,33.12-25.83,43.57-16.65,12.48-34.98,14.75-55.04,11.76-6.56-1.72-12.94-4.21-18.8-7.63-15.62-9.13-26.31-23.92-30.84-41.33,9.1.11,18.22.32,27.31-.14,7.59-8.4,16.44-18.48,22.24-28.19-3.02-11.19-4.99-22.63-8.15-33.8-5.28-2.92-10.9-5.32-16.38-7.85,11.58-7.97,23.46-11.9,37.45-12.66Z"/>
        <path class="cls-13" d="M284.02,93.64c5.32-.52,21.12,8.77,26.57,11.6,2.3,8.76,4.12,17.7,6.17,26.53-5.4,7.47-11.53,14.91-17.65,21.8h-10.95s-16.29,0-16.29,0c-6.36-6.64-11.97-14.4-17.61-21.65,1.71-9.04,4.02-18,6.26-26.92,7.79-3.88,15.66-7.6,23.51-11.35Z"/>
        <path class="cls-2" d="M278.78,102.84h13.26s0,14.97,0,14.97l14.87-.03v13.29s-14.88-.11-14.88-.11l.03,14.94-13.21.02c-.17-4.98,0-9.98.06-14.96l-14.9.13-.05-13.3h14.94c-.17-4.98-.1-9.97-.11-14.95Z"/>
      </g>
    </g>
  </g>
</svg>